<svg width="1694" height="434" viewBox="0 0 1694 434" fill="none" xmlns="http://www.w3.org/2000/svg">
<path d="M1440.71 73.0641C1443.21 72.8026 1445.89 72.475 1448.24 73.5255C1449.97 75.0336 1450.33 77.3914 1450.59 79.5627C1451.56 87.4051 1450.69 95.6674 1450.75 103.578C1450.82 114.341 1451.71 125.549 1450.99 136.26C1450.88 137.952 1450.7 140.31 1449.65 141.672C1445.2 143.283 1432.49 139.886 1427.19 139.377C1413.6 138.073 1397.44 141.44 1386.77 150.319C1379.6 156.28 1373.84 164.711 1371.12 173.635C1365.13 193.242 1367.64 225.785 1367.99 246.921L1368.35 294.44C1368.42 302.254 1369.23 310.592 1368.47 318.342C1368.31 319.995 1368.16 322.093 1366.78 323.218C1364.5 324.082 1362.01 324.188 1359.59 324.293C1347.29 324.826 1334.88 324.116 1322.57 324.129C1316.51 324.136 1305.87 325.667 1300.41 324.227C1293.92 322.515 1300.73 291.787 1297.03 285.903C1296.98 285.82 1296.93 285.74 1296.87 285.658C1296.98 285.36 1297.07 285.056 1297.15 284.748C1298.31 279.938 1297.63 273.291 1297.66 268.311L1297.85 235.86L1297.8 143.111C1297.79 124.508 1298.19 105.86 1297.79 87.2631C1297.74 84.7892 1298.08 81.4654 1296.69 79.3262C1309.49 78.9857 1322.19 79.2567 1334.98 79.2362C1344.64 79.2207 1354.91 78.2311 1364.43 80.0827C1368.1 84.4399 1362.9 126.798 1366.56 131.136L1367.19 131.156C1369.64 128.058 1371.2 124.205 1373.07 120.73C1377.33 112.809 1381.88 104.553 1387.75 97.7074C1400.86 82.4155 1421.01 74.5461 1440.71 73.0641Z"/>
<path d="M594.903 72.5336C609.975 71.84 626.813 73.659 641.521 76.9609C661.904 81.5362 679.742 91.135 691.108 109.192C696.873 118.349 699.617 128.228 700.917 138.885C703.067 156.505 702.191 174.418 702.068 192.126L701.908 261.648L701.987 298.195C702.035 306.396 703.129 315.744 701.297 323.718C689.619 325.215 674.163 324.355 662.193 324.259C653.181 324.187 643.725 324.82 634.807 323.636L634.859 323.048L633.917 323.359C631.443 319.518 632.794 301.849 632.656 296.417C615.184 315.13 597.66 327.882 571.101 329.802C547.687 331.495 522.586 324.066 504.799 308.603C491.131 296.719 480.816 278.89 477.324 261.054C476.523 256.959 476.321 252.728 476.027 248.571C475.564 231.279 481.126 213.016 490.903 198.703C503.48 180.29 523.81 167.926 545.574 163.797C566.864 159.759 595.694 163.081 613.321 176.724C619.88 181.801 624.518 188.874 631.402 193.572C632.144 172.096 634.424 150.358 631.435 128.943C630.238 120.374 627.115 111.43 619.928 106.07C611.891 100.077 600.479 98.8884 590.827 100.374C575.55 102.725 566.01 112.036 563.551 127.2C562.94 130.974 562.787 137.135 560.447 140.151C559.322 141.602 557.219 141.803 555.521 142.006C545.887 143.152 535.635 142.036 525.929 142.067C514.916 142.102 503.351 143.199 492.399 142.209C490.672 142.053 488.633 141.743 487.258 140.595C486.139 139.66 485.584 138.18 485.454 136.761C484.582 127.24 491.559 111.344 497.548 104.219C515.152 83.276 545.366 76.0773 571.433 73.7588C579.246 73.0639 587.087 73.2337 594.903 72.5336ZM581.019 201.822C567.839 205.46 556.335 211.744 549.354 224.02C543.456 234.389 542.146 246.015 545.348 257.463C548.638 269.231 556.046 279.013 566.758 284.977C575.57 289.882 585.952 291.245 595.898 290.185C610.443 285.862 620.258 280.826 627.776 266.934C633.206 256.902 634.704 244.212 631.403 233.236C628.15 222.423 620.195 212.439 610.205 207.134C602.098 202.829 590.153 200.145 581.019 201.822Z"/>
<path d="M1585.84 73.4541C1600.91 72.7604 1617.75 74.5794 1632.46 77.8813C1652.84 82.4566 1670.68 92.0554 1682.04 110.112C1687.81 119.269 1690.55 129.148 1691.85 139.805C1694 157.426 1693.13 175.338 1693 193.046L1692.84 262.569L1692.92 299.115C1692.97 307.317 1694.07 316.664 1692.23 324.639C1680.56 326.136 1665.1 325.275 1653.13 325.18C1644.12 325.108 1634.66 325.74 1625.74 324.557L1625.8 323.969L1624.85 324.279C1622.38 320.438 1623.73 302.77 1623.59 297.338C1606.12 316.05 1588.6 328.802 1562.04 330.723C1538.62 332.416 1513.52 324.986 1495.74 309.523C1482.07 297.64 1471.75 279.81 1468.26 261.974C1467.46 257.88 1467.26 253.648 1466.96 249.491C1466.5 232.199 1472.06 213.936 1481.84 199.623C1494.42 181.211 1514.75 168.846 1536.51 164.718C1557.8 160.68 1586.63 164.002 1604.26 177.645C1610.82 182.722 1615.45 189.795 1622.34 194.493C1623.08 173.017 1625.36 151.279 1622.37 129.864C1621.17 121.294 1618.05 112.35 1610.86 106.991C1602.83 100.998 1591.42 99.8088 1581.76 101.295C1566.49 103.646 1556.95 112.957 1554.49 128.12C1553.88 131.894 1553.72 138.055 1551.38 141.072C1550.26 142.522 1548.16 142.724 1546.46 142.926C1536.82 144.072 1526.57 142.956 1516.87 142.987C1505.85 143.022 1494.29 144.12 1483.34 143.129C1481.61 142.973 1479.57 142.663 1478.19 141.515C1477.08 140.58 1476.52 139.101 1476.39 137.682C1475.52 128.16 1482.5 112.265 1488.48 105.139C1506.09 84.1964 1536.3 76.9977 1562.37 74.6792C1570.18 73.9843 1578.02 74.1541 1585.84 73.4541ZM1571.96 202.742C1558.78 206.38 1547.27 212.665 1540.29 224.94C1534.39 235.309 1533.08 246.936 1536.28 258.383C1539.57 270.152 1546.98 279.933 1557.69 285.897C1566.51 290.802 1576.89 292.165 1586.83 291.105C1601.38 286.783 1611.19 281.747 1618.71 267.855C1624.14 257.822 1625.64 245.133 1622.34 234.157C1619.09 223.343 1611.13 213.36 1601.14 208.054C1593.03 203.749 1581.09 201.066 1571.96 202.742Z"/>
<path d="M1117.5 73.5505C1118.44 73.4618 1119.36 73.4325 1120.3 73.4078C1162.86 72.2836 1199.85 75.2229 1232.22 105.972C1232.92 106.644 1233.62 107.326 1234.31 108.015C1235 108.705 1235.68 109.403 1236.35 110.109C1237.02 110.816 1237.68 111.53 1238.33 112.253C1238.99 112.976 1239.63 113.707 1240.27 114.446C1240.9 115.184 1241.53 115.93 1242.15 116.684C1242.76 117.439 1243.37 118.2 1243.97 118.97C1244.57 119.739 1245.15 120.515 1245.73 121.298C1246.31 122.082 1246.88 122.873 1247.44 123.67C1248 124.468 1248.55 125.273 1249.09 126.084C1249.63 126.895 1250.16 127.713 1250.68 128.537C1251.2 129.361 1251.71 130.192 1252.21 131.029C1252.71 131.865 1253.2 132.708 1253.67 133.557C1254.15 134.406 1254.62 135.261 1255.08 136.121C1255.54 136.981 1255.98 137.847 1256.42 138.719C1256.85 139.59 1257.28 140.467 1257.69 141.349C1258.11 142.231 1258.51 143.118 1258.9 144.009C1259.29 144.901 1259.68 145.798 1260.05 146.699C1260.42 147.6 1260.78 148.506 1261.13 149.416C1261.47 150.327 1261.81 151.241 1262.13 152.159C1262.46 153.077 1262.77 154 1263.08 154.926C1263.38 155.852 1263.67 156.782 1263.95 157.715C1264.23 158.649 1264.5 159.585 1264.75 160.525C1265.01 161.465 1265.26 162.408 1265.49 163.354C1265.72 164.3 1265.95 165.249 1266.16 166.2C1266.36 167.152 1266.56 168.106 1266.75 169.063C1266.93 170.019 1267.11 170.977 1267.27 171.938C1267.44 172.898 1267.59 173.861 1267.73 174.826C1267.86 175.79 1267.99 176.756 1268.11 177.723C1268.22 178.691 1268.32 179.66 1268.42 180.63C1268.51 181.6 1268.59 182.571 1268.66 183.543C1268.72 184.515 1268.78 185.488 1268.82 186.461C1268.86 187.434 1268.89 188.408 1268.91 189.382C1269.97 230.396 1265.03 262.546 1235.81 293.223C1235.16 293.908 1234.5 294.585 1233.83 295.253C1233.16 295.922 1232.49 296.582 1231.8 297.234C1231.12 297.886 1230.43 298.529 1229.73 299.164C1229.03 299.799 1228.32 300.425 1227.6 301.043C1226.88 301.66 1226.16 302.269 1225.43 302.869C1224.7 303.469 1223.96 304.059 1223.22 304.641C1222.47 305.223 1221.72 305.795 1220.96 306.359C1220.2 306.922 1219.43 307.475 1218.66 308.02C1217.89 308.565 1217.11 309.1 1216.32 309.625C1215.53 310.15 1214.74 310.666 1213.94 311.172C1213.15 311.678 1212.34 312.174 1211.53 312.66C1210.72 313.146 1209.9 313.622 1209.08 314.089C1208.26 314.555 1207.43 315.011 1206.6 315.457C1205.76 315.902 1204.92 316.338 1204.08 316.763C1203.23 317.188 1202.38 317.603 1201.53 318.008C1200.68 318.412 1199.82 318.806 1198.95 319.19C1198.09 319.573 1197.22 319.946 1196.35 320.308C1195.47 320.67 1194.6 321.021 1193.72 321.362C1192.83 321.702 1191.95 322.032 1191.05 322.351C1190.17 322.669 1189.27 322.977 1188.37 323.274C1187.48 323.571 1186.57 323.857 1185.67 324.132C1184.77 324.407 1183.86 324.67 1182.95 324.923C1182.04 325.175 1181.12 325.417 1180.21 325.647C1179.29 325.877 1178.37 326.096 1177.45 326.303C1176.52 326.511 1175.6 326.707 1174.67 326.892C1173.75 327.077 1172.82 327.251 1171.89 327.413C1170.95 327.575 1170.02 327.725 1169.08 327.865C1168.15 328.004 1167.21 328.132 1166.27 328.248C1165.33 328.364 1164.4 328.469 1163.45 328.562C1162.51 328.655 1161.57 328.737 1160.63 328.807C1159.69 328.877 1158.75 328.936 1157.8 328.983C1156.85 329.03 1155.91 329.065 1154.97 329.089C1121.11 330.289 1087.36 329.197 1058.06 310.2C1057.26 309.68 1056.46 309.15 1055.67 308.61C1054.87 308.07 1054.09 307.52 1053.31 306.961C1052.53 306.401 1051.76 305.832 1051 305.254C1050.23 304.675 1049.48 304.088 1048.73 303.491C1047.98 302.894 1047.24 302.287 1046.5 301.672C1045.77 301.056 1045.04 300.432 1044.32 299.799C1043.6 299.166 1042.89 298.523 1042.18 297.872C1041.48 297.222 1040.78 296.562 1040.1 295.894C1039.41 295.226 1038.73 294.55 1038.06 293.865C1037.39 293.18 1036.72 292.487 1036.07 291.786C1035.42 291.085 1034.77 290.376 1034.14 289.659C1033.5 288.942 1032.88 288.217 1032.26 287.485C1031.64 286.752 1031.03 286.012 1030.43 285.264C1029.83 284.517 1029.24 283.762 1028.66 283C1028.07 282.238 1027.5 281.469 1026.94 280.693C1026.38 279.916 1025.83 279.133 1025.28 278.344C1024.74 277.554 1024.21 276.758 1023.68 275.954C1023.16 275.151 1022.65 274.342 1022.14 273.526C1021.64 272.711 1021.14 271.889 1020.66 271.061C1020.18 270.233 1019.71 269.4 1019.24 268.561C1018.78 267.721 1018.33 266.876 1017.89 266.025C1017.44 265.175 1017.01 264.319 1016.59 263.458C1016.17 262.596 1015.76 261.73 1015.36 260.859C1014.96 259.987 1014.57 259.111 1014.19 258.23C1013.82 257.349 1013.45 256.464 1013.1 255.573C1012.74 254.683 1012.39 253.789 1012.06 252.891C1011.73 251.992 1011.4 251.09 1011.09 250.183C1010.78 249.277 1010.48 248.367 1010.19 247.453C1009.9 246.539 1009.63 245.622 1009.36 244.701C1009.09 243.78 1008.84 242.856 1008.59 241.929C1008.35 241.002 1008.12 240.072 1007.89 239.14C1007.67 238.207 1007.46 237.271 1007.27 236.334C1004.98 225.547 1004.62 214.32 1004.64 203.327C1004.72 176.924 1007.95 150.994 1022.67 128.387C1039.31 102.832 1064.56 83.7515 1094.46 76.7492C1102.14 74.9529 1109.92 75.16 1117.5 73.5505ZM1132.04 103.227C1118.1 105.769 1107.34 110.289 1099.04 122.353C1077.68 153.399 1078 207.944 1084.72 243.604C1088.1 261.522 1094.83 281.435 1110.58 292.095C1119.46 298.105 1128.82 300.188 1139.4 300.044C1151.95 299.279 1162.55 294.539 1170.93 285.055C1193.6 259.396 1193.37 211.799 1191.3 179.83C1189.85 157.364 1185.19 129.822 1167.45 114.153C1158.1 105.898 1145.97 102.298 1133.6 103.102C1133.08 103.136 1132.56 103.178 1132.04 103.227Z"/>
<path d="M984.085 51.6573C989.057 51.3687 995.747 50.2877 1000.52 51.7429C1001.49 52.0403 1002.47 52.4009 1002.96 53.3556C1003.76 60.3342 1004.68 108.873 1002.53 112.337C993.509 112.955 984.362 110.689 975.343 110.507C967.52 110.348 954.228 111.767 948.287 117.47C947.155 120.369 949.102 123.584 950.191 126.265C954.656 137.247 956.923 148.522 957.215 160.371C957.731 181.475 950.587 200.955 935.942 216.257C928.811 223.709 920.052 228.889 910.802 233.256C897.302 239.632 882.944 244.053 868.016 245.302C863.907 245.646 859.776 245.499 855.661 245.712C843.706 246.328 831.869 246.496 819.895 246.4C814.81 246.359 809.674 245.955 804.599 246.074C798.281 246.224 792.958 248.984 788.698 253.565C786.342 256.099 785.35 260.367 785.554 263.743C785.884 269.229 789.258 274.632 794.492 276.603C802.419 279.588 813.152 277.845 821.514 277.812L864.852 277.756C896.8 277.55 932.274 276.116 957.629 298.979C969.704 309.869 976.019 323.564 976.812 339.768C976.844 340.385 976.867 341.002 976.88 341.619C976.896 342.236 976.904 342.853 976.904 343.47C976.904 344.087 976.898 344.705 976.885 345.321C976.869 345.939 976.846 346.555 976.817 347.172C976.784 347.788 976.745 348.404 976.7 349.02C976.654 349.635 976.603 350.25 976.544 350.865C976.483 351.479 976.413 352.092 976.335 352.705C976.26 353.317 976.178 353.929 976.087 354.539C975.996 355.15 975.897 355.759 975.79 356.367C975.683 356.975 975.568 357.581 975.445 358.187C975.325 358.791 975.197 359.395 975.06 359.997C974.924 360.599 974.78 361.199 974.627 361.797C974.475 362.396 974.316 362.992 974.151 363.587C973.985 364.181 973.812 364.773 973.63 365.363C973.448 365.953 973.26 366.541 973.066 367.127C972.871 367.712 972.668 368.295 972.458 368.876C972.247 369.456 972.029 370.033 971.806 370.608C971.582 371.183 971.35 371.756 971.11 372.325C970.87 372.894 970.623 373.46 970.37 374.023C970.121 374.586 969.861 375.146 969.592 375.703C969.326 376.26 969.054 376.813 968.775 377.363C968.493 377.912 968.206 378.459 967.914 379.002C967.618 379.544 967.317 380.083 967.009 380.619C966.701 381.154 966.388 381.685 966.07 382.213C965.749 382.74 965.421 383.263 965.087 383.783C964.753 384.302 964.412 384.817 964.065 385.328C963.722 385.839 963.37 386.345 963.01 386.847C962.65 387.35 962.285 387.848 961.915 388.341C961.542 388.834 961.164 389.322 960.781 389.805C960.399 390.289 960.01 390.768 959.614 391.242C959.218 391.716 958.816 392.185 958.407 392.649C958.002 393.113 957.59 393.572 957.172 394.026C930.295 423.611 880.881 431.528 843.116 433.403C837.447 434.344 831.152 433.922 825.421 433.802C803.277 433.336 780.235 431.46 759.295 423.727C743.836 418.018 728.553 408.382 721.476 392.863C717.382 383.886 716.919 374.424 720.414 365.181C727.794 345.66 748.195 338.136 765.722 330.296C761.785 327.94 757.241 326.688 753.057 324.844C742.657 320.261 733.709 311.555 729.585 300.889C725.28 289.758 726.425 277.378 731.23 266.595C740.006 246.9 757.322 238.641 776.337 231.372C768.415 223.68 759.754 217.228 753.044 208.29C740.388 191.434 736.286 169.031 739.188 148.417C742.124 127.559 751.494 110.461 768.453 97.7658C804.015 71.1451 856.815 69.6871 897.826 82.6905C902.054 84.0313 906.335 85.4636 910.36 87.3376C915.514 89.739 921.889 94.6478 927.431 95.4534C929.741 94.6838 936.433 82.5426 938.432 79.7539C949.48 64.3389 965.544 54.7537 984.085 51.6573ZM850.555 334.818C840.865 334.924 831.182 335.224 821.504 335.721C807.769 336.441 798.699 335.078 788.259 346.02C782.114 352.462 778.314 360.553 778.565 369.56C778.781 377.317 781.874 384.431 787.522 389.765C801.72 403.174 824.353 404.721 842.908 404.532C864.489 403.611 891.065 401.72 906.63 384.693C912.21 378.588 916.074 369.715 915.65 361.344C915.36 355.628 912.92 350.099 908.619 346.271C896.628 335.596 866.198 334.032 850.555 334.818ZM842.381 102.578C831.257 105.227 822.561 108.633 816.347 118.784C804.911 137.467 804.581 165.491 809.647 186.304C812.294 197.18 818.172 208.122 828.007 214.043C833.92 217.604 844.156 220.637 851.002 218.961C851.583 218.818 852.159 218.654 852.728 218.469C861.887 217.859 869.982 214.079 876.084 207.15C888.955 192.535 889.5 168.246 888.237 149.69C887.314 136.12 883.56 120.196 872.87 110.87C864.561 103.621 853.328 101.817 842.626 102.554C842.544 102.559 842.463 102.57 842.381 102.578Z"/>
<path d="M31.831 105.603H0.00244141V396.567H31.831C68.4051 396.567 98.065 367.083 98.065 330.743V171.368C98.065 135.026 68.4051 105.544 31.831 105.544V105.603Z"/>
<path d="M278.638 171.371V330.744C278.638 367.086 308.296 396.57 344.872 396.57H376.701V105.604H344.872C308.296 105.604 278.638 135.089 278.638 171.43V171.371Z"/>
<path d="M191.411 109.379C161.212 109.379 136.725 138.467 136.725 174.32V331.554C136.725 367.405 161.212 396.493 191.411 396.493C221.612 396.493 246.1 367.405 246.1 331.554V174.32C246.1 138.467 221.612 109.379 191.411 109.379Z"/>
<path d="M320.734 82.0322H48.4116C21.6635 82.0322 0 57.3547 0 26.8841V0H369.145V26.8841C369.145 57.3547 347.482 82.0322 320.734 82.0322Z"/>
</svg>
