<svg width="141" height="23" viewBox="0 0 141 23" xmlns="http://www.w3.org/2000/svg">
  <path
    d="M140.336 5.18644L134.811 1.16889H114.37L113.04 5.18644H123.823L118.033 22.5296H122.494L128.264 5.18644H140.336Z"/>
  <path d="M64.0545 1.16889L58.5092 5.18644H79.4215L80.772 1.16889H64.0545Z"/>
  <path d="M58.5092 5.18644L52.7187 22.5296H57.1793L62.1107 7.75214L58.5092 5.18644Z"/>
  <path
    d="M80.772 1.16889L74.7355 19.2479L76.8432 19.0888L68.1879 12.7044H61.7626L74.5922 22.5296H78.0911L84.3731 3.73455L80.772 1.16889Z"/>
  <path
    d="M26.5069 11.6503L31.7656 9.12446L33.5663 3.73455L29.965 1.16889H5.9018L0.336182 5.18644H28.6145L27.1208 9.72111H15.7849L14.6799 13.0028H26.0159L22.8442 22.5296L28.1439 19.9639L30.0468 14.2558L26.4865 11.71L26.5069 11.6503Z"/>
  <path d="M8.3368 18.4324L11.6107 8.52778L7.96848 5.88255L2.5256 22.5296L22.8442 22.5296L24.1947 18.4324H8.3368Z"/>
  <path
    d="M40.4005 3.37658L36.7993 0.810913L30.4561 19.7849L34.2824 22.5296H50.4475L51.8181 18.4325H35.3669L40.4005 3.37658Z"/>
  <path
    d="M89.366 9.82061L90.082 7.73226L86.501 5.18649L84.4551 11.2725L88.0155 13.7984V13.8183H103.976L102.441 18.4325H82.1225L80.772 22.5296H101.07L106.39 19.9639L109.009 12.1277L105.715 9.7808L89.366 9.82061Z"/>
  <path d="M92.0257 1.16889L86.501 5.18649L110.83 5.18644L112.181 1.16889H92.0257Z"/>
</svg>
