<svg xmlns="http://www.w3.org/2000/svg" viewBox="0 0 98 16">
  <path fill="currentColor" d="M7.321 12.368V10.38h2.052v2.422a2.37 2.37 0 0 1-2.376 2.378H2.354C1.037 15.18 0 14.12 0 12.801V3.158C0 1.838 1.037.779 2.354.779h4.643a2.37 2.37 0 0 1 2.376 2.379V5.47H7.321v-1.88c0-.52-.41-.909-.928-.909H2.98c-.518 0-.928.39-.928.908v8.778c0 .52.41.909.928.909h3.413c.518 0 .928-.39.928-.909ZM11.79 15.18V.78h2.052v12.497h6.35v1.902H11.79ZM28.266.78l4.903 14.4h-2.073l-1.167-3.417h-5.291l-1.123 3.416H21.42L26.322.78h1.944Zm-.972 2.745-2.03 6.379h4.06l-2.03-6.379ZM44.776.78v14.4H42.79L36.7 4.52v10.66h-1.987V.78h1.987l6.09 10.702V.779h1.987ZM47.512 15.18V.78h2.052v6.788L54.553.78h2.462L51.68 7.893l5.594 7.286h-2.505L49.564 8.26v6.92h-2.052ZM58.604 15.18V.78h8.466v1.902h-6.415v4.195h5.832v1.902h-5.832v4.498h6.436v1.902h-8.487ZM77.585 15.18l-2.829-5.817h-3.304v5.816H69.4V.78h7.106c1.339 0 2.375 1.06 2.375 2.379v3.827c0 1.167-.712 2.054-1.9 2.335l2.85 5.86h-2.246Zm-.755-8.606V3.59c0-.519-.39-.908-.93-.908h-4.448v4.8H75.9c.54 0 .929-.39.929-.908Z"></path>
  <path fill="#8A63D2" d="M97.839.78h-2.413v14.442h2.413V.779ZM92.812 6.246h-2.414v8.977h2.414V6.246ZM87.803 11.71H85.39v3.512h2.413V11.71Z"></path>
</svg>