<svg width="16" height="16" viewBox="0 0 16 16" fill="none" xmlns="http://www.w3.org/2000/svg">
  <path
    d="M10.3998 12.6666L10.3998 12.66M10.3998 7.99998L10.3998 7.99331M10.3998 3.33331L10.3998 3.32665M10.3998 12C10.768 12 11.0665 12.2985 11.0665 12.6666C11.0665 13.0348 10.768 13.3333 10.3998 13.3333C10.0316 13.3333 9.73315 13.0348 9.73315 12.6666C9.73315 12.2985 10.0316 12 10.3998 12ZM10.3998 7.33331C10.768 7.33331 11.0665 7.63179 11.0665 7.99998C11.0665 8.36817 10.768 8.66665 10.3998 8.66665C10.0316 8.66665 9.73315 8.36817 9.73315 7.99998C9.73316 7.63179 10.0316 7.33331 10.3998 7.33331ZM10.3998 2.66665C10.768 2.66665 11.0665 2.96512 11.0665 3.33331C11.0665 3.7015 10.768 3.99998 10.3998 3.99998C10.0316 3.99998 9.73316 3.7015 9.73316 3.33331C9.73316 2.96512 10.0316 2.66665 10.3998 2.66665Z"
    stroke="#57606A" stroke-width="1.2" stroke-linecap="round" stroke-linejoin="round"/>
  <path
    d="M5.59977 12.6666L5.59977 12.66M5.59977 7.99998L5.59977 7.99331M5.59977 3.33331L5.59977 3.32665M5.59977 12C5.96796 12 6.26644 12.2985 6.26644 12.6666C6.26644 13.0348 5.96796 13.3333 5.59977 13.3333C5.23158 13.3333 4.93311 13.0348 4.93311 12.6666C4.93311 12.2985 5.23158 12 5.59977 12ZM5.59977 7.33331C5.96796 7.33331 6.26644 7.63179 6.26644 7.99998C6.26644 8.36817 5.96796 8.66665 5.59977 8.66665C5.23158 8.66665 4.93311 8.36817 4.93311 7.99998C4.93311 7.63179 5.23158 7.33331 5.59977 7.33331ZM5.59977 2.66665C5.96796 2.66665 6.26644 2.96512 6.26644 3.33331C6.26644 3.7015 5.96796 3.99998 5.59977 3.99998C5.23158 3.99998 4.93311 3.7015 4.93311 3.33331C4.93311 2.96512 5.23158 2.66665 5.59977 2.66665Z"
    stroke="#57606A" stroke-width="1.2" stroke-linecap="round" stroke-linejoin="round"/>
</svg>
