<svg width="140" height="32" viewBox="0 0 140 32" xmlns="http://www.w3.org/2000/svg">
  <path
    d="M59.6656 25.9565C57.6889 25.9565 55.9924 25.5129 54.5739 24.6236C53.1555 23.7344 52.065 22.5381 51.3026 21.0339C50.539 19.5297 50.1578 17.8596 50.1578 16.0224C50.1578 14.1853 50.5488 12.5162 51.3319 11.0109C52.1139 9.50674 53.225 8.31053 54.663 7.42123C56.101 6.53194 57.7877 6.08838 59.7254 6.08838C61.8194 6.08838 63.6332 6.60135 65.169 7.62729C66.7047 8.65323 67.8343 9.97741 68.5587 11.5987H66.1519C65.5654 10.563 64.7476 9.74316 63.7016 9.13692C62.6546 8.53177 61.3882 8.22811 59.9013 8.22811C58.3362 8.22811 56.9862 8.57515 55.8512 9.26815C54.7162 9.96223 53.8506 10.8938 53.2543 12.0662C52.6569 13.2385 52.3593 14.5562 52.3593 16.0224C52.3593 17.4887 52.6526 18.7825 53.2391 19.9635C53.8256 21.1456 54.6815 22.0837 55.8067 22.7767C56.9308 23.4708 58.2765 23.8168 59.8416 23.8168C61.0146 23.8168 62.1257 23.563 63.1727 23.0544C64.2186 22.5468 65.0701 21.8148 65.7261 20.8572C66.3811 19.9006 66.7091 18.7478 66.7091 17.3998H59.607V15.4064H68.7347V25.7223H66.7091V22.2941C66.2985 22.9188 65.7696 23.5099 65.1233 24.0662C64.4771 24.6226 63.6995 25.077 62.7904 25.4294C61.8802 25.7819 60.8386 25.9576 59.6656 25.9576V25.9565ZM71.6389 25.7233V11.0706H73.8405V14.6744C73.9187 14.4206 74.0697 14.0844 74.2956 13.6636C74.5204 13.2439 74.8484 12.8188 75.2785 12.3883C75.7086 11.9588 76.2517 11.5922 76.9066 11.2886C77.5615 10.986 78.3392 10.8342 79.2407 10.8342H79.3873V13.0314H79.1233C78.0275 13.0314 77.0836 13.3285 76.2919 13.925C75.499 14.5215 74.8929 15.2926 74.4726 16.2404C74.0512 17.1883 73.8416 18.2001 73.8416 19.2738V25.7201H71.64V25.7223L71.6389 25.7233ZM87.1052 25.9565C85.677 25.9565 84.429 25.6192 83.3635 24.9457C82.297 24.2723 81.4704 23.358 80.8829 22.2052C80.2964 21.0524 80.0031 19.7835 80.0031 18.3953C80.0031 17.0072 80.2964 15.7144 80.8829 14.5714C81.4694 13.4283 82.2959 12.5206 83.3635 11.846C84.4301 11.1725 85.677 10.8353 87.1052 10.8353C88.3184 10.8353 89.36 11.0695 90.2299 11.538C91.101 12.0065 91.8091 12.642 92.3576 13.4424V11.0695H94.5581V25.7212H92.3576V23.3765C91.8091 24.1584 91.101 24.7831 90.2299 25.2527C89.36 25.7212 88.3173 25.9554 87.1052 25.9554V25.9565ZM87.3984 23.9643C88.4943 23.9643 89.4175 23.7105 90.1724 23.2019C90.9251 22.6943 91.4974 22.0154 91.8895 21.1652C92.2805 20.316 92.476 19.3931 92.476 18.3953C92.476 17.3976 92.2805 16.4519 91.8895 15.6114C91.4974 14.7709 90.9261 14.0985 90.1724 13.5888C89.4197 13.0813 88.4943 12.8264 87.3984 12.8264C86.3026 12.8264 85.3935 13.0813 84.6104 13.5888C83.8273 14.0964 83.231 14.7709 82.8205 15.6114C82.4099 16.4519 82.2047 17.3802 82.2047 18.3953C82.2047 19.4104 82.4099 20.3149 82.8205 21.1652C83.231 22.0143 83.8284 22.6943 84.6104 23.2019C85.3924 23.7094 86.3221 23.9643 87.3984 23.9643ZM101.858 25.7233L96.1058 11.0717H98.5126L103.149 23.3797L107.758 11.0717H110.164L104.442 25.7233H101.858ZM111.621 8.60877V5.737H113.998V8.60877H111.621ZM111.71 25.7233V11.0706H113.91V25.7223H111.71V25.7233ZM118.606 25.7233V13.0053H115.612V11.0717H118.606V5.82701H120.807V11.0717H124.182V13.0053H120.807V25.7233H118.606ZM128.936 31.5244L131.607 25.5173L125.62 11.0706H128.056L132.781 23.0847L137.593 11.0706H140L131.312 31.5254H128.936V31.5244ZM43.968 3.39338C43.6509 2.84679 42.9449 2.66677 42.404 2.99537L13.369 20.6034C12.6293 19.2228 12.2101 17.6459 12.2101 15.9715C12.2101 10.5338 16.6295 6.12634 22.0818 6.12634C24.4223 6.12634 26.5718 6.9408 28.2639 8.2986L22.0872 12.5271L38.14 3.28276C38.4864 3.0843 38.6048 2.64182 38.4039 2.29803C38.1932 1.93472 37.7164 1.82627 37.3688 2.06487L33.4382 4.75552C30.5404 1.8382 26.524 0.0303345 22.0807 0.0303345C13.2538 0.0303345 6.09853 7.16746 6.09853 15.9704C6.09853 18.8053 6.84143 21.4667 8.1415 23.7723L0 28.7101L8.35873 24.1465C11.15 28.7968 16.2504 31.9115 22.0818 31.9115C30.9097 31.9115 38.065 24.7744 38.065 15.9704V14.0671C38.065 12.5759 38.6721 10.6682 40.8216 9.51975C41.0062 9.42106 41.0725 9.19115 40.9682 9.01003C40.8661 8.83326 40.6402 8.77253 40.4631 8.87555L21.4029 19.8507C23.5306 18.9484 25.1566 18.3997 27.3125 17.968C31.8036 17.0679 31.9176 19.2033 30.1831 21.612C29.022 23.2246 26.398 25.8144 22.0829 25.8144C18.5638 25.8144 15.476 23.9784 13.7274 21.214L43.5325 4.94314C44.0886 4.64056 44.2852 3.93997 43.968 3.39338Z"/>
</svg>
