<svg width="140" height="36" viewBox="0 0 140 36" xmlns="http://www.w3.org/2000/svg">
  <path d="M44.8 25.1899H47.2889V10.8788H44.8V25.1899Z"/>
  <path
    d="M62.2448 14.8182C60.8583 14.8182 59.5829 15.396 58.8241 16.6019C58.2571 15.4262 57.1236 14.8182 55.6562 14.8182C54.4112 14.8182 53.2574 15.3655 52.5591 16.4904V15.0208H49.8668V25.3988H52.5591V19.6321C52.5591 18.1829 53.5407 17.0986 54.7857 17.0986H54.9476C56.0508 17.0986 56.567 17.7978 56.567 19.1761V25.3988H59.2591V19.6321C59.2591 18.1829 60.2308 17.0986 61.4757 17.0986H61.6376C62.7408 17.0986 63.2367 17.7978 63.2367 19.1761V25.3988H65.929V18.862C65.929 17.6357 65.6355 16.6525 65.0485 15.9127C64.4513 15.1831 63.5201 14.8182 62.2448 14.8182Z"/>
  <path
    d="M80.1496 14.8182C78.763 14.8182 77.4877 15.396 76.7288 16.6019C76.1619 15.4262 75.0283 14.8182 73.5609 14.8182C72.316 14.8182 71.1621 15.3655 70.4638 16.4904V15.0208H67.7716V25.3988H70.4638V19.6321C70.4638 18.1829 71.4455 17.0986 72.6904 17.0986H72.8524C73.9555 17.0986 74.4718 17.7978 74.4718 19.1761V25.3988H77.1639V19.6321C77.1639 18.1829 78.1355 17.0986 79.3804 17.0986H79.5424C80.6455 17.0986 81.1415 17.7978 81.1415 19.1761V25.3988H83.8337V18.862C83.8337 17.6357 83.5403 16.6525 82.9532 15.9127C82.3561 15.1831 81.4249 14.8182 80.1496 14.8182Z"/>
  <path
    d="M100.545 21.9733V17.1998H102.863V15.0209H100.545V11.656H97.8526V15.0209H92.1034V20.7876C92.1034 22.2369 91.1418 23.4227 89.9677 23.4227H89.8058C88.8241 23.4227 88.2674 22.693 88.2674 21.3552V15.0209H85.5751V21.6593C85.5751 22.8651 85.8686 23.8178 86.4556 24.5273C87.0325 25.2469 87.913 25.6016 89.0771 25.6016C90.3625 25.6016 91.4656 24.9428 92.1034 23.8786V25.3988H94.7955V17.1998H97.8526V22.7031C97.8526 24.4564 98.7939 25.3988 100.545 25.3988H103.176V23.1186H101.689C100.737 23.1186 100.545 22.926 100.545 21.9733Z"/>
  <path
    d="M110.171 21.1625C110.171 22.4699 109.088 23.4225 107.863 23.4225H107.701C106.962 23.4225 106.416 23.0071 106.416 22.3686C106.416 21.9733 106.567 21.6795 106.871 21.4666C107.175 21.2537 107.529 21.1321 107.924 21.1017L110.171 20.8686V21.1625ZM112.782 18.5478C112.782 16.156 111.041 14.8182 108.43 14.8182C105.879 14.8182 104.189 16.2674 103.966 18.2336H106.669C106.729 17.6053 107.367 16.9972 108.339 16.9972H108.511C109.503 16.9972 110.171 17.7166 110.171 18.6491V18.9024L107.559 19.1356C106.446 19.2269 105.535 19.5511 104.827 20.1187C104.118 20.6862 103.764 21.497 103.764 22.5509C103.734 24.3753 105.302 25.6218 107.165 25.6015C108.491 25.6015 109.584 25.0341 110.231 24.132C110.252 24.6793 110.292 25.105 110.353 25.3988H112.883C112.812 24.9124 112.782 24.1522 112.782 23.1185V18.5478Z"/>
  <path
    d="M119.867 23.4226H119.705C118.471 23.453 117.317 22.1153 117.337 20.2099C117.317 18.3045 118.471 16.9667 119.705 16.9973H119.867C121.224 16.9973 122.236 18.2437 122.236 20.1896C122.236 22.1355 121.213 23.4226 119.867 23.4226ZM120.323 14.8182C118.936 14.8182 117.782 15.6087 117.337 16.3688V10.8656H114.645V25.3989H117.337V24.0509C117.782 24.811 118.936 25.6015 120.323 25.6015C123.228 25.6522 124.958 23.0476 124.928 20.2099C124.958 17.3721 123.228 14.7675 120.323 14.8182Z"/>
  <path d="M126.275 25.3988H128.967V10.8655H126.275V25.3988Z"/>
  <path
    d="M132.955 18.9835C133.016 17.7572 133.957 16.9972 135.091 16.9972H135.253C136.386 16.9972 137.328 17.7572 137.388 18.9835H132.955ZM135.273 14.8181C132.237 14.7776 130.314 17.1086 130.344 20.2098C130.294 23.5238 132.672 25.642 135.273 25.6016C137.813 25.6016 139.453 24.1827 139.959 22.1152H137.287C137.095 22.8753 136.437 23.4226 135.465 23.4226H135.293C134.17 23.4226 133.057 22.4497 132.955 21.0611H139.959C139.989 20.6152 140 20.291 140 20.0882C140.03 17.058 138.299 14.7879 135.273 14.8181Z"/>
  <path
    d="M27.561 19.4301C27.5562 20.1016 27.1952 20.5722 26.6215 20.9024C24.396 22.1838 22.1742 23.4712 19.9507 24.7562C19.5445 24.9909 19.1376 25.2246 18.7014 25.4758C18.6947 25.3659 18.6862 25.2918 18.6861 25.2178C18.6851 24.5792 18.6923 23.9404 18.6811 23.302C18.678 23.1205 18.7384 23.0235 18.8952 22.9334C20.9173 21.7718 22.9321 20.5969 24.9573 19.4408C25.3178 19.235 25.4759 18.9833 25.473 18.5599C25.4573 16.3556 25.4657 14.1509 25.4657 11.9462V11.5606C25.994 11.8799 26.4883 12.1417 26.9407 12.4627C27.3532 12.7552 27.561 13.1986 27.5628 13.7086C27.5699 15.6158 27.5743 17.523 27.561 19.4301ZM27.5468 23.5096C27.4994 24.0996 27.1538 24.5185 26.6438 24.8122C24.6908 25.9367 22.7409 27.0663 20.7898 28.1938C20.1773 28.5478 19.5646 28.9018 18.9516 29.255C18.8779 29.2974 18.8013 29.3348 18.7011 29.3877C18.6948 29.2859 18.6864 29.2115 18.6862 29.137C18.6851 28.4896 18.6894 27.8422 18.6826 27.1949C18.6811 27.0486 18.7179 26.9581 18.8526 26.8804C21.6982 25.2409 24.5409 23.5963 27.3845 21.9532C27.4279 21.9281 27.4748 21.9091 27.5557 21.8701C27.5557 22.4447 27.5892 22.9802 27.5468 23.5096ZM14.7306 11.7112C14.3888 11.5099 14.097 11.5119 13.7551 11.7118C11.8404 12.8319 9.91732 13.9377 7.99684 15.048C7.91547 15.0949 7.83179 15.1382 7.68836 15.2165C7.7392 14.4856 7.58323 13.7962 7.83179 13.1292C7.96779 12.7644 8.22146 12.4894 8.55766 12.2949C10.1599 11.3674 11.7614 10.4381 13.3673 9.51658C13.9535 9.17993 14.5508 9.18803 15.1367 9.526C16.96 10.5774 18.7821 11.6307 20.6016 12.6889C20.6793 12.7342 20.7759 12.834 20.7772 12.9099C20.7904 13.6605 20.7851 14.4115 20.7851 15.2172C20.1235 14.8348 19.5123 14.4819 18.9013 14.1286C17.5101 13.3244 16.1151 12.5266 14.7306 11.7112ZM16.5908 25.4863C16.4147 25.3859 16.2871 25.314 16.1602 25.2406C14.5497 24.3101 12.9408 23.3765 11.3263 22.4528C11.152 22.3532 11.087 22.2467 11.0893 22.0435C11.1007 20.9938 11.0966 19.9442 11.0923 18.8948C11.0916 18.7528 11.1142 18.6545 11.2545 18.5761C11.849 18.2439 12.4358 17.8977 13.0258 17.5574C13.0686 17.5326 13.1148 17.5143 13.1932 17.4769V18.6555C13.1932 19.2941 13.2032 19.9326 13.1892 20.5709C13.1813 20.935 13.3207 21.1803 13.6381 21.3594C14.5507 21.8747 15.4513 22.4109 16.3649 22.9242C16.5446 23.0252 16.5989 23.1372 16.5954 23.3357C16.5834 24.0338 16.5908 24.7324 16.5908 25.4863ZM16.591 29.3961C16.4844 29.3409 16.4038 29.3029 16.3267 29.2584C13.7926 27.795 11.2629 26.3236 8.72222 24.8717C8.00954 24.4643 7.6849 23.8844 7.6915 23.0699C7.70553 21.3378 7.70206 19.6053 7.69331 17.8729C7.68919 17.0905 8.0074 16.5245 8.69267 16.1341C10.4765 15.1182 12.2509 14.0858 14.0253 13.0533C14.1787 12.9641 14.2909 12.9495 14.4505 13.0456C15.0633 13.4144 15.6865 13.7663 16.3383 14.1431C16.2143 14.217 16.1199 14.2745 16.0244 14.3297C14.1036 15.4405 12.1847 16.5546 10.2595 17.6576C9.94372 17.8384 9.79749 18.0725 9.8003 18.4391C9.8102 19.8039 9.81119 21.1689 9.7998 22.5337C9.79667 22.9111 9.94587 23.1494 10.2707 23.3354C12.3022 24.4985 14.3259 25.6761 16.3561 26.8415C16.5279 26.9402 16.6012 27.0423 16.5966 27.2488C16.5816 27.948 16.591 28.6479 16.591 29.3961ZM16.9429 7.46626C17.4344 7.22496 17.9534 7.24132 18.4298 7.51303C20.0832 8.45638 21.732 9.408 23.3737 10.3714C23.9022 10.6816 24.1719 11.1802 24.1747 11.7912C24.1846 13.9339 24.1805 16.0768 24.1749 18.2195C24.1747 18.299 24.1234 18.4142 24.0598 18.452C23.4237 18.8313 22.7799 19.1979 22.0829 19.6001V19.2631C22.0829 17.0591 22.0766 14.8551 22.0883 12.6512C22.0905 12.228 21.9444 11.9551 21.5694 11.7418C19.6493 10.6493 17.7405 9.53674 15.8281 8.43077C15.7454 8.383 15.6646 8.33193 15.5396 8.25608C16.0306 7.97694 16.4743 7.69631 16.9429 7.46626ZM17.7095 0.301025C7.92884 0.301025 0 8.24054 0 18.0344C0 27.8282 7.92884 35.7677 17.7095 35.7677C27.4902 35.7677 35.419 27.8282 35.419 18.0344C35.419 8.24054 27.4902 0.301025 17.7095 0.301025Z"/>
</svg>
