<svg width="1407" height="340" viewBox="0 0 1407 340" fill="none" xmlns="http://www.w3.org/2000/svg">
<path d="M228.94 169.942C254.511 149.154 275.259 126.253 290.94 101.589C311.687 68.8222 322.18 34.6459 322.18 0H285.994C285.994 28.0691 277.309 56.0207 260.061 83.1503C245.345 106.287 224.356 128.601 199.026 148.215C189.497 141.989 179.726 136.118 169.715 130.715C223.512 93.4853 252.943 47.2124 252.943 0H216.757C216.757 36.4076 189.979 74.8118 143.419 105.582C139.68 108.049 135.7 110.515 131.839 112.864C124.12 109.693 116.4 106.757 108.559 104.173V0.117443H72.3731V93.8377C60.3109 91.019 48.1281 88.905 36.1865 87.3782V0.117443H0V85.0293V120.262C28.1048 120.262 57.8985 125.195 87.4508 134.238C57.7779 145.747 27.0193 152.207 0 152.207V187.441C27.0193 187.441 57.6572 194.017 87.4508 205.409C58.0191 214.453 28.2255 219.385 0 219.385V254.619V339.882H36.1865V252.622C48.1281 251.212 60.3109 248.981 72.3731 246.162V339.882H108.559V235.827C116.4 233.126 124.12 230.308 131.839 227.136C135.821 229.485 139.68 231.834 143.419 234.418C189.979 265.07 216.757 303.592 216.757 340H252.943C252.943 292.788 223.391 246.515 169.715 209.285C179.726 203.882 189.497 198.011 199.026 191.785C224.356 211.281 245.465 233.713 260.061 256.85C277.188 283.98 285.994 311.931 285.994 340H322.18C322.18 305.354 311.687 271.178 290.94 238.411C275.379 213.63 254.511 190.728 228.94 169.942ZM92.8787 169.942C106.87 165.008 120.622 159.019 133.891 152.207C145.229 157.492 156.325 163.482 167.182 169.942C156.446 176.401 145.349 182.39 133.891 187.676C120.622 180.864 106.75 174.992 92.8787 169.942Z"/>
<path d="M595.299 270.707L547.412 219.032H538.969V270.707H492.047V64.9458H538.969V176.166H545.482L592.163 127.309H648.855L584.323 195.66L655.61 270.825H595.299V270.707Z"/>
<path d="M813.986 270.708H767.064V259.316C755.123 269.768 739.804 275.053 721.228 275.053C701.326 275.053 684.318 268.006 670.326 253.795C656.334 239.585 649.337 221.381 649.337 199.067C649.337 176.752 656.334 158.783 670.326 144.455C684.318 130.128 701.326 122.963 721.228 122.963C739.804 122.963 755.123 128.248 767.064 138.701V127.309H813.986V270.708ZM756.33 225.726C763.446 218.797 767.064 209.871 767.064 198.949C767.064 188.027 763.446 179.454 756.33 172.407C749.213 165.36 740.769 161.837 730.878 161.837C720.987 161.837 711.941 165.36 705.307 172.29C698.672 179.218 695.294 188.144 695.294 199.067C695.294 209.989 698.672 219.032 705.307 225.962C711.941 232.774 720.504 236.297 730.878 236.297C740.648 236.062 749.213 232.656 756.33 225.726Z"/>
<path d="M946.429 126.368L944.378 172.054H935.814C901.92 172.054 885.032 190.023 885.032 225.843V270.707H838.11V127.191H885.032V154.672C897.216 135.06 914.102 125.194 935.814 125.194C939.794 125.194 943.292 125.546 946.429 126.368Z"/>
<path d="M1201.55 139.053C1212.28 149.858 1217.71 163.833 1217.71 180.98V270.708H1171.03V190.728C1171.03 182.743 1168.73 176.283 1164.03 171.467C1159.33 166.652 1153.41 164.186 1146.42 164.186C1137.62 164.186 1130.62 167.24 1125.43 173.464C1120.25 179.689 1117.71 188.614 1117.71 200.476V270.825H1070.78V190.728C1070.78 182.743 1068.5 176.283 1063.8 171.467C1059.09 166.652 1053.18 164.186 1045.94 164.186C1037.14 164.186 1030.26 167.24 1025.19 173.464C1020.25 179.689 1017.72 188.614 1017.72 200.476V270.825H970.795V127.191H1017.72V140.345C1028.45 128.718 1042.93 122.963 1061.14 122.963C1082.86 122.963 1098.9 131.067 1109.27 147.274C1121.93 131.067 1139.42 122.963 1161.49 122.963C1177.42 122.963 1190.8 128.366 1201.55 139.053Z"/>
<path d="M1406.48 270.708H1359.55V259.316C1347.62 269.768 1332.3 275.053 1313.72 275.053C1293.82 275.053 1276.81 268.006 1262.82 253.795C1248.82 239.585 1241.83 221.381 1241.83 199.067C1241.83 176.752 1248.82 158.783 1262.82 144.455C1276.81 130.128 1293.82 122.963 1313.72 122.963C1332.3 122.963 1347.62 128.248 1359.55 138.701V127.309H1406.48V270.708ZM1348.82 225.726C1355.94 218.797 1359.55 209.871 1359.55 198.949C1359.55 188.027 1355.94 179.454 1348.82 172.407C1341.71 165.36 1333.27 161.837 1323.37 161.837C1313.48 161.837 1304.43 165.36 1297.8 172.29C1291.16 179.218 1287.79 188.144 1287.79 199.067C1287.79 209.989 1291.16 219.032 1297.8 225.962C1304.43 232.774 1313 236.297 1323.37 236.297C1333.27 236.062 1341.71 232.656 1348.82 225.726Z"/>
</svg>
