<svg viewBox="0 0 108 68" xmlns="http://www.w3.org/2000/svg">
<path fill-rule="evenodd" clip-rule="evenodd" d="M73.914 17.9026C78.315 14.2308 83.225 12.8338 87.934 13.187C92.957 13.5637 97.605 15.9182 101.077 19.3381C104.548 22.7582 106.933 27.3328 107.315 32.2698C107.7 37.2518 106.032 42.4698 101.634 47.049C101.232 47.471 100.821 47.887 100.401 48.298C80.453 67.948 53.9555 68 53.6844 68H53.6831C53.5476 68 26.966 67.999 6.96651 48.296L6.96221 48.291C6.54931 47.882 6.14271 47.47 5.74221 47.056L5.73901 47.052C1.33901 42.4767 -0.33069 37.26 0.0533097 32.278C0.43381 27.3418 2.81711 22.7667 6.28761 19.3454C9.75781 15.9243 14.4056 13.5679 19.4295 13.1896C24.1381 12.835 29.0491 14.2303 33.4523 17.9003C33.9258 12.2398 36.3925 7.8343 39.9732 4.8056C43.7921 1.5753 48.7688 0 53.6832 0C58.5977 0 63.5743 1.5753 67.393 4.8056C70.974 7.8347 73.441 12.241 73.914 17.9026ZM54.5964 66.008L54.5955 65.983H54.5971L54.5964 66.008ZM52.7701 66.008L52.7694 65.983H52.771L52.7701 66.008ZM68.67 38.7224C68.124 38.7224 67.935 39.4989 68.283 39.9102C68.899 40.6387 69.27 41.576 69.27 42.5986C69.27 44.919 67.361 46.8 65.006 46.8C62.6505 46.8 60.7411 44.919 60.7411 42.5986C60.7411 42.4745 60.5767 42.4128 60.5024 42.5134C59.8298 43.4235 59.3757 44.4452 59.1891 45.518C59.0841 46.122 58.5857 46.623 57.9594 46.623H57.6135C56.7961 46.623 56.1218 45.9697 56.2424 45.1787C57.0694 39.7577 62.4925 35.826 68.67 35.826C74.847 35.826 80.27 39.7577 81.097 45.1787C81.217 45.9697 80.543 46.623 79.726 46.623C78.908 46.623 78.261 45.9664 78.083 45.1857C77.275 41.6324 73.527 38.7224 68.67 38.7224ZM30.7998 42.5986C30.7998 42.4349 30.5844 42.347 30.483 42.4773C29.764 43.4016 29.2741 44.4484 29.0667 45.5516C28.9443 46.203 28.4062 46.745 27.729 46.745H27.4752C26.6578 46.745 25.9835 46.092 26.104 45.301C26.9306 39.8771 32.3543 35.9483 38.5313 35.9483C44.7082 35.9483 50.1319 39.8771 50.9585 45.301C51.0791 46.092 50.4047 46.745 49.5873 46.745C48.77 46.745 48.1227 46.089 47.9452 45.3081C47.1371 41.7526 43.3892 38.8447 38.5313 38.8447C38.0897 38.8447 37.9281 39.4555 38.2237 39.7764C38.9105 40.5222 39.329 41.5123 39.329 42.5986C39.329 44.919 37.4197 46.8 35.0644 46.8C32.7091 46.8 30.7998 44.919 30.7998 42.5986ZM58.4274 52.731C59.0051 52.165 59.8979 51.89 60.6152 52.273C61.3325 52.657 61.6046 53.547 61.0877 54.167C59.4041 56.184 56.6782 57.463 53.6718 57.463C50.667 57.463 47.9351 56.198 46.2493 54.165C45.7342 53.544 46.0097 52.654 46.7284 52.273C47.4471 51.892 48.3385 52.171 48.9154 52.737C50.0266 53.829 51.7129 54.567 53.6718 54.567C55.6256 54.567 57.3137 53.821 58.4274 52.731Z"/>
</svg>
