<svg width="141" height="42" viewBox="0 0 141 42" xmlns="http://www.w3.org/2000/svg">
  <path d="M37.3398 40.8421H31.5186V12.5149H37.3398V40.8421Z"/>
  <path
    d="M58.3737 11.9588C61.5873 11.9588 64.2124 13.0856 66.2465 15.3391C68.2776 17.5926 69.2961 20.4579 69.2961 23.9319V40.8391H63.475V24.8185C63.475 22.6382 62.7726 20.8354 61.3677 19.413C59.9629 17.9907 58.2274 17.2795 56.1582 17.2795C53.8287 17.2795 51.9263 17.9907 50.4484 19.413C48.9704 20.8354 48.2299 22.6382 48.2299 24.8185V40.8391H42.4088V12.5149H48.2299V19.8315C49.0055 17.3936 50.2903 15.4709 52.0844 14.066C53.8755 12.6612 55.974 11.9588 58.3767 11.9588H58.3737Z"/>
  <path
    d="M87.4444 11.9588C91.9896 11.9588 95.6859 13.586 98.5306 16.8375C101.375 20.092 102.54 24.0255 102.022 28.6466H78.5736C78.9804 30.9383 80.034 32.7967 81.7345 34.219C83.4348 35.6414 85.4835 36.3527 87.8864 36.3527C89.733 36.3527 91.3867 35.899 92.8471 34.9946C94.3075 34.0902 95.443 32.8611 96.2566 31.307L101.135 33.4698C99.8799 35.8727 98.0858 37.7925 95.7591 39.2354C93.4324 40.6782 90.7516 41.3981 87.7195 41.3981C83.47 41.3981 79.9024 39.9934 77.0196 37.1866C74.1369 34.38 72.694 30.8856 72.694 26.7092C72.694 22.5328 74.1076 19.0325 76.9347 16.2025C79.7619 13.3753 83.2622 11.9617 87.4414 11.9617L87.4444 11.9588ZM87.4444 17.0044C85.2991 17.0044 83.4436 17.66 81.872 18.974C80.3004 20.2851 79.2555 21.9944 78.7405 24.1016H96.1484C95.6684 21.9944 94.6412 20.2851 93.0724 18.974C91.5007 17.6629 89.6248 17.0044 87.4444 17.0044Z"/>
  <path
    d="M118.116 11.9588C121.517 11.9588 124.288 12.8456 126.431 14.6191C128.573 16.3927 129.647 18.9448 129.647 22.2695V40.8421H123.826V33.3031C122.088 38.6997 118.596 41.3981 113.348 41.3981C110.908 41.3981 108.876 40.6694 107.249 39.209C105.622 37.7486 104.811 35.8375 104.811 33.4728C104.811 30.7012 105.789 28.6204 107.75 27.236C109.708 25.8517 112.204 24.9913 115.233 24.6576L120.721 24.1016C122.79 23.9171 123.826 22.9924 123.826 21.33C123.826 19.9632 123.299 18.8717 122.246 18.0609C121.192 17.2473 119.816 16.8405 118.116 16.8405C116.416 16.8405 114.908 17.2854 113.708 18.1721C112.508 19.0589 111.742 20.3525 111.408 22.0529L105.643 20.6656C106.161 18.0053 107.545 15.8893 109.801 14.3177C112.055 12.749 114.826 11.9617 118.116 11.9617V11.9588ZM115.233 36.6833C117.636 36.6833 119.667 35.8784 121.329 34.2717C122.992 32.665 123.823 30.7889 123.823 28.6438V27.0926C123.381 27.8331 122.307 28.2926 120.607 28.4769L115.23 29.1413C113.826 29.3285 112.707 29.7412 111.876 30.388C111.045 31.0349 110.63 31.9129 110.63 33.0221C110.63 34.1313 111.045 35.0181 111.876 35.6824C112.707 36.3468 113.826 36.6804 115.23 36.6804L115.233 36.6833Z"/>
  <path d="M27.5093 40.8421H0.622009V12.5149H6.77387V35.3546H27.5093V40.8421Z"/>
  <path
    d="M135.135 11.9588C138.165 11.9588 140.622 9.50197 140.622 6.4713C140.622 3.44064 138.165 0.983795 135.135 0.983795C132.104 0.983795 129.648 3.44064 129.648 6.4713C129.648 9.50197 132.104 11.9588 135.135 11.9588Z"/>
</svg>
