<svg width="140" height="20" viewBox="0 0 140 20" xmlns="http://www.w3.org/2000/svg">
  <path
    d="M7.06914 19.3912C4.99204 19.3912 3.29021 18.9025 1.96365 17.925C0.654549 16.9301 0 15.5163 0 13.6836C0 13.2995 0.0436366 12.8283 0.13091 12.2698C0.35782 11.0131 0.680731 9.50319 1.09964 7.74027C2.28656 2.94024 5.34986 0.540222 10.2895 0.540222C11.6335 0.540222 12.8379 0.767133 13.9027 1.22095C14.9674 1.65732 15.8052 2.3206 16.4161 3.21079C17.027 4.08352 17.3325 5.1308 17.3325 6.35262C17.3325 6.71918 17.2889 7.18172 17.2016 7.74027C16.9397 9.29374 16.6256 10.8035 16.259 12.2698C15.6481 14.6611 14.5921 16.4502 13.091 17.637C11.5899 18.8065 9.58263 19.3912 7.06914 19.3912ZM7.43569 15.621C8.41315 15.621 9.24224 15.3331 9.92301 14.757C10.6211 14.1811 11.1186 13.2995 11.4153 12.1126C11.8168 10.4719 12.1222 9.04064 12.3318 7.81881C12.4016 7.45227 12.4365 7.07699 12.4365 6.69299C12.4365 5.10461 11.6073 4.31043 9.94915 4.31043C8.97169 4.31043 8.13387 4.59843 7.43569 5.17444C6.75495 5.75044 6.26622 6.6319 5.9695 7.81881C5.65531 8.98828 5.34113 10.4196 5.02694 12.1126C4.95712 12.4618 4.92221 12.8283 4.92221 13.2123C4.92221 14.8182 5.76004 15.621 7.43569 15.621Z"
  />
  <path
    d="M19.9892 19.1294C19.7971 19.1294 19.6488 19.0684 19.5441 18.9462C19.4568 18.8065 19.4306 18.6494 19.4655 18.4749L23.0786 1.45659C23.1135 1.26459 23.2096 1.1075 23.3667 0.985315C23.5237 0.863132 23.6896 0.80204 23.8641 0.80204H30.8285C32.766 0.80204 34.3194 1.2035 35.4889 2.00641C36.6758 2.80933 37.2693 3.97006 37.2693 5.48861C37.2693 5.92498 37.217 6.37881 37.1122 6.85008C36.6758 8.85737 35.7944 10.341 34.4678 11.301C33.1587 12.261 31.3608 12.741 29.0743 12.741H25.5397L24.3354 18.4749C24.3005 18.6669 24.2044 18.8239 24.0473 18.9462C23.8903 19.0684 23.7245 19.1294 23.5499 19.1294H19.9892ZM29.2576 9.12791C29.9907 9.12791 30.6278 8.92718 31.1689 8.52572C31.7275 8.12427 32.094 7.54826 32.2685 6.79772C32.3209 6.50099 32.3471 6.23917 32.3471 6.01226C32.3471 5.50608 32.1987 5.12207 31.902 4.86025C31.6053 4.58097 31.099 4.44134 30.3835 4.44134H27.2416L26.2466 9.12791H29.2576Z"
  />
  <path
    d="M43.1684 19.1294C42.9764 19.1294 42.828 19.0684 42.7233 18.9462C42.6186 18.8065 42.5837 18.6494 42.6186 18.4749L45.5248 4.91262H40.8644C40.6724 4.91262 40.524 4.85152 40.4193 4.72934C40.332 4.5897 40.3059 4.43261 40.3408 4.25806L40.943 1.45659C40.9779 1.26459 41.0738 1.1075 41.2309 0.985315C41.388 0.863132 41.5539 0.80204 41.7284 0.80204H55.8144C56.0063 0.80204 56.1546 0.863132 56.2595 0.985315C56.3293 1.09004 56.3642 1.19477 56.3642 1.2995C56.3642 1.35186 56.3554 1.40423 56.338 1.45659L55.7358 4.25806C55.7009 4.45007 55.6049 4.60715 55.4477 4.72934C55.3081 4.85152 55.1423 4.91262 54.9504 4.91262H50.3161L47.4099 18.4749C47.375 18.6669 47.279 18.8239 47.1219 18.9462C46.9648 19.0684 46.799 19.1294 46.6245 19.1294H43.1684Z"
  />
  <path
    d="M57.032 19.1294C56.84 19.1294 56.6917 19.0684 56.587 18.9462C56.4822 18.8065 56.4473 18.6494 56.4822 18.4749L60.1215 1.45659C60.1564 1.26459 60.2525 1.1075 60.4095 0.985315C60.5666 0.863132 60.7324 0.80204 60.907 0.80204H64.4416C64.6335 0.80204 64.7819 0.863132 64.8867 0.985315C64.9565 1.09004 64.9914 1.19477 64.9914 1.2995C64.9914 1.35186 64.9826 1.40423 64.9651 1.45659L61.352 18.4749C61.3171 18.6669 61.2212 18.8239 61.0641 18.9462C60.907 19.0684 60.7412 19.1294 60.5666 19.1294H57.032Z"
  />
  <path
    d="M67.0015 19.1294C66.8095 19.1294 66.6611 19.0684 66.5564 18.9462C66.4517 18.8239 66.4168 18.6669 66.4517 18.4749L70.0648 1.45659C70.0997 1.26459 70.1956 1.1075 70.3527 0.985315C70.5099 0.863132 70.6844 0.80204 70.8764 0.80204H73.704C74.123 0.80204 74.3935 0.994042 74.5157 1.37804L77.3695 9.62537L83.7318 1.37804C83.819 1.23841 83.9412 1.1075 84.0983 0.985315C84.2728 0.863132 84.4823 0.80204 84.7267 0.80204H87.5806C87.7725 0.80204 87.9209 0.863132 88.0256 0.985315C88.0954 1.09004 88.1304 1.19477 88.1304 1.2995C88.1304 1.35186 88.1216 1.40423 88.1042 1.45659L84.491 18.4749C84.4561 18.6669 84.3601 18.8239 84.203 18.9462C84.0459 19.0684 83.8802 19.1294 83.7055 19.1294H80.5375C80.3455 19.1294 80.1972 19.0684 80.0924 18.9462C80.0052 18.8065 79.979 18.6494 80.0139 18.4749L82.0562 8.81373L78.0503 14.1287C77.8758 14.3207 77.7099 14.469 77.5528 14.5737C77.3957 14.6785 77.2124 14.7309 77.003 14.7309H75.6415C75.275 14.7309 75.0219 14.5301 74.8823 14.1287L73.0234 8.57809L70.9288 18.4749C70.8939 18.6669 70.7978 18.8239 70.6407 18.9462C70.4837 19.0684 70.3178 19.1294 70.1433 19.1294H67.0015Z"
  />
  <path
    d="M90.1118 19.1294C89.9198 19.1294 89.7715 19.0684 89.6667 18.9462C89.562 18.8065 89.5271 18.6494 89.562 18.4749L93.2013 1.45659C93.2362 1.26459 93.3322 1.1075 93.4892 0.985315C93.646 0.863132 93.8121 0.80204 93.9867 0.80204H97.5212C97.7135 0.80204 97.8619 0.863132 97.9664 0.985315C98.0364 1.09004 98.0709 1.19477 98.0709 1.2995C98.0709 1.35186 98.0625 1.40423 98.0448 1.45659L94.4319 18.4749C94.3973 18.6669 94.3012 18.8239 94.1435 18.9462C93.9867 19.0684 93.8205 19.1294 93.646 19.1294H90.1118Z"
  />
  <path
    d="M106.548 19.3912C105.012 19.3912 103.694 19.1818 102.595 18.7629C101.512 18.344 100.692 17.7854 100.134 17.0873C99.5923 16.3891 99.3216 15.6123 99.3216 14.757C99.3216 14.6174 99.3393 14.408 99.3739 14.1287C99.4093 13.9715 99.4793 13.8407 99.5839 13.736C99.7061 13.6312 99.8452 13.5789 100.003 13.5789H103.354C103.564 13.5789 103.72 13.6138 103.825 13.6836C103.947 13.7534 104.069 13.8756 104.192 14.0501C104.314 14.5039 104.593 14.8792 105.03 15.1759C105.483 15.4727 106.103 15.621 106.888 15.621C107.883 15.621 108.687 15.4639 109.297 15.1498C109.908 14.8356 110.275 14.408 110.397 13.8668C110.414 13.797 110.423 13.6923 110.423 13.5527C110.423 13.1163 110.153 12.7759 109.612 12.5316C109.07 12.2698 108.075 11.9643 106.627 11.6152C104.934 11.2486 103.65 10.6988 102.778 9.96577C101.905 9.21519 101.469 8.23773 101.469 7.03336C101.469 6.61445 101.521 6.1868 101.626 5.75044C101.975 4.12715 102.839 2.85297 104.218 1.92786C105.614 1.00277 107.412 0.540222 109.612 0.540222C110.938 0.540222 112.117 0.77586 113.146 1.24714C114.176 1.71842 114.97 2.3206 115.529 3.0537C116.105 3.76933 116.392 4.48497 116.392 5.20062C116.392 5.41007 116.384 5.55844 116.366 5.64571C116.332 5.8028 116.253 5.93371 116.131 6.03844C116.026 6.14317 115.895 6.19553 115.738 6.19553H112.23C111.846 6.19553 111.584 6.04717 111.445 5.75044C111.427 5.34898 111.217 5.00862 110.816 4.72934C110.414 4.45007 109.891 4.31043 109.245 4.31043C108.477 4.31043 107.84 4.45007 107.333 4.72934C106.845 5.00862 106.539 5.4188 106.418 5.95989C106.4 6.04717 106.391 6.16062 106.391 6.30026C106.391 6.71917 106.635 7.06826 107.124 7.34754C107.63 7.60936 108.512 7.87991 109.768 8.15918C111.724 8.54318 113.146 9.09301 114.037 9.80865C114.944 10.5243 115.397 11.4755 115.397 12.6624C115.397 13.064 115.345 13.5003 115.241 13.9715C114.857 15.752 113.923 17.1047 112.439 18.0298C110.973 18.9374 109.01 19.3912 106.548 19.3912Z"
  />
  <path
    d="M118.871 19.1294C118.679 19.1294 118.531 19.0684 118.426 18.9462C118.321 18.8239 118.286 18.6669 118.321 18.4749L121.934 1.45659C121.969 1.26459 122.065 1.1075 122.223 0.985315C122.38 0.863132 122.554 0.80204 122.746 0.80204H125.573C125.993 0.80204 126.263 0.994042 126.385 1.37804L129.24 9.62537L135.601 1.37804C135.689 1.23841 135.811 1.1075 135.968 0.985315C136.143 0.863132 136.352 0.80204 136.596 0.80204H139.45C139.643 0.80204 139.791 0.863132 139.895 0.985315C139.965 1.09004 140 1.19477 140 1.2995C140 1.35186 139.992 1.40423 139.974 1.45659L136.361 18.4749C136.325 18.6669 136.229 18.8239 136.073 18.9462C135.916 19.0684 135.75 19.1294 135.575 19.1294H132.407C132.215 19.1294 132.067 19.0684 131.962 18.9462C131.874 18.8065 131.848 18.6494 131.884 18.4749L133.926 8.81373L129.92 14.1287C129.745 14.3207 129.579 14.469 129.423 14.5737C129.266 14.6785 129.082 14.7309 128.873 14.7309H127.511C127.144 14.7309 126.891 14.5301 126.752 14.1287L124.893 8.57809L122.799 18.4749C122.763 18.6669 122.667 18.8239 122.51 18.9462C122.353 19.0684 122.187 19.1294 122.013 19.1294H118.871Z"
  />
</svg>
