<svg width="16" height="20" viewBox="0 0 16 20" xmlns="http://www.w3.org/2000/svg">
  <path d="M4.5 0C3.39543 0 2.5 0.89543 2.5 2V4.99695C2.5 6.65455 1.84152 8.24427 0.669419 9.41637L0.292893 9.79289C0.105357 9.98043 0 10.2348 0 10.5V12C0 13.1046 0.895431 14 2 14H7V19C7 19.5523 7.44772 20 8 20C8.55228 20 9 19.5523 9 19V14H14C15.1046 14 16 13.1046 16 12V10.5C16 10.2348 15.8946 9.98043 15.7071 9.79289L15.3306 9.41637C14.1585 8.24427 13.5 6.65455 13.5 4.99695V2C13.5 0.895431 12.6046 0 11.5 0H4.5Z"/>
</svg>
