<svg width="98" height="46" viewBox="0 0 98 46" fill="currentColor" xmlns="http://www.w3.org/2000/svg">
  <defs>
        <mask id="pro-logo">
<path d="M5.86298 10.2574C6.35956 6.74627 6.60785 4.99071 7.48763 3.64964C8.2615 2.47 9.36577 1.51093 10.6422 0.909872C12.0932 0.226562 13.8662 0.226562 17.4123 0.226562H87.151C90.6971 0.226562 92.4701 0.226562 93.7279 0.909872C94.8342 1.51093 95.6672 2.47 96.1074 3.64964C96.6078 4.99071 96.3596 6.74627 95.863 10.2574L92.2586 35.7425C91.762 39.2536 91.5137 41.0091 90.634 42.3502C89.8601 43.5298 88.7558 44.4889 87.4794 45.09C86.0284 45.7733 84.2553 45.7733 80.7093 45.7733H10.9706C7.42453 45.7733 5.6515 45.7733 4.39372 45.09C3.28735 44.4889 2.45437 43.5298 2.01417 42.3502C1.51373 41.0091 1.76202 39.2536 2.2586 35.7425L5.86298 10.2574Z" fill="white"/>
<path d="M84.2337 13.4601C86.27 15.9536 87.0147 19.1336 86.4679 22.9999C85.9211 26.8663 84.2749 30.0603 81.5293 32.5818C78.8169 35.0754 75.5961 36.3221 71.8671 36.3221C68.138 36.3221 65.2699 35.0754 63.2628 32.5818C61.2597 30.0603 60.5315 26.8663 61.0783 22.9999C61.6291 19.1055 63.2607 15.9116 65.9732 13.418C68.6856 10.9245 71.9064 9.67773 75.6354 9.67773C79.3645 9.67773 82.2306 10.9385 84.2337 13.4601ZM77.9904 29.1777C79.5233 27.6088 80.47 25.5495 80.8306 22.9999C81.1912 20.4504 80.8269 18.3911 79.7379 16.8221C78.6779 15.2532 77.0846 14.4687 74.9578 14.4687C72.8602 14.4687 71.0596 15.2532 69.5558 16.8221C68.052 18.3911 67.1199 20.4504 66.7593 22.9999C66.3987 25.5495 66.7484 27.6088 67.8083 29.1777C68.8683 30.7467 70.4471 31.5312 72.5447 31.5312C74.6714 31.5312 76.4866 30.7467 77.9904 29.1777Z" fill="black"/>
<path d="M45.7799 26.2776H42.852L41.4909 35.9015H35.941L39.5905 10.0977H50.6465C53.5307 10.0977 55.7166 10.8121 57.2042 12.241C58.6919 13.6699 59.2514 15.6871 58.8829 18.2927C58.5976 20.3099 57.8229 21.977 56.5587 23.2938C55.2985 24.5826 53.6753 25.4511 51.6891 25.8994L57.3539 35.9015H51.0611L45.7799 26.2776ZM44.4925 14.6785L43.4761 21.8649H48.6327C50.0019 21.8649 51.0963 21.5427 51.9157 20.8983C52.7352 20.2539 53.2222 19.3854 53.3768 18.2927C53.5353 17.172 53.2959 16.2895 52.6587 15.6451C52.0215 15.0007 51.0183 14.6785 49.649 14.6785H44.4925Z" fill="black"/>
<path d="M24.0202 26.95H18.6452L17.3791 35.9015H11.8293L15.4787 10.0977H26.4037C29.2879 10.0977 31.4698 10.8401 32.9495 12.325C34.4623 13.7819 35.0285 15.8552 34.6481 18.5449C34.2677 21.2345 33.1151 23.3078 31.1902 24.7647C29.2944 26.2216 26.9044 26.95 24.0202 26.95ZM29.142 18.5449C29.3124 17.3401 29.0809 16.4015 28.4477 15.7291C27.8184 15.0287 26.8046 14.6785 25.4062 14.6785H20.3807L19.293 22.3692H24.3185C25.7169 22.3692 26.8298 22.019 27.6572 21.3186C28.4846 20.6181 28.9795 19.6936 29.142 18.5449Z" fill="black"/>
          </mask>
    </defs>
  <path d="M5.86298 10.2574C6.35956 6.74627 6.60785 4.99071 7.48763 3.64964C8.2615 2.47 9.36577 1.51093 10.6422 0.909872C12.0932 0.226562 13.8662 0.226562 17.4123 0.226562H87.151C90.6971 0.226562 92.4701 0.226562 93.7279 0.909872C94.8342 1.51093 95.6672 2.47 96.1074 3.64964C96.6078 4.99071 96.3596 6.74627 95.863 10.2574L92.2586 35.7425C91.762 39.2536 91.5137 41.0091 90.634 42.3502C89.8601 43.5298 88.7558 44.4889 87.4794 45.09C86.0284 45.7733 84.2553 45.7733 80.7093 45.7733H10.9706C7.42453 45.7733 5.6515 45.7733 4.39372 45.09C3.28735 44.4889 2.45437 43.5298 2.01417 42.3502C1.51373 41.0091 1.76202 39.2536 2.2586 35.7425L5.86298 10.2574Z"  fill="currentColor" mask="url(#pro-logo)"/>
</svg>
