<svg width="140" height="53" viewBox="0 0 140 53" xmlns="http://www.w3.org/2000/svg">
  <path fill-rule="evenodd" clip-rule="evenodd"
        d="M25.9567 52.1787C33.6875 52.1787 40.6329 48.8163 45.4102 43.474C43.1879 41.5426 39.8389 41.4253 37.473 43.3343L37.021 43.6991C32.6891 47.1944 26.3771 46.6782 22.6707 42.5255C20.6492 40.2605 17.1872 40.0293 14.8824 42.0053L9.67119 46.4729C14.1346 50.0436 19.7963 52.1787 25.9567 52.1787ZM34.4156 39.5454C38.5416 36.216 44.3411 36.3354 48.3094 39.551C50.6814 35.6209 52.046 31.0146 52.046 26.0893C52.046 20.6167 50.3611 15.5376 47.4815 11.3426C45.6252 10.9473 43.6131 11.409 42.0857 12.7625L41.651 13.1477C37.4851 16.8394 31.156 16.615 27.2619 12.6377C25.138 10.4685 21.669 10.3973 19.4579 12.4775L13.3936 18.1828L10.0575 14.6368L16.1219 8.9315C20.2638 5.03479 26.7622 5.16822 30.7407 9.2317C32.8195 11.3549 36.1982 11.4747 38.4221 9.50391L38.8567 9.11869C40.2066 7.92241 41.7686 7.11598 43.4038 6.69183C38.7817 2.53174 32.6649 0 25.9567 0C12.7127 0 1.77369 9.86849 0.0916213 22.6532C4.11434 20.7228 9.07633 21.4656 12.3563 24.8245C14.4269 26.9449 17.761 27.1687 20.0965 25.344L23.4872 22.6951C27.7484 19.366 33.7723 19.5271 37.8495 23.0794L44.4508 28.8307L41.2526 32.5015L34.6514 26.7502C32.3329 24.7304 28.9077 24.6386 26.4845 26.5317L23.0939 29.1806C18.8029 32.5329 12.6773 32.1217 8.87304 28.2259C6.66083 25.9606 3.04275 25.8815 0.733737 28.0481L0 28.7366C0.549111 34.1858 2.77502 39.14 6.15392 43.0755L11.7136 38.3091C16.031 34.6076 22.5163 35.0409 26.303 39.2836C28.2817 41.5006 31.6511 41.7761 33.9636 39.9101L34.4156 39.5454Z"/>
  <path
    d="M70.838 34.4568C70.838 39.9157 75.123 43.4964 81.8733 43.4964C88.6828 43.4964 93.3786 40.0332 93.3786 34.5741C93.3786 30.289 90.9719 28.0585 86.1 26.8845L81.0521 25.6518C78.2341 24.9474 76.8254 23.656 76.8254 21.7189C76.8254 19.0774 78.7623 17.5512 82.2255 17.5512C85.5718 17.5512 87.5087 19.3709 87.6263 22.2472H92.9095C92.7919 16.7881 88.6828 13.2662 82.4016 13.2662C76.0619 13.2662 71.6012 16.6119 71.6012 21.8949C71.6012 26.1213 74.0081 28.6455 79.1145 29.8781L84.1631 31.0522C87.1565 31.8152 88.0954 32.9892 88.0954 34.9263C88.0954 37.5678 85.8648 39.1527 81.991 39.1527C78.3517 39.1527 76.1211 37.3917 76.1211 34.4568H70.838Z"/>
  <path
    d="M113.057 43.4964C120.16 43.4964 124.973 40.0332 126.382 33.8698H121.216C120.277 37.1569 117.46 38.9178 113.174 38.9178C107.715 38.9178 104.545 35.5719 104.135 29.5259L126.323 29.4672V27.4127C126.323 18.9013 120.982 13.2662 112.823 13.2662C104.487 13.2662 98.7931 19.4883 98.7931 28.4694C98.7931 37.3917 104.605 43.4964 113.057 43.4964ZM112.823 17.9034C117.695 17.9034 120.806 21.0732 120.806 25.8278H104.252C104.957 20.7798 108.009 17.9034 112.823 17.9034Z"/>
  <path
    d="M136.361 7.27878C138.356 7.27878 140 5.63517 140 3.63938C140 1.58489 138.356 0 136.361 0C134.365 0 132.721 1.58489 132.721 3.63938C132.721 5.63517 134.365 7.27878 136.361 7.27878ZM133.66 42.792H139.178V14.0879H133.66V42.792Z"/>
</svg>
