<svg width="1145" height="86" viewBox="0 0 1145 86" xmlns="http://www.w3.org/2000/svg">
  <g>
    <path
      d="M112.49 40.35C107.52 35.46 101.54 33.02 94.56 33.02H25.38C24.09 33.02 22.99 32.57 22.07 31.67C21.15 30.77 20.69 29.68 20.69 28.38V22.74C20.69 21.51 21.15 20.44 22.07 19.54C22.99 18.64 24.09 18.19 25.38 18.19H114.59C114.81 18.19 114.99 18.12 115.13 17.98C115.27 17.84 115.34 17.69 115.34 17.52V0.66999C115.34 0.44999 115.27 0.27999 115.13 0.15999C114.99 0.0499902 114.81 -0.0100098 114.59 -0.0100098H25.38C18.34 -0.0100098 12.35 2.42999 7.41 7.31999C2.47 12.22 0 18.11 0 25.02V26.12C0 33.09 2.47 39.01 7.41 43.9C12.35 48.79 18.34 51.23 25.38 51.23H94.57C95.8 51.23 96.87 51.67 97.79 52.54C98.71 53.41 99.17 54.49 99.17 55.78V61.42C99.17 62.71 98.71 63.79 97.79 64.66C96.87 65.53 95.79 65.97 94.57 65.97H5.28C5.11 65.97 4.96 66.04 4.82 66.18C4.68 66.32 4.61 66.5 4.61 66.73V83.58C4.61 83.75 4.68 83.9 4.82 84.04C4.96 84.18 5.11 84.25 5.28 84.25H94.57C101.55 84.25 107.52 81.79 112.5 76.88C117.47 71.97 119.96 66.06 119.96 59.15V58.05C119.96 51.14 117.47 45.24 112.5 40.36L112.49 40.35Z"/>
    <path
      d="M258.99 -9.76585e-06H239.64C239.42 -9.76585e-06 239.25 0.0699902 239.14 0.20999C239.03 0.34999 238.97 0.49999 238.97 0.66999V66.04H230.84C229.33 66.04 228.05 65.37 226.99 64.02L189.46 8.83999C185.44 3.16999 179.88 0.21999 172.79 -0.0100098H140.46C140.24 -0.0100098 140.05 0.0599902 139.91 0.19999C139.77 0.33999 139.7 0.48999 139.7 0.65999V83.56C139.7 83.73 139.77 83.88 139.91 84.02C140.05 84.16 140.23 84.23 140.46 84.23H159.81C159.98 84.23 160.13 84.16 160.27 84.02C160.41 83.88 160.48 83.73 160.48 83.56V18.2H168.61C170.12 18.2 171.4 18.9 172.46 20.31L209.99 75.49C214.01 81.16 219.57 84.08 226.66 84.25H258.99C259.21 84.25 259.38 84.18 259.49 84.04C259.6 83.9 259.66 83.75 259.66 83.58V0.66999C259.66 0.49999 259.6 0.34999 259.49 0.20999C259.38 0.0699902 259.21 -9.76585e-06 258.99 -9.76585e-06Z"/>
    <path
      d="M1143.67 -9.76585e-06H1124.32C1124.1 -9.76585e-06 1123.93 0.0699902 1123.82 0.20999C1123.71 0.34999 1123.65 0.49999 1123.65 0.66999V66.04H1115.52C1114.01 66.04 1112.73 65.37 1111.67 64.02L1074.14 8.83999C1070.12 3.16999 1064.56 0.21999 1057.47 -0.0100098H1025.14C1024.92 -0.0100098 1024.73 0.0599902 1024.59 0.19999C1024.45 0.33999 1024.38 0.48999 1024.38 0.65999V83.56C1024.38 83.73 1024.45 83.88 1024.59 84.02C1024.73 84.16 1024.91 84.23 1025.14 84.23H1044.49C1044.66 84.23 1044.81 84.16 1044.95 84.02C1045.09 83.88 1045.16 83.73 1045.16 83.56V18.2H1053.29C1054.8 18.2 1056.08 18.9 1057.14 20.31L1094.67 75.49C1098.69 81.16 1104.25 84.08 1111.34 84.25H1143.67C1143.89 84.25 1144.06 84.18 1144.17 84.04C1144.28 83.9 1144.34 83.75 1144.34 83.58V0.66999C1144.34 0.49999 1144.28 0.34999 1144.17 0.20999C1144.06 0.0699902 1143.89 -9.76585e-06 1143.67 -9.76585e-06Z"/>
    <path
      d="M820.98 0H801.63C801.46 0 801.31 0.07 801.17 0.21C801.03 0.35 800.96 0.5 800.96 0.67V33.02H722.56V0.67C722.56 0.5 722.49 0.35 722.35 0.21C722.21 0.07 722.03 0 721.81 0H702.46C702.29 0 702.14 0.07 702 0.21C701.86 0.35 701.79 0.5 701.79 0.67V83.57C701.79 83.74 701.86 83.89 702 84.03C702.14 84.17 702.29 84.24 702.46 84.24H721.81C722.03 84.24 722.21 84.17 722.35 84.03C722.49 83.89 722.56 83.74 722.56 83.57V51.22H800.96V83.57C800.96 83.74 801.03 83.89 801.17 84.03C801.31 84.17 801.46 84.24 801.63 84.24H820.98C821.2 84.24 821.38 84.17 821.52 84.03C821.66 83.89 821.73 83.74 821.73 83.57V0.67C821.73 0.5 821.66 0.35 821.52 0.21C821.38 0.07 821.2 0 820.98 0Z"/>
    <path
      d="M582.93 33.02V22.74C582.93 21.5 583.38 20.44 584.27 19.54C585.16 18.64 586.25 18.19 587.54 18.19H681.44C681.61 18.19 681.76 18.12 681.9 17.98C682.04 17.84 682.11 17.69 682.11 17.52V0.67C682.11 0.5 682.04 0.35 681.9 0.21C681.76 0.07 681.61 0 681.44 0H587.54C580.56 0 574.59 2.44 569.62 7.33C564.65 12.22 562.16 18.11 562.16 25.02V59.14C562.16 66.11 564.64 72.03 569.62 76.92C574.59 81.81 580.56 84.25 587.54 84.25H681.44C681.61 84.25 681.76 84.18 681.9 84.04C682.04 83.9 682.11 83.75 682.11 83.58V66.73C682.11 66.51 682.04 66.34 681.9 66.22C681.76 66.11 681.61 66.05 681.44 66.05H587.54C586.26 66.05 585.17 65.6 584.27 64.7C583.38 63.8 582.93 62.73 582.93 61.5V33.02Z"/>
    <path
      d="M1006.57 0.17C1006.46 0.06 1006.29 0 1006.07 0H986.72C986.49 0 986.32 0.06 986.22 0.17C986.11 0.28 986.05 0.45 986.05 0.68V83.58C986.05 83.75 986.11 83.9 986.22 84.04C986.33 84.18 986.5 84.25 986.72 84.25H1006.07C1006.29 84.25 1006.46 84.18 1006.57 84.04C1006.68 83.9 1006.74 83.75 1006.74 83.58V0.67C1006.74 0.45 1006.68 0.28 1006.57 0.16V0.17Z"/>
    <path
      d="M452.86 20.47C452.02 19.52 450.99 19.04 449.76 19.04H424.63C424.4 19.04 424.22 18.97 424.09 18.83C423.95 18.69 423.88 18.54 423.88 18.37V1.52C423.88 1.35 423.95 1.2 424.09 1.06C424.23 0.919996 424.41 0.849996 424.63 0.849996H451.18C457.88 0.849996 463.66 3.58 468.52 9.02L474.97 16.85L462.4 32.1L452.85 20.48L452.86 20.47ZM499.26 8.93C504.12 3.54 509.93 0.839996 516.68 0.839996H543.15C543.37 0.839996 543.54 0.899996 543.65 1.01C543.76 1.12 543.82 1.29 543.82 1.52V18.37C543.82 18.54 543.76 18.69 543.65 18.83C543.54 18.97 543.37 19.04 543.15 19.04H518.02C516.79 19.04 515.76 19.52 514.92 20.47L496.4 42.88L515 65.46C515.84 66.36 516.84 66.81 518.02 66.81H543.15C543.37 66.81 543.54 66.88 543.65 67.02C543.76 67.16 543.82 67.34 543.82 67.57V84.42C543.82 84.59 543.76 84.74 543.65 84.88C543.54 85.02 543.37 85.09 543.15 85.09H516.68C509.92 85.09 504.15 82.37 499.34 76.92L483.93 58.22L468.52 76.92C463.66 82.37 457.85 85.09 451.1 85.09H424.63C424.4 85.09 424.23 85.02 424.12 84.88C424.01 84.74 423.95 84.56 423.95 84.33V67.48C423.95 67.31 424.01 67.16 424.12 67.02C424.23 66.88 424.4 66.81 424.63 66.81H449.76C450.93 66.81 451.96 66.33 452.86 65.38L471.03 43.31L499.26 8.94V8.93Z"/>
    <path
      d="M394.34 33.16L347.97 2.43C345.95 1.09 343.65 0.519998 341.4 0.629998C339.15 0.519998 336.85 1.09 334.83 2.43L288.46 33.16C282.79 37.18 279.84 42.74 279.61 49.83V83.55C279.61 83.77 279.68 83.96 279.82 84.1C279.96 84.24 280.11 84.31 280.28 84.31H299.13C299.3 84.31 299.45 84.24 299.59 84.1C299.73 83.96 299.8 83.78 299.8 83.55V68.21H382.98V83.55C382.98 83.78 383.05 83.96 383.19 84.1C383.33 84.24 383.48 84.31 383.65 84.31H402.5C402.67 84.31 402.82 84.24 402.96 84.1C403.1 83.96 403.17 83.78 403.17 83.55V49.83C402.95 42.74 400 37.18 394.32 33.16H394.34ZM338.7 23.78C340.33 22.67 342.46 22.67 344.09 23.78C344.09 23.78 375.29 45.09 382.42 50.05C382.87 50.36 382.65 51.07 382.1 51.07H300.69C300.14 51.07 299.92 50.36 300.37 50.05C307.5 45.09 338.7 23.78 338.7 23.78Z"/>
    <path
      d="M954.98 33.16L908.61 2.43C906.59 1.09 904.29 0.519998 902.04 0.629998C899.79 0.519998 897.49 1.09 895.47 2.43L849.1 33.16C843.43 37.18 840.48 42.74 840.25 49.83V83.55C840.25 83.77 840.32 83.96 840.46 84.1C840.6 84.24 840.75 84.31 840.92 84.31H859.77C859.94 84.31 860.09 84.24 860.23 84.1C860.37 83.96 860.44 83.78 860.44 83.55V68.21H943.62V83.55C943.62 83.78 943.69 83.96 943.83 84.1C943.97 84.24 944.12 84.31 944.29 84.31H963.14C963.31 84.31 963.46 84.24 963.6 84.1C963.74 83.96 963.81 83.78 963.81 83.55V49.83C963.59 42.74 960.64 37.18 954.96 33.16H954.98ZM899.35 23.78C900.98 22.67 903.11 22.67 904.74 23.78C904.74 23.78 935.94 45.09 943.07 50.05C943.52 50.36 943.3 51.07 942.75 51.07H861.34C860.79 51.07 860.57 50.36 861.02 50.05C868.15 45.09 899.35 23.78 899.35 23.78Z"/>
  </g>
</svg>
