<svg width="141" height="46" viewBox="0 0 141 46" xmlns="http://www.w3.org/2000/svg">
<path d="M67.5467 22.0433C66.7105 21.6385 65.6425 21.4335 64.3749 21.4335H60.7681C59.8071 21.4335 59.0387 21.166 58.4895 20.6508L58.4627 20.6241C57.9261 20.0589 57.6676 19.4223 57.6676 18.6789C57.6676 17.9354 57.935 17.249 58.4627 16.6927C58.994 16.1275 59.7233 15.8422 60.6218 15.8422H69.4972V13.9149H60.292C59.2918 13.9149 58.4324 14.1467 57.664 14.6192C56.8956 15.0684 56.3144 15.6479 55.89 16.386C55.4657 17.1259 55.2553 17.9086 55.2553 18.7858C55.2553 19.8146 55.4746 20.6864 55.9114 21.3817C56.3803 22.0896 57.0026 22.6191 57.8102 23.006C58.6499 23.3626 59.6466 23.5445 60.7681 23.5445H64.5621C65.2004 23.5445 65.7692 23.6906 66.2505 23.9813C66.7426 24.2433 67.1081 24.6178 67.3505 25.0938C67.5877 25.5395 67.6983 25.9924 67.6983 26.5237C67.6983 27.055 67.5681 27.5881 67.3096 28.0731C67.0511 28.5634 66.6535 28.9716 66.1347 29.2926C65.6479 29.5814 65.0524 29.724 64.3785 29.724H55.8383V31.6478H64.785C65.8565 31.6478 66.7604 31.4071 67.5502 30.9133C68.3722 30.414 68.9891 29.7918 69.4402 28.9984C69.8965 28.1836 70.1141 27.3385 70.1141 26.4114C70.1141 25.3345 69.8859 24.4128 69.4437 23.6817C69.0283 22.9615 68.4061 22.4212 67.5485 22.0397L67.5431 22.0433H67.5467Z"/>
<path d="M88.7387 14.7228C87.3538 13.8937 85.7272 13.4712 83.9088 13.4712C82.0904 13.4712 80.4679 13.8937 79.0735 14.7263C77.6829 15.5322 76.5669 16.659 75.7538 18.0747C74.9408 19.46 74.529 21.045 74.529 22.7816C74.529 24.5181 74.9408 26.1209 75.7538 27.5277C76.5669 28.9166 77.6847 30.0434 79.0735 30.876C80.3999 31.6515 81.9515 32.0598 83.6775 32.092H83.9088C85.7272 32.0955 87.3498 31.6908 88.7387 30.8814C90.156 30.0487 91.2724 28.9219 92.0636 27.5384C92.8769 26.1263 93.289 24.5288 93.289 22.7887C93.289 21.0485 92.8769 19.4226 92.0636 18.0372C91.2724 16.6519 90.156 15.5393 88.7387 14.7299V14.7228ZM90.8358 22.7869C90.8358 24.158 90.5452 25.4185 89.9688 26.5364C89.3932 27.6365 88.58 28.5225 87.5567 29.1768C86.5365 29.8276 85.2724 30.17 83.9057 30.17C82.5381 30.17 81.3127 29.8365 80.2539 29.1768C79.2306 28.5225 78.4176 27.6329 77.8363 26.5328C77.264 25.4203 76.9698 24.1598 76.9698 22.7887C76.9698 21.4177 77.2604 20.1714 77.8363 19.0802C78.4122 17.9534 79.2306 17.0495 80.2594 16.3952C81.3127 15.7355 82.5429 15.4074 83.9057 15.4074C85.2677 15.4074 86.5192 15.7408 87.5567 16.4005C88.5855 17.0601 89.3988 17.9588 89.9744 19.0766C90.5468 20.1714 90.8405 21.4177 90.8405 22.7905H90.8358V22.7869Z"/>
<path d="M111.178 14.4785C109.953 13.8153 108.511 13.4766 106.883 13.4766C105.255 13.4766 103.831 13.8153 102.579 14.4875C101.324 15.1329 100.363 16.0244 99.6428 17.1993C98.9543 18.3653 98.6053 19.7506 98.6053 21.3179V31.6552H101.019V21.3535C101.019 20.1429 101.292 19.0785 101.828 18.196C102.383 17.2973 103.115 16.5985 104.005 16.1117C104.908 15.6357 105.874 15.395 106.883 15.395C107.892 15.395 108.849 15.6357 109.725 16.1117C110.632 16.5931 111.366 17.292 111.906 18.1995C112.464 19.0803 112.745 20.1358 112.745 21.3464V31.6481H115.163V21.3107C115.163 19.7489 114.801 18.3582 114.09 17.1922C113.392 16.0119 112.44 15.1258 111.18 14.4714L111.176 14.4768L111.178 14.4785Z"/>
<path d="M123.962 13.9134H121.512V31.6516H123.962V13.9134Z"/>
<path d="M135.151 16.7892C136.228 16.1616 137.447 15.8407 138.785 15.8407H140.617V13.9134H138.897C137.051 13.9134 135.379 14.3145 133.94 15.1025C132.502 15.8871 131.348 16.9675 130.508 18.3082C129.678 19.617 129.257 21.1217 129.257 22.7834C129.257 24.4451 129.678 25.9569 130.508 27.2942C131.344 28.6117 132.502 29.6762 133.94 30.4642C135.201 31.1488 137.668 31.6534 138.772 31.6534H140.617V29.7261H138.785C137.453 29.7261 136.228 29.4194 135.148 28.8132C134.101 28.1856 133.249 27.3352 132.617 26.2886C132.015 25.2384 131.707 24.0582 131.707 22.7798C131.707 21.5014 132.015 20.3176 132.623 19.2675C133.249 18.2263 134.102 17.3883 135.152 16.7874V16.7928L135.151 16.7892Z"/>
<path d="M28.054 28.3335C19.4411 30.8406 12.3163 34.4973 7.85641 38.7818L7.65951 38.9719C8.84543 40.0597 10.1459 41.0324 11.5516 41.8593L11.8538 41.5011C13.0718 40.0597 14.3768 38.6669 15.7367 37.3536C19.3861 33.8296 23.5621 30.7787 28.0586 28.3291L28.054 28.3335Z"/>
<path d="M28.054 28.3335C19.4411 30.8406 12.3163 34.4973 7.85641 38.7818L7.65951 38.9719C8.84543 40.0597 10.1459 41.0324 11.5516 41.8593L11.8538 41.5011C13.0718 40.0597 14.3768 38.6669 15.7367 37.3536C19.3861 33.8296 23.5621 30.7787 28.0586 28.3291L28.054 28.3335Z"/>
<path d="M0.617126 24.6192C0.960544 29.0895 2.67306 33.1884 5.36089 36.5223L5.48452 36.4029C8.24558 33.7632 11.8401 31.3622 16.1763 29.2708C19.9768 27.4358 24.3405 25.8617 29.0431 24.6192H0.617126Z"/>
<path d="M0.617126 24.6192C0.960544 29.0895 2.67306 33.1884 5.36089 36.5223L5.48452 36.4029C8.24558 33.7632 11.8401 31.3622 16.1763 29.2708C19.9768 27.4358 24.3405 25.8617 29.0431 24.6192H0.617126Z"/>
<path d="M18.1452 6.24737C25.8515 13.689 35.5496 18.6102 46.1865 20.4762C44.9044 9.44418 35.2154 0.861816 23.443 0.861816C20.3339 0.861816 17.3713 1.46316 14.6652 2.54646C15.7642 3.82873 16.9364 5.07563 18.1452 6.24737Z"/>
<path d="M18.1452 6.24737C25.8515 13.689 35.5496 18.6102 46.1865 20.4762C44.9044 9.44418 35.2154 0.861816 23.443 0.861816C20.3339 0.861816 17.3713 1.46316 14.6652 2.54646C15.7642 3.82873 16.9364 5.07563 18.1452 6.24737Z"/>
<path d="M7.85641 7.15824C12.3163 11.4473 19.4411 15.0995 28.054 17.611C23.5575 15.157 19.3816 12.1105 15.7321 8.58646C14.3768 7.27762 13.0718 5.8848 11.8492 4.43893L11.5471 4.08078C10.1413 4.90762 8.84085 5.88038 7.65951 6.9681L7.85641 7.15824Z"/>
<path d="M7.85641 7.15824C12.3163 11.4473 19.4411 15.0995 28.054 17.611C23.5575 15.157 19.3816 12.1105 15.7321 8.58646C14.3768 7.27762 13.0718 5.8848 11.8492 4.43893L11.5471 4.08078C10.1413 4.90762 8.84085 5.88038 7.65951 6.9681L7.85641 7.15824Z"/>
<path d="M18.1452 39.6926C16.9318 40.8643 15.7596 42.1112 14.6652 43.3935C17.3668 44.4768 20.3339 45.0781 23.443 45.0781C35.2154 45.0781 44.9044 36.4958 46.1911 25.4594C35.5542 27.3253 25.8561 32.2466 18.1498 39.6882L18.1452 39.6926Z"/>
<path d="M18.1452 39.6926C16.9318 40.8643 15.7596 42.1112 14.6652 43.3935C17.3668 44.4768 20.3339 45.0781 23.443 45.0781C35.2154 45.0781 44.9044 36.4958 46.1911 25.4594C35.5542 27.3253 25.8561 32.2466 18.1498 39.6882L18.1452 39.6926Z"/>
<path d="M16.1763 16.6691C11.8401 14.5777 8.24558 12.1768 5.48452 9.53703L5.36089 9.41765C2.67306 12.7516 0.960544 16.8504 0.617126 21.3207H29.0385C24.3359 20.0782 19.9768 18.5041 16.1717 16.6647L16.1763 16.6691Z"/>
<path d="M16.1763 16.6691C11.8401 14.5777 8.24558 12.1768 5.48452 9.53703L5.36089 9.41765C2.67306 12.7516 0.960544 16.8504 0.617126 21.3207H29.0385C24.3359 20.0782 19.9768 18.5041 16.1717 16.6647L16.1763 16.6691Z"/>
</svg>
