<svg width="360" height="66" viewBox="0 0 360 66" xmlns="http://www.w3.org/2000/svg">
  <path d="M105 41.9856C105 47.0771 102.089 50 96.3631 50H82.6681V43.9656H94.7405C96.5061 43.9656 97.3652 43.3527 97.3652 41.7972C97.3652 40.5243 96.4108 39.7229 94.3112 38.2614L87.1536 32.7927C83.527 30.0584 82 27.5126 82 24.4954C82 19.357 85.054 17 91.0663 17H104.427V23.0342H92.4025C90.5414 23.0342 89.6348 23.6471 89.6348 25.2499C89.6348 26.4757 90.5892 27.2771 92.7365 28.6912L99.8464 33.5942C103.473 36.0457 105 39.0157 105 41.9856Z"/>
  <path d="M133 23.0344H124.346V50H116.654V23.0344H108V17H133V23.0344Z"/>
  <path d="M153.636 38.12L149.047 25.0612L144.41 38.12H153.636ZM155.603 43.6356H142.397L140.149 50H132L145.066 17H152.934L166 50H157.851L155.603 43.6356Z"/>
  <path d="M178.973 32.557C183.172 32.557 184.412 31.0956 184.412 27.6071C184.412 24.1185 183.172 22.657 178.973 22.657H175.633V32.557H178.973ZM193 50H185.319L183.84 43.6827C182.886 39.2986 182.027 38.12 178.687 38.0726H175.633V50H168V17H181.693C188.801 17 192.046 20.1113 192.046 26.8998C192.046 31.4729 190.233 34.2542 186.559 35.3856C189.183 36.6114 190.471 39.0629 191.521 43.6827L193 50Z"/>
  <path d="M205.436 32.9815L217.287 17H226.163L213.708 32.9815L227 50H218.123L205.436 32.9815ZM198 50H205.436V17H198V50Z"/>
  <path d="M276 17L266.021 50H261.357L253.477 23.5999L245.596 50H240.886L231 17H235.57L243.358 44.8613L251.612 17H255.342L263.596 44.8613L271.43 17H276Z"/>
  <path d="M295.771 38.2614L289.524 21.7142L283.229 38.2614H295.771ZM296.954 41.42H282.046L278.78 50H274L287.204 17H291.795L305 50H300.22L296.954 41.42Z"/>
  <path d="M319.355 33.1699C324.604 33.1699 326.56 31.1429 326.56 26.7114C326.56 22.3742 324.604 20.3001 319.355 20.3001H313.39V33.1699H319.355ZM332 50H327.562L326.369 44.3427C325.176 38.45 323.697 36.47 319.211 36.3757H313.39V50H309V17H320.834C327.849 17 330.95 20.0641 330.95 26.3343C330.95 31.0484 328.994 33.9242 324.89 34.8671C328.135 36.0928 329.614 38.8743 330.759 44.3427L332 50Z"/>
  <path d="M343.361 20.4884V30.5298H358.056V33.7828H343.361V40.8543C343.361 44.7673 345.068 46.5114 348.955 46.5114H360V50H348.291C341.37 50 339 47.7371 339 41.2315V17H360V20.4884H343.361Z"/>
  <path d="M31.9531 37.2323L26.2979 43.0642C26.2943 43.0675 26.2909 43.0713 26.2866 43.0739C26.2727 43.0831 26.2561 43.0884 26.2384 43.0884C26.1893 43.0884 26.1494 43.0473 26.1494 42.9965C26.1494 42.9864 26.1509 42.9762 26.1541 42.967V42.967L28.3054 34.691C28.4888 34.0977 28.3525 33.4223 27.896 32.9517L22.2407 27.1195C22.2375 27.1158 22.2341 27.1122 22.2313 27.1078C22.2226 27.0938 22.2173 27.0766 22.2173 27.0583C22.2173 27.0075 22.2572 26.9664 22.3064 26.9664C22.3165 26.9664 22.3261 26.9681 22.335 26.9712L30.3604 29.1899C30.9355 29.3791 31.5905 29.2385 32.0468 28.7677L37.7023 22.936C37.7059 22.9325 37.7093 22.9287 37.7136 22.9261C37.7274 22.9169 37.7439 22.9116 37.7618 22.9116C37.8109 22.9116 37.8507 22.9527 37.8507 23.0035C37.8507 23.0139 37.849 23.0238 37.8461 23.033L35.6948 31.309C35.5113 31.9021 35.6476 32.5777 36.104 33.0483L41.7592 38.8805C41.7626 38.8842 41.766 38.8877 41.7686 38.8919C41.7776 38.9062 41.7829 38.9234 41.7829 38.9417C41.7829 38.9923 41.7428 39.0334 41.6937 39.0334C41.6837 39.0334 41.6741 39.0319 41.6651 39.0288V39.0288L33.6398 36.8101C33.0646 36.6209 32.4095 36.7617 31.9531 37.2323ZM63.756 32.3923L50.248 18.4623C49.7916 17.9917 49.1367 17.8509 48.5616 18.0401L39.6788 20.4966L39.6758 20.4958C39.6675 20.4984 39.6585 20.4999 39.6491 20.4999C39.6001 20.4999 39.5602 20.4588 39.5602 20.408C39.5602 20.3754 39.5764 20.347 39.6011 20.3307C40.5707 19.6657 42.0402 18.4623 45.5548 14.8378C45.8802 14.5023 45.8802 13.958 45.5548 13.6223L32.5893 0.25179C32.264 -0.08393 31.7362 -0.08393 31.4109 0.25179L17.9028 14.1818C17.4465 14.6523 17.3102 15.328 17.4936 15.9211L19.8755 25.0812C19.8755 25.0812 19.8742 25.0825 19.8747 25.0845C19.8774 25.0931 19.8787 25.1023 19.8787 25.1118C19.8787 25.1626 19.8388 25.2038 19.7895 25.2038C19.7582 25.2038 19.7304 25.1868 19.7147 25.1613C19.0697 24.1614 17.9028 22.6462 14.3884 19.0217C14.0628 18.686 13.535 18.686 13.2097 19.0217L0.24416 32.3923C-0.0813866 32.728 -0.0813866 33.2722 0.24416 33.6077L13.752 47.5377C14.2083 48.0083 14.8635 48.1491 15.4386 47.9599L24.3214 45.5034C24.3214 45.5034 24.3224 45.5049 24.3244 45.5042C24.3327 45.5016 24.3416 45.5001 24.3508 45.5001C24.4001 45.5001 24.44 45.5412 24.44 45.592C24.44 45.6244 24.4238 45.653 24.399 45.6695V45.6695C23.4292 46.3343 21.96 47.5377 18.4453 51.1622C18.1198 51.4979 18.1198 52.042 18.4453 52.3777L31.4109 65.7482C31.7362 66.0839 32.264 66.0839 32.5893 65.7482L46.0971 51.8182C46.5535 51.3477 46.69 50.672 46.5065 50.0789L44.1247 40.9188L44.1253 40.9157C44.1227 40.9069 44.1215 40.8979 44.1215 40.8882C44.1215 40.8374 44.1613 40.7962 44.2104 40.7962C44.242 40.7962 44.2697 40.8132 44.2855 40.8387C44.9302 41.8386 46.0971 43.354 49.6118 46.9782C49.9373 47.314 50.4649 47.314 50.7905 46.9782L63.756 33.6077C64.0813 33.2722 64.0813 32.728 63.756 32.3923Z"/>
</svg>
