<svg width="272" height="85" viewBox="0 0 272 85" fill="currentColor" xmlns="http://www.w3.org/2000/svg">
<path d="M87.5848 58.0881C87.0279 59.2658 86.6478 60.4312 85.9867 61.3907C84.6018 63.3965 83.0764 65.3032 81.5897 67.2346C81.0958 67.8768 81.2435 68.3578 81.8415 68.7867C83.8488 70.2223 85.8536 71.6579 87.8632 73.091C89.7107 74.41 91.5411 75.7538 93.4176 77.0282C94.8462 77.9977 95.5145 77.9233 96.7638 76.82C101.277 72.8405 105.742 68.8016 110.308 64.8891C116.333 59.7245 122.441 54.6641 128.504 49.5491C130.712 47.6846 132.877 45.7655 135.105 43.9283C135.504 43.5985 136.262 43.2366 136.601 43.4101C137.918 44.082 139.134 44.9647 140.439 45.8003C140.206 46.0581 139.993 46.2961 139.775 46.5292C136.957 49.5268 134.063 52.4549 131.342 55.5418C128.819 58.4055 126.889 61.7056 125.369 65.2437C124.972 66.166 125.013 66.8801 125.916 67.5991C127.981 69.2479 129.967 71.0058 131.93 72.7835C132.555 73.3488 133.141 73.4653 133.909 73.2769C136.175 72.7215 138.458 72.2281 140.724 71.6678C141.56 71.462 142.552 71.3603 143.158 70.8322C148.778 65.9156 154.286 60.8651 159.911 55.9534C165.419 51.1433 171.47 47.2433 178.465 45.0812C179.922 44.63 181.438 44.3746 183.22 43.9605C181.825 47.1317 179.934 49.4276 177.91 51.6095C173.513 56.3451 168.363 60.084 162.869 63.3568C160.029 65.0503 157.078 66.0197 153.775 64.961C153.596 64.904 153.392 64.9288 153.063 64.9065C152.748 68.0702 152.441 71.1694 152.119 74.4323C154.472 74.591 156.746 74.6331 158.763 73.7207C162.358 72.0918 165.901 70.2992 169.312 68.2983C173.673 65.742 177.416 62.1667 182.046 60.027C183.968 59.1369 185.898 58.2592 187.823 57.3765C187.031 59.2857 186.08 60.9444 185.223 62.6477C184.588 63.9048 184.363 65.2561 185.106 66.5627C185.959 68.0578 186.825 69.5504 187.777 70.981C188.816 72.543 190.283 73.4852 192.176 73.262C193.968 73.0513 195.789 72.8058 197.503 72.2628C205.305 69.7859 212.111 65.4048 218.503 60.3221C221.941 57.5873 225.132 54.5724 227.338 50.6276C227.505 50.3301 228.05 50.1268 228.43 50.1045C230.2 50.0028 231.977 50.0276 233.745 49.921C241.348 49.4673 248.962 49.1152 256.551 48.4656C261.074 48.0788 265.558 47.2061 270.061 46.5664C270.991 46.435 271.679 45.8498 271.674 44.9944C271.667 43.3729 271.458 41.744 271.202 40.1398C271.059 39.2373 270.308 38.9051 269.456 39.0265C268.221 39.2026 267.001 39.4951 265.764 39.6464C260.042 40.3481 254.33 41.1762 248.592 41.6547C241.929 42.2126 235.239 42.4456 228.563 42.8448C227.803 42.8894 227.413 42.639 227.115 41.9076C226.44 40.2489 225.29 39.1431 223.457 38.8654C220.885 38.4786 218.387 38.8431 215.941 39.5993C214.682 39.9885 213.45 40.5241 212.292 41.1588C211.963 41.3398 211.68 42.1927 211.815 42.5746C212.377 44.1539 213.06 45.6961 213.789 47.2061C214.411 48.4954 215.454 49.2888 216.885 49.4921C217.566 49.5888 218.244 49.7127 218.924 49.8243C218.941 49.9408 218.958 50.0574 218.975 50.1739C210.566 57.4757 201.658 63.8651 190.61 66.4288C190.738 65.8685 190.951 65.4321 191.227 65.0428C195.75 58.6559 201.092 53.0698 207.181 48.2524C208.171 47.4689 208.588 46.6358 208.307 45.5325C207.968 44.1936 207.501 42.8671 206.912 41.6225C206.409 40.5563 205.525 40.2712 204.38 40.8514C200.949 42.587 197.481 44.2432 194.046 45.9664C192.254 46.8664 190.498 47.8408 188.457 48.9243C189.358 45.8969 188.508 43.4771 187.053 41.1886C185.554 38.8331 183.438 37.5315 180.329 37.4199C189.787 28.7172 198.951 20.2873 208.147 11.8276C206.602 9.76224 205.137 7.80599 203.6 5.75058C203.058 6.21918 202.59 6.60101 202.147 7.00763C195.399 13.2061 188.634 19.3872 181.913 25.618C169.073 37.5191 156.271 49.4623 143.417 61.3485C141.042 63.5453 138.928 66.1164 135.889 67.4478C135.507 67.6164 134.783 67.6214 134.565 67.376C134.264 67.0387 134.051 66.2677 134.228 65.8982C134.986 64.3114 135.695 62.6279 136.795 61.3014C140.051 57.3741 143.468 53.5855 146.86 49.7797C147.344 49.2367 147.548 48.8152 147.373 48.0565C146.954 46.2515 146.627 44.4192 146.351 42.5845C146.24 41.8431 145.983 41.4117 145.264 41.1811C142.782 40.3803 140.744 38.848 138.921 36.991C135.79 33.8025 135.863 30.4825 139.119 27.4726C139.507 27.1155 139.906 26.7734 140.214 26.5006C138.741 24.9287 137.318 23.3592 135.824 21.8666C135.645 21.6881 134.918 21.7576 134.732 21.9708C133.269 23.6543 131.618 25.2461 130.519 27.1626C128.766 30.2172 128.584 33.5198 130.424 36.7058C130.807 37.3703 130.594 37.7075 130.127 38.1612C121.773 46.2936 113.306 54.2674 103.819 61.0535C99.6572 64.0312 95.6452 67.1999 91.0181 69.409C90.6211 69.6 90.1901 69.719 89.5412 69.957C89.7203 69.5058 89.7542 69.3446 89.839 69.2206C91.7082 66.4982 93.2941 63.4982 95.5169 61.1254C99.4974 56.8757 103.865 53.0054 108.066 48.9714C110.638 46.5019 113.214 44.0399 115.739 41.5208C116.006 41.2555 116.161 40.477 115.981 40.2043C114.805 38.4315 113.502 36.748 112.287 35C111.843 34.3628 111.473 34.3033 110.814 34.7149C108.928 35.8951 106.977 36.9637 105.086 38.134C98.0858 42.463 91.115 46.8416 84.1054 51.1533C77.0886 55.4674 69.8223 59.2956 62.3406 62.6924C61.3479 63.1436 60.314 63.4907 59.2971 63.8874C59.3237 63.4362 59.4424 63.1734 59.6312 62.9874C64.6384 58.041 69.6093 53.0525 74.6867 48.1805C77.3549 45.6193 80.2023 43.2539 82.9868 40.8216C83.6648 40.229 83.7858 39.7604 83.1321 39.0018C81.8294 37.4943 80.6357 35.8851 79.3549 34.2661C79.0256 34.514 78.6915 34.7397 78.384 35.0025C75.4445 37.5116 72.464 39.9737 69.5875 42.5522C63.9774 47.5829 58.469 52.7302 53.6023 58.5369C52.3747 59.9997 51.3166 61.6312 50.3287 63.275C49.7403 64.2519 49.336 65.4048 50.3166 66.4784C51.3868 67.6512 52.4764 68.809 53.5103 70.014C54.9194 71.6579 56.641 72.0124 58.6579 71.5413C63.2462 70.4678 67.5633 68.6305 71.7497 66.5082C77.0063 63.8453 82.1636 60.9816 87.5993 58.0782L87.5848 58.0881ZM69.9023 17.4037C69.924 17.498 69.9434 17.5922 69.9652 17.6864C46.9946 38.7588 24.0216 59.8336 0.90332 81.0424C3.29311 82.3069 5.45531 83.4796 7.6514 84.5805C7.88384 84.697 8.39957 84.5061 8.63928 84.2904C12.4407 80.8614 16.23 77.42 19.9975 73.9563C28.7116 65.9453 37.4258 57.9344 46.1181 49.8987C58.3044 38.6348 70.464 27.3436 82.6648 16.0971C83.2144 15.5913 84.04 15.2343 84.7761 15.1376C88.8947 14.602 93.0278 14.2053 97.1488 13.6946C106.384 12.5491 115.613 11.3614 124.846 10.1986C128.804 9.70025 132.763 9.19694 136.727 8.73329C140.131 8.33411 143.543 8.00683 146.945 7.58781C147.305 7.54318 147.93 7.06466 147.906 6.84151C147.676 4.56295 147.337 2.2943 147.027 0.0107758C146.62 0.0107758 146.337 -0.0164976 146.061 0.0157345C139.732 0.73228 133.402 1.41907 127.078 2.18521C120.274 3.00836 113.48 3.89599 106.684 4.77369C100.686 5.54727 94.6985 6.41753 88.6937 7.11672C81.9674 7.90021 75.229 8.56221 68.4907 9.23661C60.1857 10.0672 51.8783 10.873 43.5709 11.659C35.9464 12.3805 28.3242 13.1491 20.6875 13.7293C16.7578 14.0268 12.8014 14.0392 8.85961 14.0293C6.83301 14.0243 4.80883 13.6846 2.8016 13.4987C3.67325 17.1484 4.49406 20.6716 5.39478 24.17C5.45773 24.4179 6.13811 24.6758 6.49888 24.6361C13.2276 23.8997 19.9515 23.1386 26.6729 22.3402C37.8422 21.0137 49.0067 19.6352 60.1784 18.3211C63.4084 17.9418 66.6553 17.7087 69.895 17.4087L69.9023 17.4037Z"/>
</svg>
