<svg width="156" height="48" viewBox="0 0 156 48" fill="none" xmlns="http://www.w3.org/2000/svg">
  <path d="M49.9401 32.9516C49.6192 33.6197 49.4002 34.2808 49.0194 34.8251C48.2215 35.9629 47.3426 37.0445 46.4861 38.1402C46.2015 38.5044 46.2866 38.7773 46.6312 39.0206C47.7876 39.835 48.9427 40.6493 50.1005 41.4623C51.1649 42.2105 52.2195 42.9729 53.3006 43.6958C54.1236 44.2457 54.5086 44.2035 55.2284 43.5776C57.8287 41.3202 60.401 39.0291 63.0319 36.8096C66.5026 33.8799 70.0221 31.0093 73.5151 28.1077C74.7874 27.05 76.0345 25.9614 77.3178 24.9192C77.548 24.7321 77.9846 24.5268 78.1799 24.6252C78.9388 25.0064 79.6391 25.5071 80.391 25.9811C80.257 26.1274 80.1343 26.2624 80.0088 26.3946C78.385 28.095 76.718 29.7561 75.15 31.5072C73.6965 33.1317 72.5847 35.0037 71.7086 37.0108C71.4799 37.534 71.5036 37.939 72.0239 38.3469C73.2138 39.2822 74.3577 40.2794 75.489 41.2879C75.8489 41.6086 76.1865 41.6747 76.6287 41.5678C77.9344 41.2527 79.2499 40.9728 80.5556 40.655C81.0368 40.5382 81.6088 40.4806 81.9575 40.181C85.1953 37.3919 88.3688 34.5269 91.6094 31.7407C94.7829 29.0121 98.269 26.7997 102.299 25.5732C103.139 25.3172 104.012 25.1724 105.039 24.9375C104.235 26.7364 103.146 28.0388 101.98 29.2765C99.4463 31.9629 96.4792 34.0839 93.314 35.9404C91.6777 36.9011 89.9772 37.451 88.0745 36.8504C87.9713 36.8181 87.8541 36.8321 87.6644 36.8195C87.483 38.6142 87.3059 40.3723 87.1203 42.2232C88.4762 42.3132 89.7861 42.3371 90.9481 41.8195C93.0197 40.8955 95.0605 39.8786 97.026 38.7436C99.5384 37.2935 101.695 35.2653 104.362 34.0515C105.47 33.5466 106.582 33.0487 107.691 32.548C107.234 33.631 106.686 34.5719 106.192 35.5382C105.827 36.2513 105.697 37.0178 106.125 37.759C106.616 38.6071 107.116 39.4538 107.664 40.2654C108.263 41.1515 109.108 41.6859 110.199 41.5593C111.231 41.4398 112.28 41.3005 113.268 40.9925C117.762 39.5874 121.684 37.1022 125.366 34.2189C127.347 32.6675 129.186 30.9572 130.457 28.7195C130.553 28.5507 130.867 28.4354 131.086 28.4228C132.105 28.3651 133.129 28.3792 134.148 28.3187C138.528 28.0613 142.915 27.8616 147.287 27.4931C149.893 27.2737 152.476 26.7786 155.071 26.4157C155.607 26.3412 156.003 26.0092 156 25.524C155.996 24.6041 155.876 23.6801 155.728 22.7701C155.646 22.2581 155.213 22.0697 154.722 22.1386C154.011 22.2384 153.308 22.4044 152.595 22.4902C149.299 22.8882 146.008 23.358 142.702 23.6295C138.863 23.9459 135.008 24.0781 131.162 24.3046C130.724 24.3299 130.5 24.1878 130.328 23.7729C129.939 22.832 129.276 22.2047 128.22 22.0472C126.739 21.8277 125.299 22.0345 123.89 22.4635C123.165 22.6843 122.455 22.9881 121.788 23.3482C121.599 23.4508 121.435 23.9347 121.513 24.1513C121.837 25.0472 122.23 25.922 122.65 26.7786C123.009 27.5099 123.61 27.96 124.435 28.0754C124.826 28.1302 125.217 28.2005 125.609 28.2638C125.619 28.3299 125.629 28.396 125.638 28.4621C120.794 32.6042 115.662 36.2288 109.296 37.6831C109.37 37.3652 109.493 37.1177 109.652 36.8968C112.258 33.2737 115.335 30.1049 118.843 27.3721C119.414 26.9277 119.654 26.4551 119.492 25.8292C119.297 25.0697 119.028 24.3172 118.689 23.6112C118.398 23.0064 117.889 22.8446 117.229 23.1737C115.253 24.1583 113.255 25.0978 111.276 26.0753C110.243 26.5859 109.232 27.1386 108.056 27.7533C108.575 26.0359 108.085 24.6632 107.247 23.365C106.384 22.0289 105.164 21.2905 103.373 21.2272C108.822 16.2904 114.102 11.5084 119.4 6.70942C118.51 5.53782 117.666 4.4281 116.78 3.26213C116.468 3.52795 116.199 3.74455 115.943 3.97522C112.055 7.49143 108.158 10.9978 104.285 14.5323C96.8879 21.2834 89.5127 28.0585 82.1068 34.8012C80.7383 36.0473 79.5205 37.5058 77.7698 38.2611C77.5494 38.3568 77.1323 38.3596 77.0068 38.2203C76.8338 38.0291 76.711 37.5916 76.8129 37.3821C77.2495 36.4819 77.6582 35.5269 78.2915 34.7744C80.1678 32.5466 82.1361 30.3975 84.0904 28.2385C84.3694 27.9305 84.4866 27.6914 84.3862 27.261C84.1449 26.2371 83.9565 25.1977 83.7975 24.1569C83.7333 23.7363 83.5855 23.4916 83.1712 23.3608C81.7413 22.9065 80.5667 22.0373 79.5163 20.9839C77.7126 19.1751 77.7545 17.2918 79.6307 15.5844C79.8539 15.3818 80.0841 15.1877 80.2612 15.033C79.4131 14.1413 78.5928 13.251 77.7321 12.4043C77.6289 12.303 77.2104 12.3424 77.103 12.4634C76.2605 13.4184 75.3091 14.3213 74.6758 15.4085C73.6658 17.1413 73.5612 19.0148 74.6214 20.8221C74.8418 21.199 74.719 21.3903 74.4498 21.6477C69.6371 26.261 64.7589 30.7842 59.2934 34.6338C56.8954 36.323 54.5839 38.1205 51.9182 39.3737C51.6894 39.482 51.4411 39.5495 51.0672 39.6845C51.1704 39.4285 51.19 39.3371 51.2388 39.2668C52.3157 37.7224 53.2294 36.0206 54.51 34.6746C56.8034 32.2639 59.3199 30.0683 61.7402 27.78C63.2216 26.3791 64.7059 24.9825 66.1608 23.5535C66.3143 23.403 66.4036 22.9614 66.3003 22.8067C65.6224 21.801 64.8719 20.846 64.1716 19.8544C63.9163 19.493 63.7029 19.4592 63.3235 19.6927C62.2368 20.3622 61.1124 20.9684 60.023 21.6322C55.9901 24.088 51.974 26.5718 47.9355 29.0177C43.8929 31.465 39.7066 33.6366 35.3961 35.5635C34.8241 35.8195 34.2285 36.0164 33.6426 36.2414C33.6579 35.9854 33.7263 35.8363 33.8351 35.7309C36.7199 32.9249 39.5838 30.0951 42.5091 27.3313C44.0463 25.8784 45.6868 24.5366 47.291 23.1569C47.6816 22.8207 47.7514 22.5549 47.3747 22.1245C46.6242 21.2694 45.9365 20.3566 45.1986 19.4381C45.0088 19.5788 44.8163 19.7068 44.6392 19.8559C42.9457 21.2792 41.2285 22.6759 39.5712 24.1386C36.3391 26.9924 33.1655 29.9122 30.3616 33.2062C29.6544 34.036 29.0448 34.9615 28.4756 35.894C28.1366 36.4482 27.9037 37.1022 28.4686 37.7112C29.0852 38.3765 29.713 39.0333 30.3086 39.7168C31.1205 40.6493 32.1123 40.8505 33.2743 40.5832C35.9178 39.9742 38.405 38.932 40.8169 37.7281C43.8454 36.2175 46.8167 34.593 49.9484 32.946L49.9401 32.9516ZM39.7526 9.87261C39.7651 9.92606 39.7763 9.9795 39.7889 10.033C26.5547 21.9867 13.3192 33.9418 0 45.9729C1.37684 46.6902 2.62255 47.3555 3.88779 47.9799C4.02171 48.046 4.31884 47.9378 4.45694 47.8154C6.64705 45.8702 8.83019 43.918 11.0008 41.9532C16.0213 37.4088 21.0418 32.8644 26.0498 28.306C33.0707 21.9164 40.0762 15.5112 47.1055 9.13139C47.4221 8.84447 47.8978 8.64194 48.3219 8.58708C50.6948 8.28328 53.076 8.05824 55.4502 7.76851C60.7707 7.11871 66.0883 6.44501 71.4073 5.78536C73.6881 5.50266 75.9689 5.21714 78.2525 4.95413C80.2138 4.72769 82.1793 4.54203 84.1393 4.30433C84.3471 4.27902 84.707 4.00757 84.6931 3.88098C84.5606 2.58842 84.3653 1.30149 84.1867 0.00611276C83.9523 0.00611276 83.7891 -0.00935859 83.6301 0.00892573C79.9836 0.4154 76.3372 0.804997 72.6935 1.2396C68.7736 1.70655 64.8593 2.21008 60.9436 2.70797C57.4883 3.1468 54.0385 3.64047 50.579 4.0371C46.7037 4.48155 42.8215 4.85708 38.9393 5.23965C34.1546 5.71082 29.3684 6.16793 24.5822 6.61378C20.1895 7.02307 15.7981 7.45908 11.3983 7.7882C9.13429 7.95698 6.8549 7.96401 4.58389 7.95838C3.41629 7.95557 2.25009 7.76288 1.09366 7.6574C1.59585 9.72774 2.06875 11.7264 2.58768 13.7109C2.62395 13.8516 3.01593 13.9978 3.22379 13.9753C7.10042 13.5576 10.9743 13.1258 14.8467 12.6729C21.2817 11.9205 27.714 11.1384 34.1504 10.393C36.0113 10.1778 37.8819 10.0456 39.7484 9.87543L39.7526 9.87261Z"/>
</svg>
