<svg width="141" height="27" viewBox="0 0 141 27" xmlns="http://www.w3.org/2000/svg">
  <path
    d="M39.1347 19.8278V17.9362H33.7077V17.827L38.7863 11.8065V10.0059H31.3242V11.8429H35.9445V11.9521L30.9575 17.918V19.8278H39.1347ZM43.6083 19.8278V15.517H44.085L47.0919 19.8278H49.9154L46.0101 14.5712L49.7504 10.0059H47.0368L44.1767 13.7527H43.6083V6.00433H41.3165V19.8278H43.6083ZM54.389 18.4818C54.389 17.2295 54.1229 17.033 52.9801 17.0269L52.9222 17.0267C51.6938 17.0267 51.4555 17.2086 51.4555 18.4818C51.4555 19.7166 51.6862 19.9302 52.8636 19.9368L52.9222 19.9369C54.114 19.9369 54.389 19.7368 54.389 18.4818ZM64.9863 19.8278V17.7361H59.761V7.20479H57.3592V19.8278H64.9863ZM69.2766 7.25935C69.2766 6.1693 69.0111 6.04484 68.0282 6.04081L67.9749 6.0407C66.9481 6.0407 66.6731 6.14984 66.6731 7.25935C66.6731 8.33119 66.9384 8.49069 67.9206 8.49604L67.9749 8.49619C69.0016 8.49619 69.2766 8.35068 69.2766 7.25935ZM69.1116 19.8278V10.0059H66.8198V19.8278H69.1116ZM74.2819 19.8278V13.2798C74.6853 12.043 75.5287 11.7156 76.7021 11.7156C78.0955 11.7156 78.4072 12.3522 78.4072 13.7346V19.8278H80.699V13.0979C80.699 11.0244 79.9106 9.82397 77.3988 9.82397C76.042 9.82397 74.8503 10.2241 74.2819 11.2427V10.0059H71.9901V19.8278H74.2819ZM85.8327 19.8278V15.517H86.3094L89.3162 19.8278H92.1397L88.2345 14.5712L91.9747 10.0059H89.2612L86.401 13.7527H85.8327V6.00433H83.5409V19.8278H85.8327Z"
  />
  <path
    d="M13.3784 0.158752L20.403 4.22529V10.8805L26.1415 14.2025V22.3296L19.1168 26.3961L13.3744 23.0715L7.63125 26.3961L0.606628 22.3296V14.2025L6.35373 10.8755V4.22529L13.3784 0.158752ZM7.63125 13.0973L3.16958 15.6802V20.8518L7.63125 23.4347L12.0916 20.8526V15.6794L7.63125 13.0973ZM14.6559 20.8519L19.1169 23.4347L23.5785 20.8518V15.6802L19.1199 13.0991L14.6559 15.6834V20.8519ZM17.84 10.8747V5.70303L13.3784 3.12018L8.91669 5.70304V10.8747L13.3784 13.4575L17.84 10.8747Z"
  />
  <path
    d="M13.3784 6.81738L20.403 10.8839V19.011L13.3784 23.0776L6.35376 19.011V10.8839L13.3784 6.81738ZM13.3784 9.77881L8.91671 12.3617V17.5333L13.3784 20.1162L17.84 17.5333V12.3617L13.3784 9.77881Z"
  />
  <path
    d="M13.3903 16.3574C14.3027 16.3574 15.0424 15.6177 15.0424 14.7053C15.0424 13.7929 14.3027 13.0532 13.3903 13.0532C12.4779 13.0532 11.7382 13.7929 11.7382 14.7053C11.7382 15.6177 12.4779 16.3574 13.3903 16.3574Z"
  />
  <path
    d="M115.628 9.36663C116.666 9.36663 117.545 9.59444 118.267 10.0501C118.988 10.5057 119.537 11.1274 119.914 11.9152C120.261 12.6425 120.448 13.46 120.475 14.3679L120.479 14.5967V14.796L120.475 15.0235C120.448 15.9262 120.261 16.7426 119.914 17.4728C119.537 18.2638 118.99 18.8855 118.272 19.3379C117.553 19.7904 116.679 20.0166 115.647 20.0166C114.622 20.0166 113.749 19.7904 113.027 19.3379C112.306 18.8855 111.755 18.2638 111.376 17.4728C111.025 16.7426 110.837 15.9262 110.81 15.0235L110.806 14.796V14.5967L110.81 14.3679C110.837 13.46 111.025 12.6425 111.376 11.9152C111.755 11.1274 112.304 10.5057 113.023 10.0501C113.741 9.59444 114.609 9.36663 115.628 9.36663ZM136.117 9.36663C136.902 9.36663 137.602 9.49952 138.219 9.7653C138.836 10.0311 139.32 10.4297 139.672 10.9613C139.996 11.4519 140.17 12.0558 140.195 12.773L140.198 12.9546V17.3684C140.198 17.9126 140.233 18.365 140.303 18.7257C140.361 19.0263 140.441 19.2939 140.543 19.5286L140.607 19.6654V19.8268H137.958L137.906 19.7058C137.839 19.5387 137.782 19.3483 137.736 19.1347L137.703 18.9702L137.689 18.8889L137.661 18.9192C137.581 19.0054 137.495 19.0896 137.403 19.1718C137.128 19.4186 136.796 19.6211 136.406 19.7793C136.017 19.9375 135.566 20.0166 135.054 20.0166C134.396 20.0166 133.802 19.8853 133.274 19.6227C132.746 19.3601 132.328 18.9962 132.021 18.5311C131.714 18.066 131.561 17.5361 131.561 16.9412C131.561 15.9132 131.925 15.108 132.653 14.5255L132.771 14.4353L132.895 14.3493C133.654 13.8461 134.712 13.5813 136.068 13.5548L136.297 13.5526L137.578 13.5527L137.579 12.9356C137.579 12.442 137.449 12.0481 137.19 11.7539C136.93 11.4596 136.525 11.3125 135.975 11.3125C135.658 11.3125 135.381 11.3663 135.144 11.4738C134.907 11.5814 134.778 11.674 134.634 11.7999C134.49 11.9259 134.333 12.1053 134.179 12.3658C133.634 11.9578 133.017 11.5007 132.33 10.9945C132.684 10.5041 133.185 10.1102 133.834 9.81276C134.483 9.51534 135.244 9.36663 136.117 9.36663ZM101.014 9.91982C102.338 11.3061 103.454 12.6972 104.362 14.0929C105.495 15.8347 106.406 17.7456 107.094 19.8265L105.991 19.8268C105.363 17.9578 104.521 16.2078 103.465 14.5768C102.656 13.3265 101.839 12.2936 101.014 11.4779L101.014 9.91982ZM99.8289 6.00646C100.902 6.81471 101.989 7.79118 103.091 8.93587C104.07 9.95337 104.948 10.9694 105.724 11.984L105.922 12.2465C107.038 13.9205 107.966 15.6342 108.706 17.3875L108.706 19.8268L107.961 19.8267L107.914 19.6762C107.247 17.6327 106.373 15.7441 105.29 14.0114L105.054 13.6425C103.903 11.8722 102.392 10.0943 100.599 8.34835L100.259 8.02137L100.258 19.8268H97.5433V6.00646H99.8289ZM123.993 9.55647L126 16.6025L127.98 9.55647H130.704L127.211 19.8268H124.771L121.269 9.55647H123.993ZM136.421 15.1093L136.26 15.1116C135.575 15.1317 135.064 15.2828 134.726 15.5649C134.362 15.8686 134.181 16.2578 134.181 16.7324C134.181 17.0931 134.306 17.3937 134.555 17.6341C134.78 17.8506 135.086 17.9696 135.473 17.9912L135.604 17.9948L135.763 17.9908L135.916 17.9788C136.218 17.9468 136.487 17.8667 136.724 17.7385C136.996 17.5921 137.214 17.4178 137.381 17.2155L137.46 17.1121L137.521 17.0204L137.549 16.9753L137.574 16.9305L137.578 16.9219V15.1095L136.421 15.1093ZM115.628 11.4644C115.103 11.4644 114.677 11.6083 114.351 11.8962C114.026 12.1842 113.79 12.5654 113.644 13.04C113.517 13.4553 113.445 13.9045 113.429 14.3876L113.426 14.5967V14.796L113.429 15.0074C113.446 15.4953 113.519 15.9469 113.649 16.3622C113.798 16.8368 114.035 17.2149 114.361 17.4965C114.687 17.7781 115.116 17.9189 115.647 17.9189C116.179 17.9189 116.607 17.7781 116.933 17.4965C117.259 17.2149 117.496 16.8368 117.645 16.3622C117.775 15.9469 117.848 15.4953 117.865 15.0074L117.868 14.796V14.5967L117.865 14.3876C117.848 13.9045 117.775 13.4553 117.645 13.04C117.496 12.5654 117.259 12.1842 116.933 11.8962C116.607 11.6083 116.172 11.4644 115.628 11.4644ZM108.706 6.00646L108.706 15.4074C107.95 13.8798 107.051 12.3836 106.011 10.919L106.01 6.00646H108.706Z"
  />
</svg>
