<svg width="800" height="801" viewBox="0 0 800 801" fill="none" xmlns="http://www.w3.org/2000/svg">
<mask id="mask0_27_21" style="mask-type:alpha" maskUnits="userSpaceOnUse" x="0" y="0" width="800" height="801">
<rect x="800" y="801" width="800" height="801" transform="rotate(180 800 801)" fill="#e5e5e5"/>
</mask>
<g mask="url(#mask0_27_21)">
<line x1="799.5" y1="801" x2="799.5" y2="-0.000183055" stroke="#e5e5e5"/>
<line x1="599.25" y1="801" x2="599.25" y2="-0.000183055" stroke="#e5e5e5"/>
<line x1="399" y1="801" x2="399" y2="-0.000183055" stroke="#e5e5e5"/>
<line x1="198.75" y1="801" x2="198.75" y2="-0.000183055" stroke="#e5e5e5"/>
<line x1="-1" y1="800.5" x2="800" y2="800.5" stroke="#e5e5e5"/>
<line x1="-1" y1="601.525" x2="800" y2="601.525" stroke="#e5e5e5"/>
<line x1="-1" y1="402.551" x2="800" y2="402.551" stroke="#e5e5e5"/>
<line x1="-1" y1="203.576" x2="800" y2="203.576" stroke="#e5e5e5"/>
<circle cx="399.499" cy="400.5" r="400" transform="rotate(180 399.499 400.5)" stroke="#e5e5e5"/>
<path d="M399 402.5C509.737 402.5 599.5 491.599 599.5 601.5C599.5 711.401 509.737 800.5 399 800.5C288.263 800.5 198.5 711.401 198.5 601.5C198.5 491.599 288.263 402.5 399 402.5Z" stroke="#e5e5e5"/>
<path d="M399 0.500022C509.732 0.500017 599.5 90.4896 599.5 201.5C599.5 312.51 509.732 402.5 399 402.5C288.268 402.5 198.5 312.51 198.5 201.5C198.5 90.4896 288.268 0.500027 399 0.500022Z" stroke="#e5e5e5"/>
</g>
</svg>
