<svg width="801" height="801" viewBox="0 0 801 801" fill="none" xmlns="http://www.w3.org/2000/svg">
<mask id="mask0_22_409" style="mask-type:alpha" maskUnits="userSpaceOnUse" x="0" y="0" width="801" height="801">
<rect x="801" y="801" width="801" height="801" transform="rotate(180 801 801)" fill="#D9D9D9"/>
</mask>
<g mask="url(#mask0_22_409)">
<line x1="800.5" y1="801" x2="800.5" y2="-0.000183055" stroke="#333237"/>
<line x1="600.25" y1="801" x2="600.25" y2="-0.000183055" stroke="#333237"/>
<line x1="400" y1="801" x2="400" y2="-0.000183055" stroke="#333237"/>
<line x1="199.75" y1="801" x2="199.75" y2="-0.000183055" stroke="#333237"/>
<line x1="3.50478e-08" y1="800.5" x2="801" y2="800.5" stroke="#333237"/>
<line x1="3.55527e-08" y1="601.525" x2="801" y2="601.525" stroke="#333237"/>
<line x1="3.55527e-08" y1="402.551" x2="801" y2="402.551" stroke="#333237"/>
<line x1="3.55527e-08" y1="203.576" x2="801" y2="203.576" stroke="#333237"/>
<circle cx="401" cy="400.5" r="400" transform="rotate(180 401 400.5)" stroke="#333237"/>
<circle cx="400.25" cy="602.352" r="199.75" transform="rotate(-90 400.25 602.352)" stroke="#333237"/>
<circle cx="400.25" cy="200.25" r="199.75" transform="rotate(-90 400.25 200.25)" stroke="#333237"/>
</g>
</svg>
