<svg width="122" height="82" viewBox="0 0 122 82" fill="none" xmlns="http://www.w3.org/2000/svg">
<g clip-path="url(#clip0_975_1794)">
<rect width="122" height="82" rx="12" fill="#29282E"/>
<path d="M106 8H16C11.5817 8 8 11.5817 8 16V82H114V16C114 11.5817 110.418 8 106 8Z" fill="white" fill-opacity="0.24"/>
<path d="M7.5 82V82.5H8H114H114.5V82V16C114.5 11.3056 110.694 7.5 106 7.5H16C11.3056 7.5 7.5 11.3056 7.5 16V82Z" stroke="url(#paint0_linear_975_1794)" stroke-opacity="0.16"/>
<path d="M16.77 21.454C16.392 21.0387 16.203 20.5043 16.203 19.851C16.203 19.1977 16.392 18.6657 16.77 18.255C17.148 17.8397 17.6263 17.632 18.205 17.632C18.6997 17.632 19.101 17.765 19.409 18.031C19.7217 18.2923 19.92 18.6447 20.004 19.088H19.115C18.9517 18.6493 18.6483 18.43 18.205 18.43C17.869 18.43 17.603 18.563 17.407 18.829C17.211 19.0903 17.113 19.431 17.113 19.851C17.113 20.2663 17.211 20.607 17.407 20.873C17.603 21.139 17.869 21.272 18.205 21.272C18.6483 21.272 18.9517 21.0503 19.115 20.607H20.004C19.92 21.055 19.7217 21.412 19.409 21.678C19.101 21.9393 18.6997 22.07 18.205 22.07C17.6263 22.07 17.148 21.8647 16.77 21.454ZM23.4454 17.702H24.3414V22H23.4454V20.194H21.4994V22H20.6034V17.702H21.4994V19.41H23.4454V17.702ZM28.4528 18.262C28.8355 18.6773 29.0268 19.207 29.0268 19.851C29.0268 20.495 28.8355 21.027 28.4528 21.447C28.0748 21.8623 27.5872 22.07 26.9898 22.07C26.3925 22.07 25.9048 21.8623 25.5268 21.447C25.1488 21.027 24.9598 20.495 24.9598 19.851C24.9598 19.2023 25.1488 18.6703 25.5268 18.255C25.9048 17.8397 26.3925 17.632 26.9898 17.632C27.5872 17.632 28.0748 17.842 28.4528 18.262ZM27.8088 20.88C28.0188 20.6187 28.1238 20.2757 28.1238 19.851C28.1238 19.4263 28.0188 19.0833 27.8088 18.822C27.6035 18.5607 27.3305 18.43 26.9898 18.43C26.6538 18.43 26.3832 18.5607 26.1778 18.822C25.9725 19.0833 25.8698 19.4263 25.8698 19.851C25.8698 20.2757 25.9725 20.6187 26.1778 20.88C26.3832 21.1413 26.6538 21.272 26.9898 21.272C27.3305 21.272 27.6035 21.1413 27.8088 20.88ZM30.5434 17.702V22H29.6474V17.702H30.5434ZM31.7202 21.454C31.3422 21.0387 31.1532 20.5043 31.1532 19.851C31.1532 19.1977 31.3422 18.6657 31.7202 18.255C32.0982 17.8397 32.5765 17.632 33.1552 17.632C33.6499 17.632 34.0512 17.765 34.3592 18.031C34.6719 18.2923 34.8702 18.6447 34.9542 19.088H34.0652C33.9019 18.6493 33.5985 18.43 33.1552 18.43C32.8192 18.43 32.5532 18.563 32.3572 18.829C32.1612 19.0903 32.0632 19.431 32.0632 19.851C32.0632 20.2663 32.1612 20.607 32.3572 20.873C32.5532 21.139 32.8192 21.272 33.1552 21.272C33.5985 21.272 33.9019 21.0503 34.0652 20.607H34.9542C34.8702 21.055 34.6719 21.412 34.3592 21.678C34.0512 21.9393 33.6499 22.07 33.1552 22.07C32.5765 22.07 32.0982 21.8647 31.7202 21.454ZM35.5536 17.702H38.4726V18.486H36.4356V19.424H38.2836V20.187H36.4356V21.209H38.4726V22H35.5536V17.702ZM38.869 20.775H39.793C39.9097 21.1437 40.1943 21.328 40.647 21.328C40.8663 21.328 41.0413 21.2813 41.172 21.188C41.3027 21.09 41.368 20.957 41.368 20.789C41.368 20.6583 41.326 20.5557 41.242 20.481C41.1627 20.4063 41.0297 20.348 40.843 20.306L40.073 20.131C39.345 19.9677 38.981 19.5757 38.981 18.955C38.981 18.5677 39.1257 18.2503 39.415 18.003C39.7043 17.7557 40.0753 17.632 40.528 17.632C41.004 17.632 41.3843 17.7463 41.669 17.975C41.9583 18.199 42.1403 18.5 42.215 18.878H41.326C41.2093 18.5373 40.9457 18.367 40.535 18.367C40.3297 18.367 40.164 18.4137 40.038 18.507C39.9167 18.5957 39.856 18.717 39.856 18.871C39.856 19.109 40.017 19.2653 40.339 19.34L41.123 19.522C41.8743 19.6947 42.25 20.0983 42.25 20.733C42.25 21.139 42.1007 21.4633 41.802 21.706C41.5033 21.9487 41.1207 22.07 40.654 22.07C40.1733 22.07 39.7743 21.9557 39.457 21.727C39.1397 21.4983 38.9437 21.181 38.869 20.775Z" fill="black"/>
<rect x="16" y="28" width="90" height="14" rx="4" fill="#111111" fill-opacity="0.06"/>
<rect x="16.25" y="28.25" width="89.5" height="13.5" rx="3.75" stroke="black" stroke-opacity="0.08" stroke-width="0.5"/>
<path d="M22.877 34.781C23.0823 34.8463 23.2503 34.9723 23.381 35.159C23.5117 35.341 23.577 35.544 23.577 35.768C23.577 36.1647 23.4463 36.4703 23.185 36.685C22.9283 36.895 22.5737 37 22.121 37H20.476V32.702H21.981C22.4383 32.702 22.7953 32.8023 23.052 33.003C23.3087 33.2037 23.437 33.493 23.437 33.871C23.437 34.095 23.3833 34.2887 23.276 34.452C23.1733 34.6153 23.0403 34.725 22.877 34.781ZM21.183 34.508H21.974C22.4827 34.508 22.737 34.3097 22.737 33.913C22.737 33.5257 22.4827 33.332 21.974 33.332H21.183V34.508ZM21.183 35.11V36.37H22.107C22.3497 36.37 22.5363 36.314 22.667 36.202C22.7977 36.09 22.863 35.936 22.863 35.74C22.863 35.544 22.7977 35.39 22.667 35.278C22.5363 35.166 22.3497 35.11 22.107 35.11H21.183ZM26.6135 34.277C26.8888 34.5803 27.0265 34.97 27.0265 35.446C27.0265 35.922 26.8888 36.3117 26.6135 36.615C26.3428 36.9183 25.9881 37.07 25.5495 37.07C25.1108 37.07 24.7538 36.9183 24.4785 36.615C24.2078 36.3117 24.0725 35.922 24.0725 35.446C24.0725 34.97 24.2078 34.5803 24.4785 34.277C24.7538 33.9737 25.1108 33.822 25.5495 33.822C25.9881 33.822 26.3428 33.9737 26.6135 34.277ZM26.1235 36.188C26.2588 35.9967 26.3265 35.7493 26.3265 35.446C26.3265 35.1427 26.2588 34.8977 26.1235 34.711C25.9881 34.5197 25.7968 34.424 25.5495 34.424C25.3021 34.424 25.1108 34.5197 24.9755 34.711C24.8401 34.8977 24.7725 35.1427 24.7725 35.446C24.7725 35.7493 24.8401 35.9967 24.9755 36.188C25.1108 36.3747 25.3021 36.468 25.5495 36.468C25.7968 36.468 25.9881 36.3747 26.1235 36.188ZM28.3801 36.734V37H27.6801V32.45H28.3801V34.158C28.4548 34.0647 28.5644 33.9853 28.7091 33.92C28.8538 33.8547 29.0078 33.822 29.1711 33.822C29.6144 33.822 29.9644 33.9783 30.2211 34.291C30.4824 34.599 30.6131 34.984 30.6131 35.446C30.6131 35.908 30.4824 36.2953 30.2211 36.608C29.9644 36.916 29.6144 37.07 29.1711 37.07C29.0078 37.07 28.8538 37.0373 28.7091 36.972C28.5644 36.9067 28.4548 36.8273 28.3801 36.734ZM28.3801 34.858V36.034C28.4408 36.1553 28.5318 36.2557 28.6531 36.335C28.7744 36.4097 28.9074 36.447 29.0521 36.447C29.3181 36.447 29.5281 36.3537 29.6821 36.167C29.8361 35.9803 29.9131 35.74 29.9131 35.446C29.9131 35.152 29.8361 34.9117 29.6821 34.725C29.5281 34.5383 29.3181 34.445 29.0521 34.445C28.9074 34.445 28.7744 34.4847 28.6531 34.564C28.5318 34.6387 28.4408 34.7367 28.3801 34.858Z" fill="black"/>
<path d="M95.6666 35.3333L97 36.6666L100.333 33.3333" stroke="#FBFBFB" stroke-width="0.6" stroke-linecap="round" stroke-linejoin="round"/>
<rect x="16.25" y="44.25" width="89.5" height="13.5" rx="3.75" stroke="black" stroke-opacity="0.08" stroke-width="0.5"/>
<path d="M21.792 48.702H22.492L24.144 53H23.402L22.961 51.81H21.316L20.875 53H20.14L21.792 48.702ZM22.135 49.591L21.547 51.18H22.723L22.135 49.591ZM24.7201 53V49.892H25.4201V50.186C25.6301 49.9433 25.9101 49.822 26.2601 49.822C26.6055 49.822 26.8738 49.927 27.0651 50.137C27.2611 50.347 27.3591 50.627 27.3591 50.977V53H26.6591V51.096C26.6591 50.8953 26.6101 50.739 26.5121 50.627C26.4141 50.515 26.2671 50.459 26.0711 50.459C25.9171 50.459 25.7795 50.5057 25.6581 50.599C25.5368 50.6877 25.4575 50.8067 25.4201 50.956V53H24.7201ZM28.186 53V49.892H28.886V50.186C29.096 49.9433 29.376 49.822 29.726 49.822C30.0713 49.822 30.3396 49.927 30.531 50.137C30.727 50.347 30.825 50.627 30.825 50.977V53H30.125V51.096C30.125 50.8953 30.076 50.739 29.978 50.627C29.88 50.515 29.733 50.459 29.537 50.459C29.383 50.459 29.2453 50.5057 29.124 50.599C29.0026 50.6877 28.9233 50.8067 28.886 50.956V53H28.186ZM34.0458 53H33.3808V52.825C33.3248 52.881 33.2221 52.9347 33.0728 52.986C32.9281 53.0327 32.7741 53.056 32.6108 53.056C32.2794 53.056 32.0018 52.965 31.7778 52.783C31.5584 52.5963 31.4488 52.349 31.4488 52.041C31.4488 51.7517 31.5631 51.5137 31.7918 51.327C32.0251 51.1357 32.3144 51.04 32.6598 51.04C32.7951 51.04 32.9328 51.061 33.0728 51.103C33.2128 51.1403 33.3154 51.1823 33.3808 51.229V50.977C33.3808 50.8137 33.3294 50.6807 33.2268 50.578C33.1241 50.4707 32.9771 50.417 32.7858 50.417C32.5104 50.417 32.3331 50.529 32.2538 50.753H31.5818C31.6284 50.4823 31.7638 50.2607 31.9878 50.088C32.2164 49.9107 32.4871 49.822 32.7998 49.822C33.1918 49.822 33.4974 49.9247 33.7168 50.13C33.9361 50.3307 34.0458 50.6083 34.0458 50.963V53ZM33.3808 52.174V51.915C33.3434 51.8217 33.2641 51.747 33.1428 51.691C33.0214 51.6303 32.8884 51.6 32.7438 51.6C32.5711 51.6 32.4194 51.6373 32.2888 51.712C32.1628 51.7867 32.0998 51.8963 32.0998 52.041C32.0998 52.1857 32.1628 52.2977 32.2888 52.377C32.4148 52.4517 32.5664 52.489 32.7438 52.489C32.8884 52.489 33.0214 52.461 33.1428 52.405C33.2641 52.3443 33.3434 52.2673 33.3808 52.174Z" fill="black"/>
<rect x="16.25" y="60.25" width="89.5" height="13.5" rx="3.75" stroke="black" stroke-opacity="0.08" stroke-width="0.5"/>
<path d="M22.87 69H22.352L21.169 66.011V69H20.476V64.702H21.309L22.618 68.006L23.913 64.702H24.725V69H24.025V66.011L22.87 69ZM28.0301 69H27.3651V68.825C27.3091 68.881 27.2065 68.9347 27.0571 68.986C26.9125 69.0327 26.7585 69.056 26.5951 69.056C26.2638 69.056 25.9861 68.965 25.7621 68.783C25.5428 68.5963 25.4331 68.349 25.4331 68.041C25.4331 67.7517 25.5475 67.5137 25.7761 67.327C26.0095 67.1357 26.2988 67.04 26.6441 67.04C26.7795 67.04 26.9171 67.061 27.0571 67.103C27.1971 67.1403 27.2998 67.1823 27.3651 67.229V66.977C27.3651 66.8137 27.3138 66.6807 27.2111 66.578C27.1085 66.4707 26.9615 66.417 26.7701 66.417C26.4948 66.417 26.3175 66.529 26.2381 66.753H25.5661C25.6128 66.4823 25.7481 66.2607 25.9721 66.088C26.2008 65.9107 26.4715 65.822 26.7841 65.822C27.1761 65.822 27.4818 65.9247 27.7011 66.13C27.9205 66.3307 28.0301 66.6083 28.0301 66.963V69ZM27.3651 68.174V67.915C27.3278 67.8217 27.2485 67.747 27.1271 67.691C27.0058 67.6303 26.8728 67.6 26.7281 67.6C26.5555 67.6 26.4038 67.6373 26.2731 67.712C26.1471 67.7867 26.0841 67.8963 26.0841 68.041C26.0841 68.1857 26.1471 68.2977 26.2731 68.377C26.3991 68.4517 26.5508 68.489 26.7281 68.489C26.8728 68.489 27.0058 68.461 27.1271 68.405C27.2485 68.3443 27.3278 68.2673 27.3651 68.174ZM30.5919 65.878V66.599C30.4939 66.529 30.3562 66.494 30.1789 66.494C30.0295 66.494 29.8965 66.5383 29.7799 66.627C29.6632 66.711 29.5885 66.8323 29.5559 66.991V69H28.8559V65.892H29.5559V66.214C29.6165 66.0973 29.7099 66.004 29.8359 65.934C29.9619 65.8593 30.0995 65.822 30.2489 65.822C30.4122 65.822 30.5265 65.8407 30.5919 65.878ZM32.3688 70.19H31.6898L32.1308 69.084L30.9268 65.892H31.6758L32.4878 68.181L33.2858 65.892H34.0068L32.3688 70.19Z" fill="black"/>
<rect x="16.25" y="76.25" width="89.5" height="13.5" rx="3.75" stroke="black" stroke-opacity="0.08" stroke-width="0.5"/>
<path d="M20.105 83.747H20.861C20.9123 84.1857 21.141 84.405 21.547 84.405C22.0323 84.405 22.275 84.1087 22.275 83.516V80.702H23.003V83.516C23.003 84.02 22.8747 84.405 22.618 84.671C22.3613 84.937 22.009 85.07 21.561 85.07C21.1177 85.07 20.7723 84.951 20.525 84.713C20.2777 84.4703 20.1377 84.1483 20.105 83.747ZM26.1555 82.277C26.4308 82.5803 26.5685 82.97 26.5685 83.446C26.5685 83.922 26.4308 84.3117 26.1555 84.615C25.8848 84.9183 25.5301 85.07 25.0915 85.07C24.6528 85.07 24.2958 84.9183 24.0205 84.615C23.7498 84.3117 23.6145 83.922 23.6145 83.446C23.6145 82.97 23.7498 82.5803 24.0205 82.277C24.2958 81.9737 24.6528 81.822 25.0915 81.822C25.5301 81.822 25.8848 81.9737 26.1555 82.277ZM25.6655 84.188C25.8008 83.9967 25.8685 83.7493 25.8685 83.446C25.8685 83.1427 25.8008 82.8977 25.6655 82.711C25.5301 82.5197 25.3388 82.424 25.0915 82.424C24.8441 82.424 24.6528 82.5197 24.5175 82.711C24.3821 82.8977 24.3145 83.1427 24.3145 83.446C24.3145 83.7493 24.3821 83.9967 24.5175 84.188C24.6528 84.3747 24.8441 84.468 25.0915 84.468C25.3388 84.468 25.5301 84.3747 25.6655 84.188ZM27.0051 84.104H27.7191C27.7984 84.3653 28.0038 84.496 28.3351 84.496C28.4984 84.496 28.6268 84.4657 28.7201 84.405C28.8181 84.3397 28.8671 84.2463 28.8671 84.125C28.8671 84.041 28.8391 83.9757 28.7831 83.929C28.7271 83.8777 28.6338 83.8357 28.5031 83.803L27.8591 83.649C27.3458 83.5277 27.0891 83.243 27.0891 82.795C27.0891 82.515 27.1988 82.284 27.4181 82.102C27.6421 81.9153 27.9244 81.822 28.2651 81.822C28.6198 81.822 28.9021 81.9037 29.1121 82.067C29.3221 82.2257 29.4551 82.4497 29.5111 82.739H28.8251C28.7551 82.5103 28.5661 82.396 28.2581 82.396C28.1228 82.396 28.0061 82.4263 27.9081 82.487C27.8101 82.5477 27.7611 82.6363 27.7611 82.753C27.7611 82.8883 27.8684 82.984 28.0831 83.04L28.7411 83.194C29.2731 83.32 29.5391 83.614 29.5391 84.076C29.5391 84.3793 29.4248 84.622 29.1961 84.804C28.9721 84.9813 28.6828 85.07 28.3281 85.07C27.9641 85.07 27.6631 84.9837 27.4251 84.811C27.1918 84.6383 27.0518 84.4027 27.0051 84.104ZM30.2231 85V80.45H30.9231V82.186C31.1331 81.9433 31.4131 81.822 31.7631 81.822C32.1084 81.822 32.3767 81.927 32.5681 82.137C32.7641 82.347 32.8621 82.627 32.8621 82.977V85H32.1621V83.096C32.1621 82.8953 32.1131 82.739 32.0151 82.627C31.9171 82.515 31.7701 82.459 31.5741 82.459C31.4201 82.459 31.2824 82.5057 31.1611 82.599C31.0397 82.6877 30.9604 82.8067 30.9231 82.956V85H30.2231Z" fill="black"/>
</g>
<rect x="0.5" y="0.5" width="121" height="81" rx="11.5" stroke="#333237"/>
<defs>
<linearGradient id="paint0_linear_975_1794" x1="61" y1="8" x2="61" y2="82" gradientUnits="userSpaceOnUse">
<stop stop-color="#111111" stop-opacity="0.6"/>
<stop offset="1" stop-color="#111111" stop-opacity="0"/>
</linearGradient>
<clipPath id="clip0_975_1794">
<rect width="122" height="82" rx="12" fill="white"/>
</clipPath>
</defs>
</svg>
