<svg width="122" height="82" viewBox="0 0 122 82" fill="none" xmlns="http://www.w3.org/2000/svg">
<g clip-path="url(#clip0_975_1870)">
<rect width="122" height="82" rx="12" fill="#EDEDED"/>
<path d="M106 8H16C11.5817 8 8 11.5817 8 16V82H114V16C114 11.5817 110.418 8 106 8Z" fill="white" fill-opacity="0.24"/>
<path d="M7.5 82V82.5H8H114H114.5V82V16C114.5 11.3056 110.694 7.5 106 7.5H16C11.3056 7.5 7.5 11.3056 7.5 16V82Z" stroke="url(#paint0_linear_975_1870)" stroke-opacity="0.16"/>
<path d="M16.77 21.454C16.392 21.0387 16.203 20.5043 16.203 19.851C16.203 19.1977 16.392 18.6657 16.77 18.255C17.148 17.8397 17.6263 17.632 18.205 17.632C18.6997 17.632 19.101 17.765 19.409 18.031C19.7217 18.2923 19.92 18.6447 20.004 19.088H19.115C18.9517 18.6493 18.6483 18.43 18.205 18.43C17.869 18.43 17.603 18.563 17.407 18.829C17.211 19.0903 17.113 19.431 17.113 19.851C17.113 20.2663 17.211 20.607 17.407 20.873C17.603 21.139 17.869 21.272 18.205 21.272C18.6483 21.272 18.9517 21.0503 19.115 20.607H20.004C19.92 21.055 19.7217 21.412 19.409 21.678C19.101 21.9393 18.6997 22.07 18.205 22.07C17.6263 22.07 17.148 21.8647 16.77 21.454ZM23.4454 17.702H24.3414V22H23.4454V20.194H21.4994V22H20.6034V17.702H21.4994V19.41H23.4454V17.702ZM28.4528 18.262C28.8355 18.6773 29.0268 19.207 29.0268 19.851C29.0268 20.495 28.8355 21.027 28.4528 21.447C28.0748 21.8623 27.5872 22.07 26.9898 22.07C26.3925 22.07 25.9048 21.8623 25.5268 21.447C25.1488 21.027 24.9598 20.495 24.9598 19.851C24.9598 19.2023 25.1488 18.6703 25.5268 18.255C25.9048 17.8397 26.3925 17.632 26.9898 17.632C27.5872 17.632 28.0748 17.842 28.4528 18.262ZM27.8088 20.88C28.0188 20.6187 28.1238 20.2757 28.1238 19.851C28.1238 19.4263 28.0188 19.0833 27.8088 18.822C27.6035 18.5607 27.3305 18.43 26.9898 18.43C26.6538 18.43 26.3832 18.5607 26.1778 18.822C25.9725 19.0833 25.8698 19.4263 25.8698 19.851C25.8698 20.2757 25.9725 20.6187 26.1778 20.88C26.3832 21.1413 26.6538 21.272 26.9898 21.272C27.3305 21.272 27.6035 21.1413 27.8088 20.88ZM30.5434 17.702V22H29.6474V17.702H30.5434ZM31.7202 21.454C31.3422 21.0387 31.1532 20.5043 31.1532 19.851C31.1532 19.1977 31.3422 18.6657 31.7202 18.255C32.0982 17.8397 32.5765 17.632 33.1552 17.632C33.6499 17.632 34.0512 17.765 34.3592 18.031C34.6719 18.2923 34.8702 18.6447 34.9542 19.088H34.0652C33.9019 18.6493 33.5985 18.43 33.1552 18.43C32.8192 18.43 32.5532 18.563 32.3572 18.829C32.1612 19.0903 32.0632 19.431 32.0632 19.851C32.0632 20.2663 32.1612 20.607 32.3572 20.873C32.5532 21.139 32.8192 21.272 33.1552 21.272C33.5985 21.272 33.9019 21.0503 34.0652 20.607H34.9542C34.8702 21.055 34.6719 21.412 34.3592 21.678C34.0512 21.9393 33.6499 22.07 33.1552 22.07C32.5765 22.07 32.0982 21.8647 31.7202 21.454ZM35.5536 17.702H38.4726V18.486H36.4356V19.424H38.2836V20.187H36.4356V21.209H38.4726V22H35.5536V17.702ZM38.869 20.775H39.793C39.9097 21.1437 40.1943 21.328 40.647 21.328C40.8663 21.328 41.0413 21.2813 41.172 21.188C41.3027 21.09 41.368 20.957 41.368 20.789C41.368 20.6583 41.326 20.5557 41.242 20.481C41.1627 20.4063 41.0297 20.348 40.843 20.306L40.073 20.131C39.345 19.9677 38.981 19.5757 38.981 18.955C38.981 18.5677 39.1257 18.2503 39.415 18.003C39.7043 17.7557 40.0753 17.632 40.528 17.632C41.004 17.632 41.3843 17.7463 41.669 17.975C41.9583 18.199 42.1403 18.5 42.215 18.878H41.326C41.2093 18.5373 40.9457 18.367 40.535 18.367C40.3297 18.367 40.164 18.4137 40.038 18.507C39.9167 18.5957 39.856 18.717 39.856 18.871C39.856 19.109 40.017 19.2653 40.339 19.34L41.123 19.522C41.8743 19.6947 42.25 20.0983 42.25 20.733C42.25 21.139 42.1007 21.4633 41.802 21.706C41.5033 21.9487 41.1207 22.07 40.654 22.07C40.1733 22.07 39.7743 21.9557 39.457 21.727C39.1397 21.4983 38.9437 21.181 38.869 20.775Z" fill="black"/>
<rect x="16" y="28" width="90" height="14" rx="4" fill="#111111" fill-opacity="0.06"/>
<rect x="16.25" y="28.25" width="89.5" height="13.5" rx="3.75" stroke="black" stroke-opacity="0.08" stroke-width="0.5"/>
<path d="M21.204 37H20.476V32.702H23.22V33.346H21.204V34.62H23.087V35.257H21.204V37ZM26.1213 34.277C26.3966 34.5803 26.5343 34.97 26.5343 35.446C26.5343 35.922 26.3966 36.3117 26.1213 36.615C25.8506 36.9183 25.4959 37.07 25.0573 37.07C24.6186 37.07 24.2616 36.9183 23.9863 36.615C23.7156 36.3117 23.5803 35.922 23.5803 35.446C23.5803 34.97 23.7156 34.5803 23.9863 34.277C24.2616 33.9737 24.6186 33.822 25.0573 33.822C25.4959 33.822 25.8506 33.9737 26.1213 34.277ZM25.6313 36.188C25.7666 35.9967 25.8343 35.7493 25.8343 35.446C25.8343 35.1427 25.7666 34.8977 25.6313 34.711C25.4959 34.5197 25.3046 34.424 25.0573 34.424C24.8099 34.424 24.6186 34.5197 24.4833 34.711C24.3479 34.8977 24.2803 35.1427 24.2803 35.446C24.2803 35.7493 24.3479 35.9967 24.4833 36.188C24.6186 36.3747 24.8099 36.468 25.0573 36.468C25.3046 36.468 25.4959 36.3747 25.6313 36.188ZM28.9239 33.878V34.599C28.8259 34.529 28.6882 34.494 28.5109 34.494C28.3616 34.494 28.2286 34.5383 28.1119 34.627C27.9952 34.711 27.9206 34.8323 27.8879 34.991V37H27.1879V33.892H27.8879V34.214C27.9486 34.0973 28.0419 34.004 28.1679 33.934C28.2939 33.8593 28.4316 33.822 28.5809 33.822C28.7442 33.822 28.8586 33.8407 28.9239 33.878Z" fill="black"/>
<path d="M95.6666 35.3334L97 36.6667L100.333 33.3334" stroke="#111111" stroke-width="0.6" stroke-linecap="round" stroke-linejoin="round"/>
<rect x="16.25" y="44.25" width="89.5" height="13.5" rx="3.75" stroke="black" stroke-opacity="0.08" stroke-width="0.5"/>
<path d="M21.792 48.702H22.492L24.144 53H23.402L22.961 51.81H21.316L20.875 53H20.14L21.792 48.702ZM22.135 49.591L21.547 51.18H22.723L22.135 49.591ZM25.4201 52.734V53H24.7201V48.45H25.4201V50.158C25.4948 50.0647 25.6045 49.9853 25.7491 49.92C25.8938 49.8547 26.0478 49.822 26.2111 49.822C26.6545 49.822 27.0045 49.9783 27.2611 50.291C27.5225 50.599 27.6531 50.984 27.6531 51.446C27.6531 51.908 27.5225 52.2953 27.2611 52.608C27.0045 52.916 26.6545 53.07 26.2111 53.07C26.0478 53.07 25.8938 53.0373 25.7491 52.972C25.6045 52.9067 25.4948 52.8273 25.4201 52.734ZM25.4201 50.858V52.034C25.4808 52.1553 25.5718 52.2557 25.6931 52.335C25.8145 52.4097 25.9475 52.447 26.0921 52.447C26.3581 52.447 26.5681 52.3537 26.7221 52.167C26.8761 51.9803 26.9531 51.74 26.9531 51.446C26.9531 51.152 26.8761 50.9117 26.7221 50.725C26.5681 50.5383 26.3581 50.445 26.0921 50.445C25.9475 50.445 25.8145 50.4847 25.6931 50.564C25.5718 50.6387 25.4808 50.7367 25.4201 50.858ZM28.0852 52.104H28.7992C28.8785 52.3653 29.0838 52.496 29.4152 52.496C29.5785 52.496 29.7068 52.4657 29.8002 52.405C29.8982 52.3397 29.9472 52.2463 29.9472 52.125C29.9472 52.041 29.9192 51.9757 29.8632 51.929C29.8072 51.8777 29.7138 51.8357 29.5832 51.803L28.9392 51.649C28.4258 51.5277 28.1692 51.243 28.1692 50.795C28.1692 50.515 28.2788 50.284 28.4982 50.102C28.7222 49.9153 29.0045 49.822 29.3452 49.822C29.6998 49.822 29.9822 49.9037 30.1922 50.067C30.4022 50.2257 30.5352 50.4497 30.5912 50.739H29.9052C29.8352 50.5103 29.6462 50.396 29.3382 50.396C29.2028 50.396 29.0862 50.4263 28.9882 50.487C28.8902 50.5477 28.8412 50.6363 28.8412 50.753C28.8412 50.8883 28.9485 50.984 29.1632 51.04L29.8212 51.194C30.3532 51.32 30.6192 51.614 30.6192 52.076C30.6192 52.3793 30.5048 52.622 30.2762 52.804C30.0522 52.9813 29.7628 53.07 29.4082 53.07C29.0442 53.07 28.7432 52.9837 28.5052 52.811C28.2718 52.6383 28.1318 52.4027 28.0852 52.104ZM31.4641 52.16V50.473H30.9741V49.892H31.4641V49.059H32.1641V49.892H32.8641V50.473H32.1641V52.083C32.1641 52.3257 32.2878 52.447 32.5351 52.447C32.6845 52.447 32.8175 52.405 32.9341 52.321V52.958C32.8081 53.0327 32.6331 53.07 32.4091 53.07C32.1198 53.07 31.8888 52.993 31.7161 52.839C31.5481 52.685 31.4641 52.4587 31.4641 52.16ZM35.9735 53H35.3085V52.825C35.2525 52.881 35.1498 52.9347 35.0005 52.986C34.8558 53.0327 34.7018 53.056 34.5385 53.056C34.2072 53.056 33.9295 52.965 33.7055 52.783C33.4862 52.5963 33.3765 52.349 33.3765 52.041C33.3765 51.7517 33.4908 51.5137 33.7195 51.327C33.9528 51.1357 34.2422 51.04 34.5875 51.04C34.7228 51.04 34.8605 51.061 35.0005 51.103C35.1405 51.1403 35.2432 51.1823 35.3085 51.229V50.977C35.3085 50.8137 35.2572 50.6807 35.1545 50.578C35.0518 50.4707 34.9048 50.417 34.7135 50.417C34.4382 50.417 34.2608 50.529 34.1815 50.753H33.5095C33.5562 50.4823 33.6915 50.2607 33.9155 50.088C34.1442 49.9107 34.4148 49.822 34.7275 49.822C35.1195 49.822 35.4252 49.9247 35.6445 50.13C35.8638 50.3307 35.9735 50.6083 35.9735 50.963V53ZM35.3085 52.174V51.915C35.2712 51.8217 35.1918 51.747 35.0705 51.691C34.9492 51.6303 34.8162 51.6 34.6715 51.6C34.4988 51.6 34.3472 51.6373 34.2165 51.712C34.0905 51.7867 34.0275 51.8963 34.0275 52.041C34.0275 52.1857 34.0905 52.2977 34.2165 52.377C34.3425 52.4517 34.4942 52.489 34.6715 52.489C34.8162 52.489 34.9492 52.461 35.0705 52.405C35.1918 52.3443 35.2712 52.2673 35.3085 52.174ZM37.4992 49.892V53H36.7992V49.892H37.4992ZM37.4502 48.653C37.5389 48.737 37.5832 48.8373 37.5832 48.954C37.5832 49.0707 37.5389 49.171 37.4502 49.255C37.3662 49.339 37.2659 49.381 37.1492 49.381C37.0326 49.381 36.9299 49.339 36.8412 49.255C36.7572 49.171 36.7152 49.0707 36.7152 48.954C36.7152 48.8373 36.7572 48.737 36.8412 48.653C36.9299 48.569 37.0326 48.527 37.1492 48.527C37.2659 48.527 37.3662 48.569 37.4502 48.653ZM38.3647 53V49.892H39.0647V50.186C39.2747 49.9433 39.5547 49.822 39.9047 49.822C40.25 49.822 40.5183 49.927 40.7097 50.137C40.9057 50.347 41.0037 50.627 41.0037 50.977V53H40.3037V51.096C40.3037 50.8953 40.2547 50.739 40.1567 50.627C40.0587 50.515 39.9117 50.459 39.7157 50.459C39.5617 50.459 39.424 50.5057 39.3027 50.599C39.1813 50.6877 39.102 50.8067 39.0647 50.956V53H38.3647Z" fill="black"/>
<rect x="16.25" y="60.25" width="89.5" height="13.5" rx="3.75" stroke="black" stroke-opacity="0.08" stroke-width="0.5"/>
<path d="M21.792 64.702H22.492L24.144 69H23.402L22.961 67.81H21.316L20.875 69H20.14L21.792 64.702ZM22.135 65.591L21.547 67.18H22.723L22.135 65.591ZM26.702 68.79V68.65C26.6273 68.7387 26.5176 68.8157 26.373 68.881C26.233 68.9417 26.079 68.972 25.911 68.972C25.4723 68.972 25.1223 68.818 24.861 68.51C24.5996 68.202 24.469 67.831 24.469 67.397C24.469 66.963 24.5996 66.592 24.861 66.284C25.1223 65.976 25.4723 65.822 25.911 65.822C26.079 65.822 26.233 65.8547 26.373 65.92C26.5176 65.9807 26.6273 66.0553 26.702 66.144V65.892H27.402V68.741C27.402 69.245 27.2666 69.623 26.996 69.875C26.73 70.1317 26.3776 70.26 25.939 70.26C25.547 70.26 25.2273 70.162 24.98 69.966C24.7373 69.7747 24.5973 69.5087 24.56 69.168H25.239C25.309 69.5133 25.5423 69.686 25.939 69.686C26.4476 69.686 26.702 69.3873 26.702 68.79ZM26.702 67.985V66.809C26.6413 66.7017 26.5503 66.613 26.429 66.543C26.3076 66.473 26.1746 66.438 26.03 66.438C25.7686 66.438 25.561 66.5267 25.407 66.704C25.2576 66.8813 25.183 67.1123 25.183 67.397C25.183 67.6817 25.2576 67.9127 25.407 68.09C25.561 68.2673 25.7686 68.356 26.03 68.356C26.1746 68.356 26.3076 68.321 26.429 68.251C26.5503 68.181 26.6413 68.0923 26.702 67.985ZM30.662 69H29.997V68.825C29.941 68.881 29.8383 68.9347 29.689 68.986C29.5443 69.0327 29.3903 69.056 29.227 69.056C28.8957 69.056 28.618 68.965 28.394 68.783C28.1747 68.5963 28.065 68.349 28.065 68.041C28.065 67.7517 28.1793 67.5137 28.408 67.327C28.6413 67.1357 28.9307 67.04 29.276 67.04C29.4113 67.04 29.549 67.061 29.689 67.103C29.829 67.1403 29.9317 67.1823 29.997 67.229V66.977C29.997 66.8137 29.9457 66.6807 29.843 66.578C29.7403 66.4707 29.5933 66.417 29.402 66.417C29.1267 66.417 28.9493 66.529 28.87 66.753H28.198C28.2447 66.4823 28.38 66.2607 28.604 66.088C28.8327 65.9107 29.1033 65.822 29.416 65.822C29.808 65.822 30.1137 65.9247 30.333 66.13C30.5523 66.3307 30.662 66.6083 30.662 66.963V69ZM29.997 68.174V67.915C29.9597 67.8217 29.8803 67.747 29.759 67.691C29.6377 67.6303 29.5047 67.6 29.36 67.6C29.1873 67.6 29.0357 67.6373 28.905 67.712C28.779 67.7867 28.716 67.8963 28.716 68.041C28.716 68.1857 28.779 68.2977 28.905 68.377C29.031 68.4517 29.1827 68.489 29.36 68.489C29.5047 68.489 29.6377 68.461 29.759 68.405C29.8803 68.3443 29.9597 68.2673 29.997 68.174ZM32.1877 65.892V69H31.4877V65.892H32.1877ZM32.1387 64.653C32.2274 64.737 32.2717 64.8373 32.2717 64.954C32.2717 65.0707 32.2274 65.171 32.1387 65.255C32.0547 65.339 31.9544 65.381 31.8377 65.381C31.721 65.381 31.6184 65.339 31.5297 65.255C31.4457 65.171 31.4037 65.0707 31.4037 64.954C31.4037 64.8373 31.4457 64.737 31.5297 64.653C31.6184 64.569 31.721 64.527 31.8377 64.527C31.9544 64.527 32.0547 64.569 32.1387 64.653ZM33.0531 69V65.892H33.7531V66.186C33.9631 65.9433 34.2431 65.822 34.5931 65.822C34.9385 65.822 35.2068 65.927 35.3981 66.137C35.5941 66.347 35.6921 66.627 35.6921 66.977V69H34.9921V67.096C34.9921 66.8953 34.9431 66.739 34.8451 66.627C34.7471 66.515 34.6001 66.459 34.4041 66.459C34.2501 66.459 34.1125 66.5057 33.9911 66.599C33.8698 66.6877 33.7905 66.8067 33.7531 66.956V69H33.0531ZM36.302 68.104H37.016C37.0953 68.3653 37.3006 68.496 37.632 68.496C37.7953 68.496 37.9236 68.4657 38.017 68.405C38.115 68.3397 38.164 68.2463 38.164 68.125C38.164 68.041 38.136 67.9757 38.08 67.929C38.024 67.8777 37.9306 67.8357 37.8 67.803L37.156 67.649C36.6426 67.5277 36.386 67.243 36.386 66.795C36.386 66.515 36.4956 66.284 36.715 66.102C36.939 65.9153 37.2213 65.822 37.562 65.822C37.9166 65.822 38.199 65.9037 38.409 66.067C38.619 66.2257 38.752 66.4497 38.808 66.739H38.122C38.052 66.5103 37.863 66.396 37.555 66.396C37.4196 66.396 37.303 66.4263 37.205 66.487C37.107 66.5477 37.058 66.6363 37.058 66.753C37.058 66.8883 37.1653 66.984 37.38 67.04L38.038 67.194C38.57 67.32 38.836 67.614 38.836 68.076C38.836 68.3793 38.7216 68.622 38.493 68.804C38.269 68.9813 37.9796 69.07 37.625 69.07C37.261 69.07 36.96 68.9837 36.722 68.811C36.4886 68.6383 36.3486 68.4027 36.302 68.104ZM39.6809 68.16V66.473H39.1909V65.892H39.6809V65.059H40.3809V65.892H41.0809V66.473H40.3809V68.083C40.3809 68.3257 40.5046 68.447 40.7519 68.447C40.9013 68.447 41.0343 68.405 41.1509 68.321V68.958C41.0249 69.0327 40.8499 69.07 40.6259 69.07C40.3366 69.07 40.1056 68.993 39.9329 68.839C39.7649 68.685 39.6809 68.4587 39.6809 68.16Z" fill="black"/>
</g>
<rect x="0.5" y="0.5" width="121" height="81" rx="11.5" stroke="#E5E5E6"/>
<defs>
<linearGradient id="paint0_linear_975_1870" x1="61" y1="8" x2="61" y2="82" gradientUnits="userSpaceOnUse">
<stop stop-color="#111111" stop-opacity="0.6"/>
<stop offset="1" stop-color="#111111" stop-opacity="0"/>
</linearGradient>
<clipPath id="clip0_975_1870">
<rect width="122" height="82" rx="12" fill="white"/>
</clipPath>
</defs>
</svg>
