<svg width="496" height="336" viewBox="0 0 496 336" fill="none" xmlns="http://www.w3.org/2000/svg">
<g filter="url(#filter0_d_9_283)">
<rect x="182" y="6" width="172" height="48" rx="6" fill="white"/>
<rect x="182.5" y="6.5" width="171" height="47" rx="5.5" stroke="#E5E5E6"/>
</g>
<path d="M227.616 35H226.032L222.32 25.176H224.064L226.848 32.84L229.632 25.176H231.328L227.616 35ZM237.148 28.776C237.777 29.4693 238.092 30.36 238.092 31.448C238.092 32.536 237.777 33.4267 237.148 34.12C236.529 34.8133 235.718 35.16 234.716 35.16C233.713 35.16 232.897 34.8133 232.268 34.12C231.649 33.4267 231.34 32.536 231.34 31.448C231.34 30.36 231.649 29.4693 232.268 28.776C232.897 28.0827 233.713 27.736 234.716 27.736C235.718 27.736 236.529 28.0827 237.148 28.776ZM236.028 33.144C236.337 32.7067 236.492 32.1413 236.492 31.448C236.492 30.7547 236.337 30.1947 236.028 29.768C235.718 29.3307 235.281 29.112 234.716 29.112C234.15 29.112 233.713 29.3307 233.404 29.768C233.094 30.1947 232.94 30.7547 232.94 31.448C232.94 32.1413 233.094 32.7067 233.404 33.144C233.713 33.5707 234.15 33.784 234.716 33.784C235.281 33.784 235.718 33.5707 236.028 33.144ZM239.954 33.08V29.224H238.834V27.896H239.954V25.992H241.554V27.896H243.154V29.224H241.554V32.904C241.554 33.4587 241.836 33.736 242.402 33.736C242.743 33.736 243.047 33.64 243.314 33.448V34.904C243.026 35.0747 242.626 35.16 242.114 35.16C241.452 35.16 240.924 34.984 240.53 34.632C240.146 34.28 239.954 33.7627 239.954 33.08ZM249.251 32.792H250.723C250.595 33.5173 250.27 34.0933 249.747 34.52C249.235 34.9467 248.563 35.16 247.731 35.16C246.739 35.16 245.928 34.8187 245.299 34.136C244.68 33.4533 244.371 32.5627 244.371 31.464C244.371 30.3973 244.686 29.512 245.315 28.808C245.944 28.0933 246.739 27.736 247.699 27.736C248.68 27.736 249.438 28.056 249.971 28.696C250.515 29.3253 250.787 30.1733 250.787 31.24V31.816H245.939C245.96 32.4347 246.131 32.9253 246.451 33.288C246.782 33.64 247.208 33.816 247.731 33.816C248.574 33.816 249.08 33.4747 249.251 32.792ZM247.715 29.08C247.267 29.08 246.888 29.2187 246.579 29.496C246.28 29.7627 246.083 30.1467 245.987 30.648H249.203C249.192 30.1893 249.059 29.816 248.803 29.528C248.547 29.2293 248.184 29.08 247.715 29.08Z" fill="black"/>
<circle cx="205.5" cy="30.5" r="9.5" fill="black"/>
<path d="M206.964 26.018V34H205.339V27.916L203.48 28.839V27.214L205.911 26.018H206.964Z" fill="white"/>
<path d="M319 31L323 35L333 25" stroke="black" stroke-width="2" stroke-linecap="round" stroke-linejoin="round"/>
<g filter="url(#filter1_d_9_283)">
<rect x="314" y="162" width="172" height="48" rx="6" fill="white"/>
<rect x="314.5" y="162.5" width="171" height="47" rx="5.5" stroke="#E5E5E6"/>
</g>
<path d="M356.752 189.512H358.336C359.349 189.512 360.128 189.208 360.672 188.6C361.227 187.992 361.504 187.155 361.504 186.088C361.504 185.021 361.227 184.184 360.672 183.576C360.128 182.957 359.349 182.648 358.336 182.648H356.752V189.512ZM355.088 191V181.176H358.4C359.851 181.176 361.008 181.624 361.872 182.52C362.736 183.405 363.168 184.595 363.168 186.088C363.168 187.581 362.736 188.776 361.872 189.672C361.008 190.557 359.851 191 358.4 191H355.088ZM369.189 188.792H370.661C370.533 189.517 370.207 190.093 369.685 190.52C369.173 190.947 368.501 191.16 367.669 191.16C366.677 191.16 365.866 190.819 365.237 190.136C364.618 189.453 364.309 188.563 364.309 187.464C364.309 186.397 364.623 185.512 365.253 184.808C365.882 184.093 366.677 183.736 367.637 183.736C368.618 183.736 369.375 184.056 369.909 184.696C370.453 185.325 370.725 186.173 370.725 187.24V187.816H365.877C365.898 188.435 366.069 188.925 366.389 189.288C366.719 189.64 367.146 189.816 367.669 189.816C368.511 189.816 369.018 189.475 369.189 188.792ZM367.653 185.08C367.205 185.08 366.826 185.219 366.517 185.496C366.218 185.763 366.021 186.147 365.924 186.648H369.141C369.13 186.189 368.997 185.816 368.741 185.528C368.485 185.229 368.122 185.08 367.653 185.08ZM373.795 180.6V191H372.195V180.6H373.795ZM380.157 188.792H381.629C381.501 189.517 381.176 190.093 380.653 190.52C380.141 190.947 379.469 191.16 378.637 191.16C377.645 191.16 376.835 190.819 376.205 190.136C375.587 189.453 375.277 188.563 375.277 187.464C375.277 186.397 375.592 185.512 376.221 184.808C376.851 184.093 377.645 183.736 378.605 183.736C379.587 183.736 380.344 184.056 380.877 184.696C381.421 185.325 381.693 186.173 381.693 187.24V187.816H376.845C376.867 188.435 377.037 188.925 377.357 189.288C377.688 189.64 378.115 189.816 378.637 189.816C379.48 189.816 379.987 189.475 380.157 188.792ZM378.621 185.08C378.173 185.08 377.795 185.219 377.485 185.496C377.187 185.763 376.989 186.147 376.893 186.648H380.109C380.099 186.189 379.965 185.816 379.709 185.528C379.453 185.229 379.091 185.08 378.621 185.08ZM387.772 190.52V190.2C387.601 190.403 387.351 190.579 387.02 190.728C386.7 190.867 386.348 190.936 385.964 190.936C384.961 190.936 384.161 190.584 383.564 189.88C382.967 189.176 382.668 188.328 382.668 187.336C382.668 186.344 382.967 185.496 383.564 184.792C384.161 184.088 384.961 183.736 385.964 183.736C386.348 183.736 386.7 183.811 387.02 183.96C387.351 184.099 387.601 184.269 387.772 184.472V183.896H389.372V190.408C389.372 191.56 389.063 192.424 388.444 193C387.836 193.587 387.031 193.88 386.028 193.88C385.132 193.88 384.401 193.656 383.836 193.208C383.281 192.771 382.961 192.163 382.876 191.384H384.428C384.588 192.173 385.121 192.568 386.028 192.568C387.191 192.568 387.772 191.885 387.772 190.52ZM387.772 188.68V185.992C387.633 185.747 387.425 185.544 387.148 185.384C386.871 185.224 386.567 185.144 386.236 185.144C385.639 185.144 385.164 185.347 384.812 185.752C384.471 186.157 384.3 186.685 384.3 187.336C384.3 187.987 384.471 188.515 384.812 188.92C385.164 189.325 385.639 189.528 386.236 189.528C386.567 189.528 386.871 189.448 387.148 189.288C387.425 189.128 387.633 188.925 387.772 188.68ZM396.823 191H395.303V190.6C395.175 190.728 394.941 190.851 394.599 190.968C394.269 191.075 393.917 191.128 393.543 191.128C392.786 191.128 392.151 190.92 391.639 190.504C391.138 190.077 390.887 189.512 390.887 188.808C390.887 188.147 391.149 187.603 391.671 187.176C392.205 186.739 392.866 186.52 393.655 186.52C393.965 186.52 394.279 186.568 394.599 186.664C394.919 186.749 395.154 186.845 395.303 186.952V186.376C395.303 186.003 395.186 185.699 394.951 185.464C394.717 185.219 394.381 185.096 393.943 185.096C393.314 185.096 392.909 185.352 392.727 185.864H391.191C391.298 185.245 391.607 184.739 392.119 184.344C392.642 183.939 393.261 183.736 393.975 183.736C394.871 183.736 395.57 183.971 396.071 184.44C396.573 184.899 396.823 185.533 396.823 186.344V191ZM395.303 189.112V188.52C395.218 188.307 395.037 188.136 394.759 188.008C394.482 187.869 394.178 187.8 393.847 187.8C393.453 187.8 393.106 187.885 392.807 188.056C392.519 188.227 392.375 188.477 392.375 188.808C392.375 189.139 392.519 189.395 392.807 189.576C393.095 189.747 393.442 189.832 393.847 189.832C394.178 189.832 394.482 189.768 394.759 189.64C395.037 189.501 395.218 189.325 395.303 189.112ZM399.001 189.08V185.224H397.881V183.896H399.001V181.992H400.601V183.896H402.201V185.224H400.601V188.904C400.601 189.459 400.883 189.736 401.449 189.736C401.79 189.736 402.094 189.64 402.361 189.448V190.904C402.073 191.075 401.673 191.16 401.161 191.16C400.499 191.16 399.971 190.984 399.577 190.632C399.193 190.28 399.001 189.763 399.001 189.08ZM408.298 188.792H409.77C409.642 189.517 409.317 190.093 408.794 190.52C408.282 190.947 407.61 191.16 406.778 191.16C405.786 191.16 404.975 190.819 404.346 190.136C403.727 189.453 403.418 188.563 403.418 187.464C403.418 186.397 403.733 185.512 404.362 184.808C404.991 184.093 405.786 183.736 406.746 183.736C407.727 183.736 408.485 184.056 409.018 184.696C409.562 185.325 409.834 186.173 409.834 187.24V187.816H404.986C405.007 188.435 405.178 188.925 405.498 189.288C405.829 189.64 406.255 189.816 406.778 189.816C407.621 189.816 408.127 189.475 408.298 188.792ZM406.762 185.08C406.314 185.08 405.935 185.219 405.626 185.496C405.327 185.763 405.13 186.147 405.034 186.648H408.25C408.239 186.189 408.106 185.816 407.85 185.528C407.594 185.229 407.231 185.08 406.762 185.08Z" fill="black"/>
<circle cx="337.5" cy="186.5" r="9.5" fill="black"/>
<path d="M338.498 184.332C338.498 184.046 338.407 183.816 338.225 183.643C338.043 183.461 337.796 183.37 337.484 183.37C337.163 183.37 336.907 183.474 336.717 183.682C336.535 183.881 336.435 184.146 336.418 184.475H334.702C334.78 183.712 335.066 183.093 335.56 182.616C336.062 182.131 336.699 181.888 337.471 181.888C338.303 181.888 338.957 182.105 339.434 182.538C339.91 182.963 340.149 183.539 340.149 184.267C340.149 184.579 340.062 184.904 339.889 185.242C339.715 185.571 339.542 185.836 339.369 186.035C339.204 186.226 338.935 186.516 338.563 186.906L337.029 188.557H340.24V190H334.715V188.921L337.25 186.256C337.83 185.615 338.186 185.177 338.316 184.943C338.437 184.726 338.498 184.523 338.498 184.332Z" fill="white"/>
<g filter="url(#filter2_d_9_283)">
<rect x="142" y="274" width="172" height="48" rx="6" fill="white"/>
<rect x="142.5" y="274.5" width="171" height="47" rx="5.5" stroke="#E5E5E6"/>
</g>
<path d="M183.088 293.176H189.504V294.648H184.72V297.24H189.056V298.696H184.72V301.512H189.504V303H183.088V293.176ZM197.275 295.896L194.811 299.288L197.467 303H195.659L193.899 300.488L192.123 303H190.411L193.051 299.352L190.603 295.896H192.411L193.963 298.136L195.563 295.896H197.275ZM202.876 300.792H204.348C204.22 301.517 203.895 302.093 203.372 302.52C202.86 302.947 202.188 303.16 201.356 303.16C200.364 303.16 199.553 302.819 198.924 302.136C198.305 301.453 197.996 300.563 197.996 299.464C197.996 298.397 198.311 297.512 198.94 296.808C199.569 296.093 200.364 295.736 201.324 295.736C202.305 295.736 203.063 296.056 203.596 296.696C204.14 297.325 204.412 298.173 204.412 299.24V299.816H199.564C199.585 300.435 199.756 300.925 200.076 301.288C200.407 301.64 200.833 301.816 201.356 301.816C202.199 301.816 202.705 301.475 202.876 300.792ZM201.34 297.08C200.892 297.08 200.513 297.219 200.204 297.496C199.905 297.763 199.708 298.147 199.612 298.648H202.828C202.817 298.189 202.684 297.816 202.428 297.528C202.172 297.229 201.809 297.08 201.34 297.08ZM206.362 302.136C205.743 301.443 205.434 300.547 205.434 299.448C205.434 298.349 205.743 297.459 206.362 296.776C206.98 296.083 207.775 295.736 208.746 295.736C209.578 295.736 210.255 295.955 210.778 296.392C211.3 296.819 211.615 297.395 211.722 298.12H210.122C210.058 297.8 209.903 297.555 209.658 297.384C209.423 297.213 209.124 297.128 208.762 297.128C208.239 297.128 207.818 297.347 207.498 297.784C207.188 298.211 207.034 298.765 207.034 299.448C207.034 300.131 207.188 300.691 207.498 301.128C207.818 301.555 208.239 301.768 208.762 301.768C209.124 301.768 209.423 301.683 209.658 301.512C209.903 301.341 210.058 301.096 210.122 300.776H211.722C211.615 301.501 211.3 302.083 210.778 302.52C210.255 302.947 209.578 303.16 208.746 303.16C207.775 303.16 206.98 302.819 206.362 302.136ZM219.052 295.896V303H217.452V302.328C216.972 302.883 216.338 303.16 215.548 303.16C214.759 303.16 214.146 302.92 213.708 302.44C213.271 301.96 213.052 301.32 213.052 300.52V295.896H214.652V300.248C214.652 301.219 215.095 301.704 215.98 301.704C216.332 301.704 216.642 301.603 216.908 301.4C217.186 301.187 217.367 300.909 217.452 300.568V295.896H219.052ZM221.407 301.08V297.224H220.287V295.896H221.407V293.992H223.007V295.896H224.607V297.224H223.007V300.904C223.007 301.459 223.29 301.736 223.855 301.736C224.196 301.736 224.5 301.64 224.767 301.448V302.904C224.479 303.075 224.079 303.16 223.567 303.16C222.906 303.16 222.378 302.984 221.983 302.632C221.599 302.28 221.407 301.763 221.407 301.08ZM230.704 300.792H232.176C232.048 301.517 231.723 302.093 231.2 302.52C230.688 302.947 230.016 303.16 229.184 303.16C228.192 303.16 227.381 302.819 226.752 302.136C226.133 301.453 225.824 300.563 225.824 299.464C225.824 298.397 226.139 297.512 226.768 296.808C227.397 296.093 228.192 295.736 229.152 295.736C230.133 295.736 230.891 296.056 231.424 296.696C231.968 297.325 232.24 298.173 232.24 299.24V299.816H227.392C227.413 300.435 227.584 300.925 227.904 301.288C228.235 301.64 228.661 301.816 229.184 301.816C230.027 301.816 230.533 301.475 230.704 300.792ZM229.168 297.08C228.72 297.08 228.341 297.219 228.032 297.496C227.733 297.763 227.536 298.147 227.44 298.648H230.656C230.645 298.189 230.512 297.816 230.256 297.528C230 297.229 229.637 297.08 229.168 297.08Z" fill="black"/>
<circle cx="165.5" cy="298.5" r="9.5" fill="black"/>
<path d="M164.878 298.581V297.294H165.333C165.689 297.294 165.975 297.207 166.191 297.034C166.417 296.861 166.529 296.614 166.529 296.293C166.529 296.007 166.434 295.773 166.243 295.591C166.061 295.4 165.81 295.305 165.489 295.305C165.143 295.305 164.865 295.409 164.657 295.617C164.458 295.816 164.345 296.076 164.319 296.397H162.707C162.785 295.669 163.076 295.071 163.578 294.603C164.081 294.126 164.722 293.888 165.502 293.888C166.3 293.888 166.932 294.105 167.4 294.538C167.868 294.963 168.102 295.522 168.102 296.215C168.102 296.596 168.011 296.947 167.829 297.268C167.647 297.58 167.413 297.805 167.127 297.944C167.483 298.1 167.756 298.334 167.946 298.646C168.137 298.958 168.232 299.305 168.232 299.686C168.232 300.397 167.985 300.982 167.491 301.441C166.997 301.9 166.334 302.13 165.502 302.13C164.653 302.13 163.96 301.892 163.422 301.415C162.885 300.938 162.595 300.31 162.551 299.53H164.189C164.233 299.894 164.363 300.184 164.579 300.401C164.805 300.609 165.108 300.713 165.489 300.713C165.827 300.713 166.105 300.618 166.321 300.427C166.538 300.228 166.646 299.972 166.646 299.66C166.646 299.331 166.529 299.071 166.295 298.88C166.061 298.681 165.758 298.581 165.385 298.581H164.878Z" fill="white"/>
<g filter="url(#filter3_d_9_283)">
<rect x="10" y="122" width="172" height="48" rx="6" fill="white"/>
<rect x="10.5" y="122.5" width="171" height="47" rx="5.5" stroke="#E5E5E6"/>
</g>
<path d="M52.752 149.512H54.336C55.3493 149.512 56.128 149.208 56.672 148.6C57.2267 147.992 57.504 147.155 57.504 146.088C57.504 145.021 57.2267 144.184 56.672 143.576C56.128 142.957 55.3493 142.648 54.336 142.648H52.752V149.512ZM51.088 151V141.176H54.4C55.8507 141.176 57.008 141.624 57.872 142.52C58.736 143.405 59.168 144.595 59.168 146.088C59.168 147.581 58.736 148.776 57.872 149.672C57.008 150.557 55.8507 151 54.4 151H51.088ZM62.3264 143.896V151H60.7264V143.896H62.3264ZM62.2144 141.064C62.417 141.256 62.5184 141.485 62.5184 141.752C62.5184 142.019 62.417 142.248 62.2144 142.44C62.0224 142.632 61.793 142.728 61.5264 142.728C61.2597 142.728 61.025 142.632 60.8224 142.44C60.6304 142.248 60.5344 142.019 60.5344 141.752C60.5344 141.485 60.6304 141.256 60.8224 141.064C61.025 140.872 61.2597 140.776 61.5264 140.776C61.793 140.776 62.0224 140.872 62.2144 141.064ZM63.8085 148.952H65.4405C65.6218 149.549 66.0912 149.848 66.8485 149.848C67.2218 149.848 67.5152 149.779 67.7285 149.64C67.9525 149.491 68.0645 149.277 68.0645 149C68.0645 148.808 68.0005 148.659 67.8725 148.552C67.7445 148.435 67.5312 148.339 67.2325 148.264L65.7605 147.912C64.5872 147.635 64.0005 146.984 64.0005 145.96C64.0005 145.32 64.2512 144.792 64.7525 144.376C65.2645 143.949 65.9098 143.736 66.6885 143.736C67.4992 143.736 68.1445 143.923 68.6245 144.296C69.1045 144.659 69.4085 145.171 69.5365 145.832H67.9685C67.8085 145.309 67.3765 145.048 66.6725 145.048C66.3632 145.048 66.0965 145.117 65.8725 145.256C65.6485 145.395 65.5365 145.597 65.5365 145.864C65.5365 146.173 65.7818 146.392 66.2725 146.52L67.7765 146.872C68.9925 147.16 69.6005 147.832 69.6005 148.888C69.6005 149.581 69.3392 150.136 68.8165 150.552C68.3045 150.957 67.6432 151.16 66.8325 151.16C66.0005 151.16 65.3125 150.963 64.7685 150.568C64.2352 150.173 63.9152 149.635 63.8085 148.952ZM71.5959 150.136C70.9772 149.443 70.6679 148.547 70.6679 147.448C70.6679 146.349 70.9772 145.459 71.5959 144.776C72.2145 144.083 73.0092 143.736 73.9799 143.736C74.8119 143.736 75.4892 143.955 76.0119 144.392C76.5345 144.819 76.8492 145.395 76.9559 146.12H75.3559C75.2919 145.8 75.1372 145.555 74.8919 145.384C74.6572 145.213 74.3585 145.128 73.9959 145.128C73.4732 145.128 73.0519 145.347 72.7319 145.784C72.4225 146.211 72.2679 146.765 72.2679 147.448C72.2679 148.131 72.4225 148.691 72.7319 149.128C73.0519 149.555 73.4732 149.768 73.9959 149.768C74.3585 149.768 74.6572 149.683 74.8919 149.512C75.1372 149.341 75.2919 149.096 75.3559 148.776H76.9559C76.8492 149.501 76.5345 150.083 76.0119 150.52C75.4892 150.947 74.8119 151.16 73.9799 151.16C73.0092 151.16 72.2145 150.819 71.5959 150.136ZM84.2866 143.896V151H82.6866V150.328C82.2066 150.883 81.572 151.16 80.7826 151.16C79.9933 151.16 79.38 150.92 78.9426 150.44C78.5053 149.96 78.2866 149.32 78.2866 148.52V143.896H79.8866V148.248C79.8866 149.219 80.3293 149.704 81.2146 149.704C81.5666 149.704 81.876 149.603 82.1426 149.4C82.42 149.187 82.6013 148.909 82.6866 148.568V143.896H84.2866ZM85.7773 148.952H87.4093C87.5906 149.549 88.0599 149.848 88.8173 149.848C89.1906 149.848 89.4839 149.779 89.6973 149.64C89.9213 149.491 90.0333 149.277 90.0333 149C90.0333 148.808 89.9693 148.659 89.8413 148.552C89.7133 148.435 89.4999 148.339 89.2013 148.264L87.7293 147.912C86.5559 147.635 85.9693 146.984 85.9693 145.96C85.9693 145.32 86.2199 144.792 86.7213 144.376C87.2333 143.949 87.8786 143.736 88.6573 143.736C89.4679 143.736 90.1133 143.923 90.5933 144.296C91.0733 144.659 91.3773 145.171 91.5053 145.832H89.9373C89.7773 145.309 89.3453 145.048 88.6413 145.048C88.3319 145.048 88.0653 145.117 87.8413 145.256C87.6173 145.395 87.5053 145.597 87.5053 145.864C87.5053 146.173 87.7506 146.392 88.2413 146.52L89.7453 146.872C90.9613 147.16 91.5693 147.832 91.5693 148.888C91.5693 149.581 91.3079 150.136 90.7853 150.552C90.2733 150.957 89.6119 151.16 88.8013 151.16C87.9693 151.16 87.2813 150.963 86.7373 150.568C86.2039 150.173 85.8839 149.635 85.7773 148.952ZM92.6366 148.952H94.2686C94.45 149.549 94.9193 149.848 95.6766 149.848C96.05 149.848 96.3433 149.779 96.5566 149.64C96.7806 149.491 96.8926 149.277 96.8926 149C96.8926 148.808 96.8286 148.659 96.7006 148.552C96.5726 148.435 96.3593 148.339 96.0606 148.264L94.5886 147.912C93.4153 147.635 92.8286 146.984 92.8286 145.96C92.8286 145.32 93.0793 144.792 93.5806 144.376C94.0926 143.949 94.738 143.736 95.5166 143.736C96.3273 143.736 96.9726 143.923 97.4526 144.296C97.9326 144.659 98.2366 145.171 98.3646 145.832H96.7966C96.6366 145.309 96.2046 145.048 95.5006 145.048C95.1913 145.048 94.9246 145.117 94.7006 145.256C94.4766 145.395 94.3646 145.597 94.3646 145.864C94.3646 146.173 94.61 146.392 95.1006 146.52L96.6046 146.872C97.8206 147.16 98.4286 147.832 98.4286 148.888C98.4286 149.581 98.1673 150.136 97.6446 150.552C97.1326 150.957 96.4713 151.16 95.6606 151.16C94.8286 151.16 94.1406 150.963 93.5966 150.568C93.0633 150.173 92.7433 149.635 92.6366 148.952Z" fill="black"/>
<circle cx="33.5" cy="146.5" r="9.5" fill="black"/>
<path d="M34.777 142.018L32.177 147.049H33.945V145.398H35.427V147.049H36.636V148.414H35.427V150H33.945V148.414H30.396V147.218L33.152 142.018H34.777Z" fill="white"/>
<path d="M149 143H159M149 147H153M154 155L150 151H147C146.47 151 145.961 150.789 145.586 150.414C145.211 150.039 145 149.53 145 149V141C145 140.47 145.211 139.961 145.586 139.586C145.961 139.211 146.47 139 147 139H161C161.53 139 162.039 139.211 162.414 139.586C162.789 139.961 163 140.47 163 141V149C163 149.53 162.789 150.039 162.414 150.414C162.039 150.789 161.53 151 161 151H158L154 155Z" stroke="black" stroke-width="2" stroke-linecap="round" stroke-linejoin="round"/>
<path d="M469 182V185M469 185V188M469 185H472M469 185H466M464 180C464 181.061 463.579 182.078 462.828 182.828C462.078 183.579 461.061 184 460 184C458.939 184 457.922 183.579 457.172 182.828C456.421 182.078 456 181.061 456 180C456 178.939 456.421 177.922 457.172 177.172C457.922 176.421 458.939 176 460 176C461.061 176 462.078 176.421 462.828 177.172C463.579 177.922 464 178.939 464 180ZM454 193C454 191.409 454.632 189.883 455.757 188.757C456.883 187.632 458.409 187 460 187C461.591 187 463.117 187.632 464.243 188.757C465.368 189.883 466 191.409 466 193V194H454V193Z" stroke="black" stroke-width="2" stroke-linecap="round" stroke-linejoin="round"/>
<path d="M291.752 298.168L288.555 296.036C288.404 295.935 288.229 295.878 288.048 295.869C287.867 295.86 287.687 295.901 287.527 295.987C287.368 296.072 287.234 296.2 287.141 296.355C287.048 296.511 287 296.689 287 296.87V301.133C287 301.314 287.049 301.492 287.142 301.647C287.235 301.802 287.369 301.929 287.528 302.015C287.688 302.1 287.868 302.141 288.049 302.132C288.229 302.123 288.404 302.065 288.555 301.965L291.752 299.833C291.889 299.742 292.001 299.618 292.079 299.473C292.157 299.328 292.197 299.166 292.197 299.001C292.197 298.836 292.157 298.674 292.079 298.529C292.001 298.384 291.889 298.259 291.752 298.168Z" stroke="black" stroke-width="2" stroke-linecap="round" stroke-linejoin="round"/>
<path d="M298 299C298 300.182 297.767 301.352 297.315 302.444C296.863 303.536 296.2 304.528 295.364 305.364C294.528 306.2 293.536 306.863 292.444 307.315C291.352 307.767 290.182 308 289 308C287.818 308 286.648 307.767 285.556 307.315C284.464 306.863 283.472 306.2 282.636 305.364C281.8 304.528 281.137 303.536 280.685 302.444C280.233 301.352 280 300.182 280 299C280 296.613 280.948 294.324 282.636 292.636C284.324 290.948 286.613 290 289 290C291.387 290 293.676 290.948 295.364 292.636C297.052 294.324 298 296.613 298 299Z" stroke="black" stroke-width="2" stroke-linecap="round" stroke-linejoin="round"/>
<defs>
<filter id="filter0_d_9_283" x="172" y="0" width="192" height="68" filterUnits="userSpaceOnUse" color-interpolation-filters="sRGB">
<feFlood flood-opacity="0" result="BackgroundImageFix"/>
<feColorMatrix in="SourceAlpha" type="matrix" values="0 0 0 0 0 0 0 0 0 0 0 0 0 0 0 0 0 0 127 0" result="hardAlpha"/>
<feOffset dy="4"/>
<feGaussianBlur stdDeviation="5"/>
<feComposite in2="hardAlpha" operator="out"/>
<feColorMatrix type="matrix" values="0 0 0 0 0 0 0 0 0 0 0 0 0 0 0 0 0 0 0.08 0"/>
<feBlend mode="normal" in2="BackgroundImageFix" result="effect1_dropShadow_9_283"/>
<feBlend mode="normal" in="SourceGraphic" in2="effect1_dropShadow_9_283" result="shape"/>
</filter>
<filter id="filter1_d_9_283" x="304" y="156" width="192" height="68" filterUnits="userSpaceOnUse" color-interpolation-filters="sRGB">
<feFlood flood-opacity="0" result="BackgroundImageFix"/>
<feColorMatrix in="SourceAlpha" type="matrix" values="0 0 0 0 0 0 0 0 0 0 0 0 0 0 0 0 0 0 127 0" result="hardAlpha"/>
<feOffset dy="4"/>
<feGaussianBlur stdDeviation="5"/>
<feComposite in2="hardAlpha" operator="out"/>
<feColorMatrix type="matrix" values="0 0 0 0 0 0 0 0 0 0 0 0 0 0 0 0 0 0 0.08 0"/>
<feBlend mode="normal" in2="BackgroundImageFix" result="effect1_dropShadow_9_283"/>
<feBlend mode="normal" in="SourceGraphic" in2="effect1_dropShadow_9_283" result="shape"/>
</filter>
<filter id="filter2_d_9_283" x="132" y="268" width="192" height="68" filterUnits="userSpaceOnUse" color-interpolation-filters="sRGB">
<feFlood flood-opacity="0" result="BackgroundImageFix"/>
<feColorMatrix in="SourceAlpha" type="matrix" values="0 0 0 0 0 0 0 0 0 0 0 0 0 0 0 0 0 0 127 0" result="hardAlpha"/>
<feOffset dy="4"/>
<feGaussianBlur stdDeviation="5"/>
<feComposite in2="hardAlpha" operator="out"/>
<feColorMatrix type="matrix" values="0 0 0 0 0 0 0 0 0 0 0 0 0 0 0 0 0 0 0.08 0"/>
<feBlend mode="normal" in2="BackgroundImageFix" result="effect1_dropShadow_9_283"/>
<feBlend mode="normal" in="SourceGraphic" in2="effect1_dropShadow_9_283" result="shape"/>
</filter>
<filter id="filter3_d_9_283" x="0" y="116" width="192" height="68" filterUnits="userSpaceOnUse" color-interpolation-filters="sRGB">
<feFlood flood-opacity="0" result="BackgroundImageFix"/>
<feColorMatrix in="SourceAlpha" type="matrix" values="0 0 0 0 0 0 0 0 0 0 0 0 0 0 0 0 0 0 127 0" result="hardAlpha"/>
<feOffset dy="4"/>
<feGaussianBlur stdDeviation="5"/>
<feComposite in2="hardAlpha" operator="out"/>
<feColorMatrix type="matrix" values="0 0 0 0 0 0 0 0 0 0 0 0 0 0 0 0 0 0 0.08 0"/>
<feBlend mode="normal" in2="BackgroundImageFix" result="effect1_dropShadow_9_283"/>
<feBlend mode="normal" in="SourceGraphic" in2="effect1_dropShadow_9_283" result="shape"/>
</filter>
</defs>
</svg>
